<?xml version="1.0" standalone="no"?>
<!DOCTYPE svg PUBLIC "-//W3C//DTD SVG 1.1//EN" "http://www.w3.org/Graphics/SVG/1.1/DTD/svg11.dtd" >
<svg>
<metadata>
Created by FontForge 20090622 at Tue Oct 23 17:37:54 2018
 By deploy user
copyright missing
</metadata>
<defs>
<font id="ArtCompany-MonoItalic" horiz-adv-x="600" >
  <font-face 
    font-family="Art Company Mono Italic"
    font-weight="300"
    font-style="italic"
    font-stretch="normal"
    units-per-em="1000"
    panose-1="0 0 4 0 0 0 0 0 0 0"
    ascent="800"
    descent="-200"
    x-height="480"
    cap-height="700"
    bbox="-61 -209 679 801"
    underline-thickness="50"
    underline-position="-50"
    unicode-range="U+0020-U+FB02"
  />
<missing-glyph horiz-adv-x="495" 
d="M406 800v-990h-314v990h314zM330 734h-164v-33h65v-37h-66v-32h165v32h-66v37h66v33zM264 606h-99v-103h165v34h-66v69zM231 572v-35h-33v35h33zM330 476h-165v-32h66v-37h-66v-33h99v70h66v32zM330 417h-33v-65h-132v-34h165v99zM330 296h-99v-55h33v22h33v-46h-99v79
h-33v-112h165v112zM330 125h-165v-112h165v112zM297 92v-46h-99v46h99zM330 -10h-165v-32h70l-70 -47v-33h165v33h-101l69 47h32v32z" />
    <glyph glyph-name=".notdef" horiz-adv-x="495" 
d="M406 800v-990h-314v990h314zM330 734h-164v-33h65v-37h-66v-32h165v32h-66v37h66v33zM264 606h-99v-103h165v34h-66v69zM231 572v-35h-33v35h33zM330 476h-165v-32h66v-37h-66v-33h99v70h66v32zM330 417h-33v-65h-132v-34h165v99zM330 296h-99v-55h33v22h33v-46h-99v79
h-33v-112h165v112zM330 125h-165v-112h165v112zM297 92v-46h-99v46h99zM330 -10h-165v-32h70l-70 -47v-33h165v33h-101l69 47h32v32z" />
    <glyph glyph-name=".null" horiz-adv-x="0" 
 />
    <glyph glyph-name="nonmarkingreturn" horiz-adv-x="333" 
 />
    <glyph glyph-name="space" unicode=" " 
 />
    <glyph glyph-name="exclam" unicode="!" 
d="M412 700l-99 -472h-31l83 472h47zM214 49q4 22 20.5 37t35.5 15q21 0 32.5 -17t7.5 -43q-4 -21 -21 -36t-36 -15q-21 0 -32.5 17t-6.5 42z" />
    <glyph glyph-name="parenleft" unicode="(" 
d="M295 -145q-101 221 -53 476q48 248 234 470l37 -2q-85 -96 -147 -226.5t-85 -249.5q-23 -106 -11 -240.5t59 -229.5z" />
    <glyph glyph-name="parenright" unicode=")" 
d="M157 -147l-37 2q85 96 147.5 226.5t84.5 249.5q24 106 12 240.5t-59 229.5l33 -2q102 -220 53 -476q-49 -253 -234 -470z" />
    <glyph glyph-name="comma" unicode="," 
d="M270 101q21 0 32.5 -17.5t7.5 -42.5q-12 -57 -48.5 -92.5t-78.5 -35.5l3 28q24 0 46 15t33 37q-6 -3 -12 -3q-21 0 -32.5 17t-6.5 42q4 21 20.5 36.5t35.5 15.5z" />
    <glyph glyph-name="hyphen" unicode="-" 
d="M473 336l-6 -34h-310l6 34h310z" />
    <glyph glyph-name="period" unicode="." 
d="M214 49q4 22 20.5 37t35.5 15q21 0 32.5 -17t7.5 -43q-4 -21 -21 -36t-36 -15q-21 0 -32.5 17t-6.5 42z" />
    <glyph glyph-name="zero" unicode="0" 
d="M248 -19q85 0 160 97.5t109 276.5q34 175 -2.5 269.5t-120.5 94.5t-159 -97t-109 -275q-34 -175 2.5 -270.5t119.5 -95.5zM385 692q68 0 94 -83t-4 -262q-32 -168 -92 -253.5t-126 -85.5q-68 0 -93.5 83t4.5 264q32 165 92 251t125 86zM274 358q4 22 21 37t36 15
q21 0 32.5 -17t7.5 -43q-5 -21 -22 -36t-36 -15q-21 0 -32 17t-7 42z" />
    <glyph glyph-name="one" unicode="1" 
d="M293 29l159 -9l-3 -20h-390l3 20l196 9l106 548h-167l4 20l173 14l29 108h25z" />
    <glyph glyph-name="two" unicode="2" 
d="M532 533q-3 -14 -7.5 -28.5t-9 -26t-13 -26t-13 -23t-17 -23.5t-17 -21t-20 -22t-19.5 -20.5t-21.5 -22.5l-21.5 -22l-263 -272h277l63 159h19l-48 -185h-367l3 22l300 309q66 68 96.5 111t40.5 98q13 61 -14 104.5t-91 43.5q-70 0 -116.5 -49.5t-60.5 -124.5l-42 2
q16 85 76.5 141.5t145.5 56.5q80 0 117.5 -52t22.5 -129z" />
    <glyph glyph-name="three" unicode="3" 
d="M558 700l-5 -29l-244 -285q4 1 11 1q91 0 136.5 -56t28.5 -143q-17 -86 -79.5 -144t-150.5 -58q-91 0 -134.5 54.5t-27.5 135.5l44 -2q-14 -71 15.5 -116.5t102.5 -45.5t124 53.5t65 131.5q14 68 -21 116.5t-104 48.5q-24 0 -37 -5l-16 20l245 285h-297l7 38h337z" />
    <glyph glyph-name="four" unicode="4" 
d="M337 180l-27 -147l-150 -14l-3 -19h282l3 19l-97 13l28 148h100l7 36h-100l95 489h-35l-360 -495l-7 -30h264zM117 216l311 432l-84 -432h-227z" />
    <glyph glyph-name="five" unicode="5" 
d="M537 660h-262l-69 -275q56 27 117 27q96 0 140 -56t25 -155q-19 -96 -83.5 -155.5t-157.5 -59.5q-88 0 -129 54.5t-25 135.5l45 -2q-14 -70 14 -115.5t96 -45.5q78 0 130.5 54t69.5 142q16 79 -18 127t-110 48q-71 0 -133 -37l-16 14l87 339h286z" />
    <glyph glyph-name="eight" unicode="8" 
d="M520 568q-12 -65 -53 -109t-107 -83q16 -12 25.5 -20l24 -20.5t22.5 -22.5l18.5 -24t15.5 -27.5t9 -30t3.5 -35t-4.5 -39.5q-15 -77 -76 -125.5t-149 -48.5q-86 0 -128 47t-28 119q8 41 26.5 74.5t49 60t56.5 44t67 40.5q-51 41 -75 85t-12 107q12 64 66 108t122 44
t103.5 -42t23.5 -102zM338 393q62 37 99 75.5t48 93.5q10 50 -16.5 87t-82.5 37q-55 0 -94 -35t-48 -81q-11 -57 14.5 -96.5t79.5 -80.5zM431 148q3 16 2.5 32t-1.5 27.5t-8.5 26t-11 22.5t-16.5 22l-17 18.5t-22 19t-21 17.5t-23 18q-54 -31 -84.5 -52.5t-61.5 -59.5
t-40 -83q-11 -60 24.5 -102t102.5 -42t116 39.5t61 96.5z" />
    <glyph glyph-name="colon" unicode=":" 
d="M289 439q4 22 21 37t35 15q22 0 33.5 -17t6.5 -43q-4 -21 -20.5 -36t-36.5 -15q-21 0 -32 17t-7 42zM214 49q4 22 20.5 37t35.5 15q21 0 32.5 -17t7.5 -43q-4 -21 -21 -36t-36 -15q-21 0 -32.5 17t-6.5 42z" />
    <glyph glyph-name="semicolon" unicode=";" 
d="M345 491q22 0 33.5 -17t6.5 -43q-4 -21 -20.5 -36t-36.5 -15q-21 0 -32 17t-7 42q4 22 21 37t35 15zM270 101q21 0 32.5 -17.5t7.5 -42.5q-12 -57 -48.5 -92.5t-78.5 -35.5l3 28q24 0 46 15t33 37q-6 -3 -12 -3q-21 0 -32.5 17t-6.5 42q4 21 20.5 36.5t35.5 15.5z" />
    <glyph glyph-name="question" unicode="?" 
d="M312 227l-28 2q8 41 31.5 75t52 58.5l57 49t52 58.5t31.5 75q11 61 -17.5 103.5t-96.5 42.5q-74 0 -122.5 -51.5t-61.5 -122.5l-40 2q15 76 75 136t152 60q84 0 123.5 -51t24.5 -126q-8 -44 -33 -80t-55 -60.5l-60.5 -48.5t-54 -55t-30.5 -67zM214 49q4 22 20.5 37
t35.5 15q21 0 32.5 -17t7.5 -43q-4 -21 -21 -36t-36 -15q-21 0 -32.5 17t-6.5 42z" />
    <glyph glyph-name="at" unicode="@" 
d="M400 735q83 0 125 -102.5t8 -274.5q-26 -135 -63.5 -204t-76.5 -69q-22 0 -37 21.5t-14 67.5q-35 -94 -83 -94q-38 0 -53.5 58t1.5 156q18 92 56 149.5t74 57.5q43 0 49 -75l13 66h34l-48 -243q-25 -138 11 -138q53 0 101 255q31 157 0.5 249.5t-98.5 92.5
q-73 0 -148 -110.5t-111 -299.5q-25 -131 -16.5 -221t39 -137.5t75.5 -47.5l-3 -26q-87 0 -129.5 120t-3.5 320q39 196 125.5 312.5t172.5 116.5zM266 110q25 0 52 51t42 133q16 82 9 129.5t-30 47.5q-24 0 -50 -50.5t-42 -134.5q-11 -52 -11.5 -92.5t7.5 -62t23 -21.5z" />
    <glyph glyph-name="A" unicode="A" 
d="M470 32l80 -14l-3 -18h-228l3 18l107 12l3 222h-170l-96 -223l93 -12l-3 -18l-211 1l3 18l85 14l295 678h44zM273 278h159l3 301l4 88h-4l-33 -88z" />
    <glyph glyph-name="B" unicode="B" 
d="M546 532q-10 -57 -47.5 -100t-91.5 -63q63 -14 92.5 -60.5t16.5 -113.5q-17 -87 -88.5 -141t-171.5 -54h-216l3 19l108 11l123 640l-103 11l4 19h241q72 0 108 -48t22 -120zM326 376q68 0 117.5 45.5t63.5 117.5q12 60 -15 98t-87 38h-95l-56 -299h72zM476 202
q13 66 -20 107.5t-104 41.5h-103l-63 -326h66q86 0 147.5 49t76.5 128z" />
    <glyph glyph-name="C" unicode="C" 
d="M425 52l31 154l-20 -1q-37 -194 -192 -194q-85 0 -123 88.5t-5 260.5q31 161 102 245t154 84q82 0 111 -44t9 -150l20 1l32 161q-68 57 -163 57q-102 0 -188 -95t-120 -272q-34 -173 14 -267t149 -94q90 0 189 66z" />
    <glyph glyph-name="D" unicode="D" 
d="M355 700q104 0 151.5 -96.5t17.5 -252.5q-30 -155 -114.5 -253t-187.5 -98h-197l3 19l103 12l123 638l-98 12l4 19h195zM485 354q28 147 -8 232.5t-124 85.5h-62l-125 -644h61q88 0 158.5 87.5t99.5 238.5z" />
    <glyph glyph-name="E" unicode="E" 
d="M170 700h395l-40 -209h-20l16 184h-215l-59 -307h110l33 110h20l-50 -256h-20l13 120h-111l-61 -317h210l77 184h20l-63 -209h-390l3 19l108 12l123 639l-103 11z" />
    <glyph glyph-name="F" unicode="F" 
d="M170 700h405l-40 -209h-20l13 182h-210l-59 -304h125l36 109h20l-50 -256h-20l10 119h-126l-61 -310l166 -12l-3 -19h-321l3 19l118 12l122 637l-112 13z" />
    <glyph glyph-name="G" unicode="G" 
d="M303 330h266l-4 -19l-42 -7q-40 -7 -46 -40l-51 -264h-21l8 74q-26 -36 -69 -62t-95 -26q-92 0 -134.5 94t-8.5 267q34 176 114 271.5t174 95.5q84 0 143 -52l-32 -161l-19 -1q20 103 -4.5 146t-96.5 43q-75 0 -140 -84t-96 -245q-33 -172 -0.5 -260.5t108.5 -88.5
q129 0 169 179l14 72q9 39 -33 42l-107 7z" />
    <glyph glyph-name="H" unicode="H" 
d="M571 682l-76 -14l-124 -637l82 -13l-3 -18h-184l3 18l67 14l60 310h-195l-60 -311l71 -13l-3 -18h-184l3 18l77 13l124 637l-83 14l4 18h184l-4 -18l-66 -15l-58 -299h195l58 299l-72 15l4 18h184z" />
    <glyph glyph-name="I" unicode="I" 
d="M536 681l-150 -9l-125 -644l160 -9l-3 -19h-358l3 19l163 9l123 644l-170 9l4 19h357z" />
    <glyph glyph-name="J" unicode="J" 
d="M570 700l-4 -19l-107 -10l-96 -503q-18 -92 -62.5 -138.5t-122.5 -46.5q-76 0 -113 51t-19 141l41 -2q-15 -78 11 -122.5t80 -44.5q117 0 149 164l96 502l-158 9l4 19h301z" />
    <glyph glyph-name="K" unicode="K" 
d="M515 669l-193 -248l96 -389l74 -15l-2 -17h-208l3 19l97 11l-89 355l-110 -142l-41 -212l87 -12l-3 -19h-206l3 19l83 12l123 639l-78 11l4 19h199l-4 -19l-85 -11l-72 -373l289 373l-86 11l4 19h190l-3 -15z" />
    <glyph glyph-name="L" unicode="L" 
d="M480 209h20l-63 -209h-372l3 19l98 11l123 641l-93 10l4 19h261l-4 -19l-132 -10l-124 -646h202z" />
    <glyph glyph-name="M" unicode="M" 
d="M576 682l-67 -13l-123 -640l77 -12l-3 -17h-183l3 17l72 13l98 504l31 128h-5l-235 -670h-21l21 549l7 121h-5l-19 -121l-99 -510l67 -14l-3 -17h-169l3 17l72 14l125 638l-79 13l4 18h131l-25 -597h5l206 597h118z" />
    <glyph glyph-name="N" unicode="N" 
d="M600 700l-4 -18l-77 -15l-131 -675h-32l-61 541l-13 124h-5l-20 -124l-97 -503l88 -12l-3 -18h-205l3 18l88 14l124 638l-99 12l4 18h148l55 -487l12 -138h4l22 137l89 458l-94 12l4 18h200z" />
    <glyph glyph-name="O" unicode="O" 
d="M226 -19q85 0 159.5 97t108.5 277q34 175 -2 269.5t-120 94.5t-157.5 -96.5t-108.5 -275.5q-35 -175 1 -270.5t119 -95.5zM363 692q68 0 93.5 -83t-4.5 -262q-32 -168 -91.5 -253.5t-125.5 -85.5q-67 0 -92.5 83t5.5 264q32 165 91 251t124 86z" />
    <glyph glyph-name="P" unicode="P" 
d="M417 700q79 0 117 -62t20 -157q-19 -100 -89.5 -165t-163.5 -65h-67l-43 -223l163 -9l-3 -19h-311l3 19l113 11l123 640l-113 11l4 19h247zM516 488q16 83 -13 135t-97 52h-90l-77 -399h58q81 0 141 58.5t78 153.5z" />
    <glyph glyph-name="Q" unicode="Q" 
d="M372 719q84 0 120 -94.5t2 -269.5q-39 -205 -133 -306l51 -154l-20 -11l-60 138q-52 -41 -106 -41q-83 0 -119 95.5t-1 270.5q35 179 108.5 275.5t157.5 96.5zM452 347q30 179 4.5 262t-93.5 83q-65 0 -124 -86t-91 -251q-31 -181 -5.5 -264t92.5 -83q43 0 87 39l-58 170
l22 11l64 -150q68 91 102 269z" />
    <glyph glyph-name="R" unicode="R" 
d="M541 506q-12 -65 -53.5 -115.5t-101.5 -73.5l42 -296h102l-2 -14q-46 -17 -98 -17q-34 0 -39 33l-39 284q-27 -6 -56 -6h-62l-53 -272l128 -11l-3 -18h-256l3 18l93 12l123 640l-103 11l4 19h234q77 0 115 -55t22 -139zM294 326q78 0 134.5 51.5t73.5 135.5
q15 72 -14 117t-95 45h-87l-67 -349h55z" />
    <glyph glyph-name="S" unicode="S" 
d="M155 199l-24 -1l-31 -158q62 -57 132 -57q73 0 125.5 49.5t67.5 126.5q9 48 2 85.5t-25.5 60t-42 44.5t-47.5 39t-43 42t-26.5 54t0.5 76q10 50 46 88t86 38q55 0 73 -39t0 -139l21 1l31 159q-52 44 -115 44t-114.5 -48.5t-64.5 -115.5q-8 -41 -3 -74.5t19 -55.5
t33.5 -42.5t41 -35.5t40.5 -34.5t33 -40t18.5 -52.5t-3.5 -70q-12 -55 -51 -93t-90 -38q-67 0 -88 41t-1 146z" />
    <glyph glyph-name="T" unicode="T" 
d="M545 700h-402l-50 -209h20l58 184h150l-125 -646l-138 -10l-3 -19h302l3 19l-127 10l124 646h151l-13 -184h20z" />
    <glyph glyph-name="U" unicode="U" 
d="M367 189q-17 -87 -61.5 -129.5t-104.5 -42.5q-61 0 -88 43.5t-10 130.5l94 479l96 12l4 18h-211l-4 -18l78 -12l-93 -481q-19 -99 16 -151.5t108 -52.5q74 0 129.5 53t75.5 153l94 478l81 13l4 18h-204l-4 -18l93 -12z" />
    <glyph glyph-name="V" unicode="V" 
d="M580 700l-4 -17l-69 -13l-308 -675h-24l-44 676l-71 12l4 17h218l-4 -17l-111 -13l35 -523l-1 -84h4l31 83l237 524l-104 13l4 17h207z" />
    <glyph glyph-name="W" unicode="W" 
d="M580 700l-4 -18l-52 -11l-205 -671h-43l36 550l12 109h-4l-32 -109l-175 -550h-44l40 671l-49 11l4 18h156l-4 -18l-74 -12l-27 -488l-16 -138h4l41 139l164 517h46l-35 -518l-14 -140h4l39 141l144 488l-69 11l4 18h153z" />
    <glyph glyph-name="X" unicode="X" 
d="M520 671l-195 -304l90 -341l73 -9l-3 -17h-209l3 17l99 12l-79 297l-190 -297l91 -12l-3 -17h-187l3 17l61 12l215 335l-81 308l-84 11l4 17h209l-4 -17l-88 -13l70 -266l171 265l-82 14l4 17h182l-4 -17z" />
    <glyph glyph-name="Y" unicode="Y" 
d="M504 671l-242 -392l-49 -251l130 -9l-3 -19h-290l3 19l125 10l47 248l-110 395l-64 11l4 17h208l-4 -17l-108 -13l102 -354l215 354l-99 13l4 17h202l-4 -17z" />
    <glyph glyph-name="Z" unicode="Z" 
d="M534 666l-437 -633h285l36 130h18l-31 -163h-345l6 34l439 633h-287l-36 -130h-19l32 163h345z" />
    <glyph glyph-name="a" unicode="a" 
d="M391 25h128v-14q-80 -17 -132 -17q-44 0 -33 44l61 220q-56 -113 -125.5 -194.5t-121.5 -81.5q-25 0 -40.5 16t-20.5 55t9 104q27 139 111 238.5t186 99.5q47 0 85 -17q15 -7 11 -27zM182 17q49 0 139 122.5t128 243.5l21 77q-23 10 -62 10q-53 0 -107.5 -48t-92 -117
t-50.5 -137q-11 -60 -11 -93.5t8.5 -45.5t26.5 -12z" />
    <glyph glyph-name="b" unicode="b" 
d="M452 496q25 0 40.5 -16t20.5 -55t-9 -104q-27 -138 -110.5 -233t-186.5 -95q-55 0 -77 10q-20 8 -12 41l180 656h-131v14q82 17 134 17q45 0 33 -45l-128 -464q55 112 125 193t121 81zM462 310q11 60 11 93.5t-8.5 45.5t-26.5 12q-48 0 -135 -116.5t-128 -237.5l-22 -80
q25 -9 59 -9q80 0 154.5 92.5t95.5 199.5z" />
    <glyph glyph-name="c" unicode="c" 
d="M417 472q80 0 80 -61q0 -44 -32 -91l17 -5q49 59 49 106q0 31 -26 52.5t-77 21.5q-100 0 -183.5 -94.5t-106.5 -213.5q-21 -107 12 -157t92 -50q38 0 76.5 18t65.5 44t49 52t33 44l11 18l-13 9q-4 -6 -12 -16.5t-32.5 -36.5t-48 -45.5t-55 -36t-58.5 -16.5
q-115 0 -80 184q20 105 90.5 189.5t148.5 84.5z" />
    <glyph glyph-name="d" unicode="d" 
d="M540 731q45 0 33 -45l-182 -661h128v-14q-80 -17 -132 -17q-44 0 -33 44l61 221q-56 -113 -125.5 -195t-121.5 -82q-25 0 -40.5 16t-20.5 55t9 104q27 139 111 238.5t186 99.5q34 0 64 -10l60 215h-131v14q82 17 134 17zM182 17q50 0 140.5 123.5t127.5 245.5l20 73
q-24 11 -62 11q-53 0 -107.5 -48t-92 -117t-50.5 -137q-11 -60 -11 -93.5t8.5 -45.5t26.5 -12z" />
    <glyph glyph-name="e" unicode="e" 
d="M408 504q49 0 76.5 -30.5t30.5 -74.5t-3 -93l-2 -15h-316q-19 -44 -27 -93q-28 -190 88 -190q27 0 58 16t55.5 39t45.5 46t32 39l12 16l14 -9l-11.5 -19.5t-32 -44t-50 -55.5t-63.5 -43.5t-75 -19.5q-59 0 -94.5 51.5t-17.5 162.5q18 123 98 220t182 97zM202 310l274 7
q25 163 -77 163q-56 0 -109.5 -48t-87.5 -122z" />
    <glyph glyph-name="f" unicode="f" 
d="M624 723q27 0 55 -5v-37q-30 6 -60 6q-115 0 -169.5 -50t-83.5 -157h189l-5 -26h-191l-116 -425l188 -10l-3 -19h-374l3 19l154 10l114 425h-129l3 16l133 11q32 120 99 181t193 61z" />
    <glyph glyph-name="g" unicode="g" 
d="M573 480l-4 -24h-154q46 -55 27 -152q-15 -80 -66.5 -130t-119.5 -50q-49 0 -82 28l-76 -122h224q69 0 103.5 -27.5t24.5 -79.5q-11 -57 -83.5 -88.5t-169.5 -31.5q-109 0 -158.5 23.5t-38.5 71.5q5 20 13.5 34.5t27 27.5t29 19t41.5 21h-14q-24 0 -30.5 16.5t6.5 31.5
l88 119q-41 52 -24 145q16 79 68 130.5t120 51.5q34 0 60 -14h188zM402 312q14 72 -6.5 116t-72.5 44t-91.5 -46t-54.5 -122q-14 -73 7.5 -115.5t72.5 -42.5q53 0 92 44.5t53 121.5zM313 0h-171q-88 -49 -100 -104q-8 -35 31.5 -53t124.5 -18q77 0 141.5 28t72.5 75
q7 32 -21.5 52t-77.5 20z" />
    <glyph glyph-name="h" unicode="h" 
d="M383 25h128v-14q-80 -17 -132 -17q-44 0 -33 44l99 368q14 53 -24 53q-54 0 -133 -93t-113 -211l-34 -122l-10 -33h-39l196 700h-129v14q81 17 133 17q45 0 33 -45l-114 -405q47 93 107.5 154t113.5 61q35 0 50 -26.5t5 -64.5z" />
    <glyph glyph-name="i" unicode="i" 
d="M425 610q-21 0 -32 17t-6 42q4 22 20.5 37t35.5 15q21 0 33 -17t7 -43q-5 -21 -22 -36t-36 -15zM304 30l188 -10l-3 -20h-390l3 20l163 11l119 425h-169v14q21 6 75 12.5t97 6.5q46 0 34 -47z" />
    <glyph glyph-name="j" unicode="j" 
d="M523 721q21 0 33 -17t7 -43q-5 -21 -22 -36t-36 -15q-21 0 -32 17t-6 42q4 22 20.5 37t35.5 15zM464 489q46 0 34 -47l-105 -389q-32 -120 -99.5 -181.5t-194.5 -61.5q-27 0 -55 5v37q30 -6 60 -6q115 0 169.5 50t83.5 157l109 403h-174v14q21 6 75 12.5t97 6.5z" />
    <glyph glyph-name="k" unicode="k" 
d="M383 480h212l-3 -19l-40 -6q-27 -4 -42.5 -12.5t-36.5 -29.5l-129 -124l87 -224q12 -20 21 -28t30 -12l30 -6l-3 -19h-189l3 19l58 7q9 1 15.5 8t3.5 17l-83 212l-120 -116l-33 -117l138 -10l-3 -20h-300l3 20l123 11l187 669h-149v14q68 19 152 19q46 0 34 -47
l-138 -490l238 234q19 21 -2 24l-67 7z" />
    <glyph glyph-name="l" unicode="l" 
d="M264 30l188 -10l-3 -20h-390l3 20l163 11l187 669h-169v14q21 6 75 12.5t97 6.5q46 0 34 -47z" />
    <glyph glyph-name="m" unicode="m" 
d="M468 25h112v-14q-60 -17 -112 -17q-45 0 -33 45l102 377q13 45 -24 45q-42 0 -92 -65t-83 -182l-59 -214h-36l112 416q13 45 -24 45q-42 0 -91.5 -64.5t-82.5 -179.5l-62 -217h-35l128 456h-108v14q57 17 109 17q45 0 32 -45l-26 -91q69 145 148 145q35 0 47 -23t2 -61
l-19 -70q69 154 152 154q35 0 47 -23t2 -61z" />
    <glyph glyph-name="n" unicode="n" 
d="M381 24h129v-14q0 -1 -21 -5t-53 -7.5t-56 -3.5q-44 0 -33 44l99 368q14 53 -26 53q-52 0 -130 -89t-114 -203l-48 -167h-36l128 457h-130v14q0 1 21.5 5t53.5 7.5t56 3.5q45 0 33 -45l-45 -159q47 92 108.5 152.5t113.5 60.5q35 0 49.5 -26.5t4.5 -64.5z" />
    <glyph glyph-name="o" unicode="o" 
d="M376 505q-80 0 -153 -76t-103 -193q-29 -114 6 -188.5t113 -74.5q80 0 153 76t103 193q30 114 -5.5 188.5t-113.5 74.5zM248 0q-64 0 -89.5 66.5t2.5 177.5q27 104 85.5 169t120.5 65q64 0 89.5 -66.5t-2.5 -177.5q-27 -104 -85.5 -169t-120.5 -65z" />
    <glyph glyph-name="p" unicode="p" 
d="M477 496q25 0 40.5 -16t20.5 -55t-9 -104q-27 -138 -110.5 -233t-186.5 -95q-42 0 -64 6l-44 -159l188 -10l-3 -20h-370l3 20l143 11l170 612h-169v14q21 6 75 12.5t97 6.5q46 0 34 -47l-61 -219q55 112 124.5 194t121.5 82zM487 310q11 60 11 93.5t-8.5 45.5t-26.5 12
q-33 0 -88.5 -59.5t-107.5 -149.5t-75 -170l-15 -54q22 -10 60 -10q80 0 154.5 92.5t95.5 199.5z" />
    <glyph glyph-name="q" unicode="q" 
d="M499 478q17 -8 11 -27l-174 -629h128v-14q-80 -17 -132 -17q-44 0 -33 44l117 423q-56 -113 -125.5 -194.5t-121.5 -81.5q-25 0 -40.5 16t-20.5 55t9 104q27 139 111 238.5t186 99.5q47 0 85 -17zM183 17q49 0 139 122.5t128 243.5l21 77q-23 10 -62 10q-53 0 -107.5 -48
t-92 -117t-50.5 -137q-11 -60 -11 -93.5t8.5 -45.5t26.5 -12z" />
    <glyph glyph-name="r" unicode="r" 
d="M550 496q22 0 40 -7v-35q-18 6 -51 6q-112 0 -200 -102.5t-133 -261.5l-27 -96h-38l129 456h-128v14q0 1 21 5t53 7.5t56 3.5q46 0 33 -44l-57 -192q109 246 302 246z" />
    <glyph glyph-name="s" unicode="s" 
d="M164 189l-14 5q-61 -56 -58 -127q2 -39 38.5 -66t97.5 -27q88 0 144 39t56 103q0 37 -22 65.5t-53 47.5l-62 37t-53 42t-22 54q0 46 40 81.5t100 35.5q97 0 100 -61q2 -39 -27 -94l15 -5l8 10l10.5 15t10 16.5t9.5 20.5t5.5 22t1.5 26q-2 31 -33.5 53t-91.5 22
q-76 0 -129.5 -43.5t-53.5 -109.5q0 -34 21.5 -61t52 -45l61 -36t52 -43.5t21.5 -57.5q0 -46 -43.5 -77t-107.5 -31q-106 0 -112 81q-2 21 8.5 51.5t29.5 56.5z" />
    <glyph glyph-name="t" unicode="t" 
d="M289 454l-92 -330q-30 -106 59 -106q45 0 100 37t88 73l33 37l13 -9q-4 -7 -12.5 -18.5t-35 -41.5t-53.5 -53t-67 -41.5t-78 -18.5q-51 0 -77.5 33.5t-7.5 102.5l92 336l-111 -1l7 23q48 0 87 19.5t59 56.5l23 -1l-21 -72h225l-7 -26h-224z" />
    <glyph glyph-name="u" unicode="u" 
d="M370 23h130v-14q0 -1 -21.5 -5t-53.5 -7.5t-56 -3.5q-45 0 -33 45l45 159q-47 -92 -108.5 -152.5t-113.5 -60.5q-35 0 -49.5 26.5t-4.5 64.5l104 381h-129v14q0 1 21 5t53 7.5t56 3.5q44 0 33 -44l-99 -368q-14 -53 26 -53q52 0 130 89t114 203l48 167h36z" />
    <glyph glyph-name="v" unicode="v" 
d="M262 0l268 442q11 19 1 32t-34 13q-23 0 -49 -4.5t-40 -8.5l-14 -4v-14h110l-254 -424l-51 414q-2 22 -11 31.5t-32 9.5t-49 -4.5t-40 -8.5l-14 -4v-14h109l58 -456h42z" />
    <glyph glyph-name="w" unicode="w" 
d="M558 487q32 0 40 -19.5t-10 -45.5l-276 -422h-49l67 340l-222 -340h-49l90 456h-103v14q51 17 103 17q41 0 33 -45l-81 -412l244 385l8 41h-103v14q51 17 103 17q41 0 33 -45l-81 -412l270 426h-120v14q51 17 103 17z" />
    <glyph glyph-name="x" unicode="x" 
d="M511 449l-172 -204l98 -215l65 -11l-3 -19h-189l3 19l86 11l-85 185l-156 -186l79 -10l-3 -19h-185l3 19l69 12l180 214l-94 204l-65 12l3 19h189l-3 -19l-86 -11l80 -176l149 177l-79 10l3 19h185l-3 -19z" />
    <glyph glyph-name="y" unicode="y" 
d="M517 487q24 0 34 -13t-1 -32l-298 -492q-67 -110 -150 -110q-53 0 -82 29l4 30q27 -20 83 -20q30 0 62.5 20t57.5 62l29 48l-45 447h-108v14q51 17 103 17q23 0 32 -9.5t11 -31.5l37 -387l238 397h-110v14q51 17 103 17z" />
    <glyph glyph-name="z" unicode="z" 
d="M516 480l-6 -34l-380 -413h233q37 0 49 41l25 89h18l-31 -163h-340l6 34l382 413h-229q-38 0 -50 -41l-24 -89h-19l31 163h335z" />
    <glyph glyph-name="fl" unicode="&#xfb02;" horiz-adv-x="540" 
 />
  </font>
</defs>
</svg>
