<?xml version="1.0" standalone="no"?> <!DOCTYPE svg PUBLIC "-//W3C//DTD SVG 1.0//EN" "http://www.w3.org/TR/2001/REC-SVG-20010904/DTD/svg10.dtd" > <svg xmlns="http://www.w3.org/2000/svg" width="100%" height="100%">
<defs >
<font horiz-adv-x="465" ><font-face
    font-family=""
    units-per-em="1000"
    panose-1="0 0 0 0 0 0 0 0 0 0"
    ascent="730"
    descent="-270"
    alphabetic="0" />
<missing-glyph horiz-adv-x="222" />
<glyph unicode=" " glyph-name="space" horiz-adv-x="222" />
<glyph unicode="!" glyph-name="exclam" horiz-adv-x="193" d="M135 662Q135 662 134 639T130 578T123 490T116 391T108 294T102 213H90Q87 247 84 294T77 391T69 490T63 577T58 639T57 662H135ZM51 38Q51 58 64 70T97 83Q117 83 129 71T142 38Q142 18 130 5T97
-8Q77 -8 64 5T51 38Z" />
<glyph unicode="&quot;" glyph-name="quotedbl" horiz-adv-x="283" d="M231 659Q231 650 230 638T226 603T218 547T204 459H197Q189 511 184 545T175 602T171 637T170 659Q170 676 177 685T201 695Q216 695 223 686T231 659ZM112 659Q112 650 111 638T107 603T99
547T85 459H78Q70 511 65 545T56 602T52 637T51 659Q51 676 58 685T82 695Q97 695 104 686T112 659Z" />
<glyph unicode="#" glyph-name="numbersign" horiz-adv-x="396" d="M284 436L248 271H344V247H243L189 0H163L216 247H129L75 0H48L101 247H13V271H106L141 436H54V460H146L190 662H219L175 460H262L306 662H333L289 460H385V436H284ZM134 271H221L257 436H170L134 271Z" />
<glyph unicode="$" glyph-name="dollar" horiz-adv-x="457" d="M218 -10Q213 -10 209 -10T200 -9L190 -107H161L171 -6Q136 -1 107 9T57 32Q55 45 53 64T50 105T49 148T49 188H56Q60 172 67 148T88 100T123 56T175 27L205 320Q170 342 143 363T96 408T67 456T57
513Q57 547 70 576T106 626T162 660T234 673H241L249 748H278L270 672Q304 669 325 664T359 653V570H354Q345 588 324 609T267 640L241 390L255 381Q293 356 321 332T369 284T397 232T407 173Q407 136 395 103T358 44T298 5T218 -10ZM337 139Q337 194 311 229T232
302L203 21H218Q246 21 268 31T305 57T329 95T337 139ZM127 539Q127 493 151 464T214 408L238 644H231Q186 644 157 615T127 539Z" />
<glyph unicode="%" glyph-name="percent" horiz-adv-x="639" d="M465 24Q509 24 538 54T567 131Q567 178 538 208T465 239Q422 239 393 209T363 131Q363 108 371 89T393 55T425 32T465 24ZM324 130Q324 159 335 185T366 230T410 261T465 273Q494 273 520 262T565
233T595 189T606 134Q606 104 595 78T565 33T520 2T465 -9Q435 -9 410 1T365 31T335 75T324 130ZM33 528Q33 557 44 583T74 628T119 659T174 670Q203 670 229 660T274 630T304 586T315 531Q315 502 304 476T274 431T229 400T174 388Q144 388 118 399T74 428T44
472T33 528ZM174 636Q131 636 102 606T72 529Q72 506 80 486T102 452T134 430T174 422Q218 422 247 452T276 529Q276 576 247 606T174 636ZM535 662H576L108 0H66L535 662Z" />
<glyph unicode="&amp;" glyph-name="ampersand" horiz-adv-x="692" d="M688 400Q655 381 634 365T597 327T564 277T523 204Q514 188 506 173T488 143Q501 123 517 103T552 66T594 40T648 30Q669 30 683 34T703 40L706 36Q694 24 669 8T604 -8Q551 -8 514 17T446
84Q409 39 364 13T258 -14Q206 -14 165 1T95 41T51 101T35 173Q35 209 48 241T83 302T134 352T197 388Q196 388 196 389Q158 427 144 458T129 520Q129 542 138 562T164 599T206 626T260 636Q281 636 304 631T345 613T376 582T389 534Q389 507 378 488T351 454T315
428T277 405Q304 378 327 353T374 301T420 242T471 170L491 204Q518 256 538 291T576 349L507 400V406H688V400ZM428 109Q397 155 372 189T323 253T273 310T212 372Q166 343 137 298T108 196Q108 161 119 131T152 79T203 45T272 32Q323 32 360 53T428 109ZM188
537Q188 521 192 508T206 482T229 453T261 420Q272 427 284 436T305 459T321 490T328 531Q328 567 309 589T261 611Q229 611 209 590T188 537Z" />
<glyph unicode="&apos;" glyph-name="quotesingle" horiz-adv-x="163" d="M112 659Q112 650 111 638T107 603T99 547T85 459H78Q70 511 65 545T56 602T52 637T51 659Q51 676 58 685T82 695Q97 695 104 686T112 659Z" />
<glyph unicode="(" glyph-name="parenleft" horiz-adv-x="272" d="M57 283Q57 357 73 426T115 556T176 668T247 757L253 751Q229 712 205 662T163 553T132 427T120 284Q120 211 132 144T163 17T206 -93T253 -184L247 -190Q210 -150 176 -99T115 13T73 142T57 283Z" />
<glyph unicode=")" glyph-name="parenright" horiz-adv-x="272" d="M214 283Q214 357 198 426T156 556T95 668T24 757L18 751Q42 712 66 662T108 553T139 427T151 284Q151 211 139 144T108 17T65 -93T18 -184L24 -190Q61 -150 95 -99T156 13T198 142T214 283Z" />
<glyph unicode="*" glyph-name="asterisk" horiz-adv-x="266" d="M65 449L58 452L96 539L8 560V567L101 577L71 666L77 670L137 594L201 664L207 659L168 572L258 553V546L166 536L195 448L188 445L130 519L65 449Z" />
<glyph unicode="+" glyph-name="plus" horiz-adv-x="471" d="M49 261H220V432H253V261H422V231H253V57H220V231H49V261Z" />
<glyph unicode="," glyph-name="comma" horiz-adv-x="177" d="M38 53Q38 73 51 84T82 96Q106 96 121 78T136 25Q136 -3 126 -30T100 -81T65 -125T28 -160L16 -156Q47 -116 70 -70T96 16Q94 15 91 14Q88 13 78 13Q60 13 49 24T38 53Z" />
<glyph unicode="-" glyph-name="hyphen" horiz-adv-x="253" d="M47 265H207V212H47V265Z" />
<glyph unicode="." glyph-name="period" horiz-adv-x="177" d="M43 38Q43 58 56 70T89 83Q109 83 121 71T134 38Q134 18 122 5T89 -8Q69 -8 56 5T43 38Z" />
<glyph unicode="/" glyph-name="slash" horiz-adv-x="326" d="M305 743L10 -238L-20 -228L275 753L305 743Z" />
<glyph unicode="0" glyph-name="zero" horiz-adv-x="494" d="M36 202Q36 245 52 284T98 352T165 398T248 416Q293 416 331 400T398 355T443 287T459 204Q459 160 443 121T399 53T332 7T248 -10Q203 -10 164 6T97 50T52 118T36 202ZM86 203Q86 166 98 134T133 79T184
43T249 29Q283 29 312 42T363 79T397 134T410 203Q410 240 398 272T364 327T312 363T247 377Q212 377 183 364T132 327T98 272T86 203Z" />
<glyph unicode="1" glyph-name="one" horiz-adv-x="250" d="M30 401V406H220V401L159 356V48L220 6V0H30V6L90 48V356L30 401Z" />
<glyph unicode="2" glyph-name="two" horiz-adv-x="371" d="M46 329Q50 338 59 353T82 381T118 405T168 415Q219 415 248 386T278 305Q278 276 269 251T241 199T190 138T114 60H373L345 0H30V6Q87 69 121 113T172 190T195 246T201 287Q201 324 183 346T132 368Q103
368 84 353T52 324L46 329Z" />
<glyph unicode="3" glyph-name="three" horiz-adv-x="325" d="M41 88Q84 127 112 158T156 215T180 261T187 298Q187 331 173 349T127 368Q101 368 84 354T59 326L53 331Q56 340 63 354T82 382T113 405T157 415Q205 415 230 390T256 316Q256 287 244 263T211 217T167
175T117 136Q124 138 132 139T149 140Q209 140 248 109T287 17Q287 -31 266 -73T210 -154T128 -225T31 -289L25 -282Q119 -202 167 -138T216 -7Q216 41 186 67T111 93Q91 93 73 89T47 81L41 88Z" />
<glyph unicode="4" glyph-name="four" horiz-adv-x="460" d="M348 419V47H446V0H348V-208L279 -232V0H2V6L342 419H348ZM279 47V293L78 47H279Z" />
<glyph unicode="5" glyph-name="five" horiz-adv-x="302" d="M264 406L231 348H110Q108 345 106 340T101 329Q123 303 147 271T193 201T228 125T242 45Q242 -5 221 -46T164 -122T80 -183T-21 -230L-24 -222Q10 -202 45 -177T108 -121T155 -57T174 15Q174 58 162
96T133 167T95 228T57 279Q63 292 71 309T88 345T107 379T124 406H264Z" />
<glyph unicode="6" glyph-name="six" horiz-adv-x="455" d="M453 703Q390 682 331 639T227 536T153 399T125 236Q125 188 136 148T164 79T204 34T250 18Q270 18 288 28T321 58T343 101T351 155Q351 189 341 213T316 252T280 275T241 282Q209 282 188 272T157 257L152
262Q158 268 169 277T196 295T232 310T277 317Q308 317 334 307T379 278T410 233T421 172Q421 131 407 99T368 43T312 7T244 -6Q208 -6 173 10T111 58T68 139T51 251Q51 341 87 419T180 559T309 659T450 711L453 703Z" />
<glyph unicode="7" glyph-name="seven" horiz-adv-x="439" d="M48 406H419V402L138 -282L107 -274L359 344H21L48 406Z" />
<glyph unicode="8" glyph-name="eight" horiz-adv-x="406" d="M204 670Q233 670 258 661T302 634T332 593T343 541Q343 514 336 492T315 450T281 411T235 369Q235 367 237 367Q265 338 288 313T329 263T355 213T365 160Q365 125 352 94T317 41T266 5T204 -8Q170
-8 141 1T89 29T54 75T41 137Q41 167 49 192T72 241T111 289T164 342Q135 371 115 394T82 439T64 482T58 526Q58 558 70 584T102 630T149 659T204 670ZM182 324Q102 248 102 141Q102 90 129 55T206 19Q227 19 244 28T274 54T293 93T300 139Q300 163 294 182T275
222T240 266T188 319L182 324ZM118 547Q118 527 124 509T142 472T174 431T219 383Q247 410 268 450T290 541Q290 589 268 616T201 644Q162 644 140 615T118 547Z" />
<glyph unicode="9" glyph-name="nine" horiz-adv-x="455" d="M28 -278Q93 -254 149 -214T246 -117T310 11T334 171Q334 219 323 259T293 327T251 372T205 388Q185 388 167 377T136 348T116 304T108 251Q108 219 117 196T142 157T177 134T214 126Q249 126 271 136T303
151L307 147Q302 141 292 132T265 113T228 98T182 91Q151 91 125 101T79 131T48 177T37 237Q37 276 51 309T89 365T144 402T211 415Q248 415 283 399T346 349T391 267T408 154Q408 64 376 -10T292 -141T171 -233T31 -285L28 -278Z" />
<glyph unicode=":" glyph-name="colon" horiz-adv-x="185" d="M46 370Q46 390 59 402T92 415Q112 415 124 403T137 370Q137 350 125 337T92 324Q72 324 59 337T46 370ZM46 38Q46 58 59 70T92 83Q112 83 124 71T137 38Q137 18 125 5T92 -8Q72 -8 59 5T46 38Z" />
<glyph unicode=";" glyph-name="semicolon" horiz-adv-x="185" d="M48 53Q48 73 61 84T92 96Q116 96 131 78T146 25Q146 -3 136 -30T110 -81T75 -125T38 -160L26 -156Q57 -116 80 -70T106 16Q104 15 101 14Q98 13 88 13Q70 13 59 24T48 53ZM46 370Q46 390 59 402T92
415Q112 415 124 403T137 370Q137 350 125 337T92 324Q72 324 59 337T46 370Z" />
<glyph unicode="&lt;" glyph-name="less" horiz-adv-x="432" d="M384 106L47 232V260L384 389V359L84 246L384 136V106Z" />
<glyph unicode="=" glyph-name="equal" horiz-adv-x="458" d="M54 185V213H405V185H54ZM54 270V298H405V270H54Z" />
<glyph unicode="&gt;" glyph-name="greater" horiz-adv-x="432" d="M48 136L347 246L48 359V389L385 260V232L48 106V136Z" />
<glyph unicode="?" glyph-name="question" horiz-adv-x="329" d="M299 555Q299 538 296 524T286 495T267 465T237 430Q222 415 203 395T173 362Q155 343 149 330T143 293Q143 270 144 249T147 213H135Q121 248 109 282T97 334Q97 349 103 361T131 399Q140 410
157 428T188 464Q206 485 217 507T228 554Q228 598 203 620T142 642Q121 642 104 634T74 615T52 590T39 568H34V660Q39 662 67 667T141 672Q167 672 195 667T246 648T284 612T299 555ZM97 38Q97 58 110 70T143 83Q163 83 175 71T188 38Q188 18 176 5T143 -8Q123
-8 110 5T97 38Z" />
<glyph unicode="@" glyph-name="at" horiz-adv-x="871" d="M530 42Q570 43 614 58T694 105T753 186T777 306Q777 355 762 403T712 489T621 551T482 575Q392 575 322 540T204 448T132 322T107 182Q107 99 132 34T202 -77T307 -146T437 -170Q485 -170 526 -162T600
-140T660 -112T703 -83L710 -90Q693 -108 666 -128T603 -166T522 -196T426 -208Q343 -208 274 -182T154 -108T75 8T46 161Q46 254 82 336T179 480T324 577T501 613Q582 613 644 590T749 527T813 436T835 330Q835 249 804 188T721 86T602 28T462 15L491 162Q474
136 454 111T413 65T368 31T323 18Q313 18 302 23T282 40T267 69T261 111Q261 150 276 197T326 288T412 363T540 403L609 435L530 42ZM350 70Q362 70 380 82T420 114T462 159T501 211L534 374Q490 371 453 348T387 289T344 208T328 116Q328 95 334 83T350 70Z"
/>
<glyph unicode="A" glyph-name="A" horiz-adv-x="633" d="M164 6V0H7V6L62 52L302 677H309L570 52L626 6V0H424V6L492 52L391 293H189L96 51L164 6ZM199 321H380L286 546L199 321Z" />
<glyph unicode="B" glyph-name="B" horiz-adv-x="558" d="M520 204Q520 147 498 108T441 45T366 11T287 0H49V6L114 52V610L49 656V662H268Q310 662 345 654T406 629T446 586T460 523Q460 496 449 472T421 428T383 393T342 371Q375 369 406 358T463 326T504 275T520
204ZM191 346V45Q208 38 233 32T292 26Q320 26 347 37T395 70T428 121T441 189Q441 229 428 258T393 307T339 336T272 346H191ZM191 635V374H281Q301 374 320 385T354 415T378 459T387 512Q387 572 351 603T253 635H191Z" />
<glyph unicode="C" glyph-name="C" horiz-adv-x="670" d="M396 -11Q319 -11 254 14T142 83T69 190T42 327Q42 393 65 455T134 566T245 644T395 673Q462 673 516 662T600 643V545H596Q566 588 519 616T395 644Q330 644 280 619T197 551T146 452T128 334Q128 266
149 208T206 108T292 42T399 18Q443 18 477 29T537 57T581 92T610 124H615V36Q603 30 583 22T534 7T471 -6T396 -11Z" />
<glyph unicode="D" glyph-name="D" horiz-adv-x="716" d="M305 662Q382 662 449 641T567 578T647 475T677 334Q677 260 652 199T582 94T472 25T329 0H48V6L114 52V610L48 656V662H305ZM191 635V53Q210 43 245 36T331 28Q389 28 436 48T518 108T571 205T590 335Q590
403 569 458T509 553T420 613T310 635H191Z" />
<glyph unicode="E" glyph-name="E" horiz-adv-x="558" d="M49 0V6L114 52V610L49 656V662H479V551H473L410 634H191V368H416L458 436H463V272H458L416 339H191V29H430L498 131H504V0H49Z" />
<glyph unicode="F" glyph-name="F" horiz-adv-x="529" d="M458 436H463V273H458L416 340H191V53L288 6V0H49V6L114 52V610L49 656V662H479V543H473L408 634H191V369H416L458 436Z" />
<glyph unicode="G" glyph-name="G" horiz-adv-x="717" d="M629 45Q614 40 591 31T538 12T474 -4T402 -11Q320 -11 254 14T140 85T68 193T42 331Q42 397 66 458T135 568T245 644T394 673Q428 673 461 670T522 662T573 652T609 643V546H605Q591 566 573 584T531
615T474 636T398 644Q330 644 280 618T195 549T145 450T128 334Q128 271 147 214T201 114T288 45T404 19Q449 19 486 30T549 58V292L467 338V344H681V338L629 292V45V45Z" />
<glyph unicode="H" glyph-name="H" horiz-adv-x="767" d="M191 352H577V610L512 656V662H719V656L654 610V52L719 6V0H512V6L577 52V321H191V52L256 6V0H49V6L114 52V610L49 656V662H256V656L191 610V352Z" />
<glyph unicode="I" glyph-name="I" horiz-adv-x="305" d="M49 0V6L114 52V610L49 656V662H256V656L191 610V52L256 6V0H49Z" />
<glyph unicode="J" glyph-name="J" horiz-adv-x="286" d="M40 656V662H248V656L182 610V96Q182 59 169 17T134 -68T83 -150T20 -221L10 -214Q29 -183 46 -150T77 -76T97 14T105 127V610L40 656Z" />
<glyph unicode="K" glyph-name="K" horiz-adv-x="641" d="M49 0V6L114 52V610L49 656V662H257V656L191 610V52L257 6V0H49ZM638 0H406V6L472 52L238 336H205L471 610L405 656V662H594V656L521 616L294 388L562 52L638 6V0Z" />
<glyph unicode="L" glyph-name="L" horiz-adv-x="553" d="M509 151H515V0H49V6L114 52V610L49 656V662H257V656L191 610V29H429L509 151Z" />
<glyph unicode="M" glyph-name="M" horiz-adv-x="860" d="M804 656L738 611V57L812 6V0H588V6L662 57V539L408 60H400L145 535V57L219 6V0H41V6L114 57V582Q101 605 88 622T60 656V662H163L427 161L691 662H804V656Z" />
<glyph unicode="N" glyph-name="N" horiz-adv-x="763" d="M40 0V6L114 57V582Q86 613 70 628T37 656V662H145L619 119V605L547 656V662H728V656L654 605V0H629L149 542V57L220 6V0H40Z" />
<glyph unicode="O" glyph-name="O" horiz-adv-x="739" d="M44 323Q44 397 69 461T138 572T241 646T370 673Q437 673 496 648T600 579T670 472T696 336Q696 262 671 199T601 89T497 16T369 -11Q302 -11 243 14T140 83T70 188T44 323ZM131 330Q131 258 149 200T200
102T275 40T369 18Q418 18 462 40T539 102T591 200T610 330Q610 402 591 460T540 559T464 622T370 644Q320 644 276 622T200 559T150 460T131 330Z" />
<glyph unicode="P" glyph-name="P" horiz-adv-x="535" d="M503 477Q503 426 482 386T424 318T340 276T239 264V272Q273 276 306 291T365 330T407 389T423 466Q423 503 412 534T379 587T323 622T242 635H191V52L265 6V0H49V6L114 52V610L49 656V662H279Q325 662
366 651T437 616T485 559T503 477Z" />
<glyph unicode="Q" glyph-name="Q" horiz-adv-x="738" d="M694 336Q694 280 677 226T626 126T543 46T432 -5Q516 -44 585 -74T718 -125T845 -157T981 -168Q1011 -168 1037 -166T1072 -161L1074 -166Q1064 -174 1045 -184T999 -202T940 -215T870 -221Q821 -221
764 -208T636 -167T480 -100T288 -6Q244 12 200 38T122 104T66 197T44 323Q44 398 69 462T138 573T241 646T370 673Q437 673 496 648T599 579T668 472T694 336ZM131 330Q131 258 149 200T201 102T279 40T378 18Q423 18 465 39T539 101T590 199T610 330Q610 403
591 461T540 560T463 622T370 644Q320 644 276 623T200 561T150 462T131 330Z" />
<glyph unicode="R" glyph-name="R" horiz-adv-x="597" d="M49 0V6L114 52V610L49 656V662H289Q337 662 373 651T432 621T467 577T479 523Q479 488 467 461T437 412T398 377T357 353L478 149Q502 110 524 83T565 40T597 15T616 6V0Q613 -1 598 -3T571 -6Q554 -6
537 -3T500 12T459 47T416 109L282 335H191V52L267 6V0H49ZM191 635V361H282Q308 361 330 372T367 402T392 446T401 498Q401 535 390 561T358 603T312 627T258 635H191Z" />
<glyph unicode="S" glyph-name="S" horiz-adv-x="466" d="M248 673Q298 673 328 666T373 652V569H369Q364 580 354 593T329 617T292 636T244 644Q196 644 165 617T134 545Q134 516 143 495T170 454T211 417T266 378Q298 355 326 334T376 288T409 235T421 171Q421
133 408 100T370 43T309 4T227 -10Q168 -10 125 3T55 33Q53 46 51 65T49 105T48 147T48 188H54Q58 170 68 142T97 86T147 40T227 20Q255 20 278 29T318 55T343 94T352 140Q352 169 344 192T320 235T280 274T223 315Q186 339 158 362T109 409T79 461T68 520Q68 555
81 583T118 632T175 662T248 673Z" />
<glyph unicode="T" glyph-name="T" horiz-adv-x="630" d="M597 662V541H591L525 632H353V54L417 6V0H212V6L276 54V632H105L39 541H33V662H597Z" />
<glyph unicode="U" glyph-name="U" horiz-adv-x="714" d="M618 233Q618 177 599 132T547 55T469 6T371 -11Q314 -11 264 2T177 45T119 121T97 234V610L31 656V662H239V656L174 610V234Q174 181 190 143T233 81T299 45T383 33Q430 33 467 48T529 89T568 153T582
235V610L518 656V662H683V656L618 610V233Z" />
<glyph unicode="V" glyph-name="V" horiz-adv-x="627" d="M461 656V662H620V656L565 610L325 -14H318L61 610L7 656V662H210V656L141 610L340 115L529 611L461 656Z" />
<glyph unicode="W" glyph-name="W" horiz-adv-x="937" d="M451 610L513 457L577 610L526 656V662H668V656L612 610L529 418L658 107L841 610L769 656V662H931V656L876 610L648 -14H640L486 348L322 -14H314L61 610L7 656V662H212V656L141 610L341 105L468 388L374
610L319 656V662H501V656L451 610Z" />
<glyph unicode="X" glyph-name="X" horiz-adv-x="640" d="M6 0V6L71 52L283 329L81 610L15 656V662H239V656L172 610L328 388L498 611L431 656V662H601V656L537 610L347 362L567 52L634 6V0H417V6L482 52L301 303L111 52L176 6V0H6Z" />
<glyph unicode="Y" glyph-name="Y" horiz-adv-x="587" d="M424 656V662H580V656L525 610L339 328V51L404 6V0H196V6L262 51V312L61 610L7 656V662H218V656L151 610L320 353L491 611L424 656Z" />
<glyph unicode="Z" glyph-name="Z" horiz-adv-x="627" d="M135 29H509L585 129H591V0H37V9L469 633H136L69 540H63V662H576V654L135 29Z" />
<glyph unicode="[" glyph-name="bracketleft" horiz-adv-x="229" d="M208 716H119V-136H208V-156H61V736H208V716Z" />
<glyph unicode="\" glyph-name="backslash" horiz-adv-x="325" d="M345 -228L316 -238L20 743L51 753L345 -228Z" />
<glyph unicode="]" glyph-name="bracketright" horiz-adv-x="229" d="M21 716H110V-136H21V-156H168V736H21V716Z" />
<glyph unicode="^" glyph-name="asciicircum" horiz-adv-x="407" d="M53 330L48 332L203 674H204L360 332L355 330L204 547L53 330Z" />
<glyph unicode="_" glyph-name="underscore" horiz-adv-x="361" d="M-5 -120V-90H366V-120H-5Z" />
<glyph unicode="`" glyph-name="grave" horiz-adv-x="400" d="M268 497L119 677L175 711L277 502L268 497Z" />
<glyph unicode="a" glyph-name="a" horiz-adv-x="395" d="M252 296Q252 332 235 356T179 380Q150 380 134 367T112 346V290L41 310V315Q54 330 70 348T108 382T155 408T214 419Q264 419 291 392T319 325Q319 301 319 261T317 181T316 109T315 66Q332 54 350 45T390
31V25L333 -14Q281 6 254 38Q245 31 233 23T206 7T178 -6T150 -11Q97 -11 66 17T35 87Q35 116 48 132T72 153Q76 154 91 159T130 173T185 191T252 213V296ZM251 60Q251 90 251 119T252 181Q236 176 213 168T167 151T127 137T108 130Q104 128 102 120T99 100Q99
75 117 55T173 35Q201 35 221 43T251 60Z" />
<glyph unicode="b" glyph-name="b" horiz-adv-x="459" d="M5 674V682Q5 681 15 685T43 695T84 710T132 725V349Q139 359 151 370T181 392T218 409T259 416Q304 416 336 400T389 357T420 295T430 222Q430 186 418 146T380 70T311 12T209 -11Q159 -11 125 -6T63
0V646L5 674ZM236 368Q194 368 170 354T132 326V37Q149 29 168 24T209 19Q243 19 270 33T317 72T347 130T358 203Q358 245 348 276T322 327T283 358T236 368Z" />
<glyph unicode="c" glyph-name="c" horiz-adv-x="403" d="M243 415Q280 415 314 409T363 399V312H358Q350 323 339 336T311 360T274 378T228 386Q197 386 173 372T131 335T104 282T95 220Q95 175 108 141T145 85T199 51T266 39Q305 39 333 48T382 71L385 64Q375
51 361 38T327 14T282 -3T226 -10Q185 -10 149 4T86 44T43 108T27 196Q27 239 41 278T82 348T150 397T243 415Z" />
<glyph unicode="d" glyph-name="d" horiz-adv-x="470" d="M259 675V682Q258 681 269 685T300 695T343 710T394 725V59L462 34V27Q422 17 391 9Q365 2 344 -3T326 -7V46Q316 35 302 25T273 8T243 -5T214 -10Q172 -10 138 6T79 49T41 112T27 190Q27 232 41 273T83
345T153 396T250 416Q273 416 294 414T325 410V647L259 675ZM244 38Q266 38 289 46T325 69V366Q319 370 300 379T248 388Q215 388 188 374T141 335T111 277T100 206Q100 165 111 134T141 81T187 49T244 38Z" />
<glyph unicode="e" glyph-name="e" horiz-adv-x="380" d="M96 218Q96 175 108 142T142 86T191 52T253 40Q287 40 314 46T361 62L365 55Q356 46 341 35T305 14T261 -3T214 -10Q174 -10 140 4T80 44T41 109T27 198Q27 241 41 280T80 350T138 398T211 416Q246 416
270 404T312 373T339 331T356 286V285H103Q100 270 98 254T96 218ZM207 387Q178 387 153 369T112 312H279Q277 334 269 348T251 371T229 383T207 387Z" />
<glyph unicode="f" glyph-name="f" horiz-adv-x="283" d="M230 6V0H19V6L80 48V362H17V369L80 404V452Q80 508 98 556T147 639T222 695T317 715Q345 715 367 712T402 705L376 648Q353 661 328 670T276 680Q256 680 234 669T193 636T161 577T148 492V403H287L250
362H148V53L230 6Z" />
<glyph unicode="g" glyph-name="g" horiz-adv-x="417" d="M35 268Q35 299 48 326T84 372T136 403T196 415Q228 415 257 406H409V372H307Q332 353 345 329T359 273Q359 241 345 215T309 169T257 138T196 127Q168 127 144 134Q122 118 112 106T101 79Q101 58 115
49T148 40H317Q327 40 343 34T374 14T399 -21T410 -71Q410 -112 390 -150T336 -217T259 -263T168 -281Q132 -281 103 -273T53 -251T21 -216T9 -172Q9 -138 33 -99T103 -21Q78 -12 61 8T43 59Q43 71 46 82T53 96L121 142Q83 159 59 192T35 268ZM140 -27Q136 -27
133 -27T125 -26Q116 -35 107 -48T89 -77T75 -111T69 -148Q69 -190 107 -215T203 -241Q233 -241 261 -231T311 -203T346 -162T359 -112Q359 -70 333 -49T259 -27H140ZM105 271Q105 246 112 225T131 187T160 161T197 151Q217 151 233 160T262 186T280 224T287 271Q287
296 281 317T262 355T234 381T197 391Q176 391 159 382T130 356T112 318T105 271Z" />
<glyph unicode="h" glyph-name="h" horiz-adv-x="500" d="M22 0V6L82 47V646L23 674V681Q22 681 32 685T61 695T102 710T151 725V348Q161 357 176 369T210 391T251 408T299 415Q323 415 345 407T384 385T412 351T422 310V47L483 6V0H293V6L354 47V288Q354 322
330 347T260 372Q225 372 198 356T151 320V47L211 6V0H22Z" />
<glyph unicode="i" glyph-name="i" horiz-adv-x="233" d="M153 587Q153 569 141 557T111 545Q94 545 82 557T69 587Q69 605 81 617T111 629Q128 629 140 617T153 587ZM22 0V6L82 48V344L26 371V377Q25 377 34 381T61 391T101 405T150 420V48L211 6V0H22Z" />
<glyph unicode="j" glyph-name="j" horiz-adv-x="213" d="M145 587Q145 569 133 557T103 545Q86 545 74 557T61 587Q61 605 73 617T103 629Q120 629 132 617T145 587ZM18 370V377Q17 377 27 381T54 391T94 405T143 420V56Q143 44 141 15T127 -55T89 -147T14 -252L3
-247Q40 -173 57 -97T74 58V344L18 370Z" />
<glyph unicode="k" glyph-name="k" horiz-adv-x="461" d="M150 48L211 6V0H22V6L82 48V646L23 674V681Q25 682 36 686T64 696T104 710T150 725V48ZM161 232V238L298 356L246 401V406H431V401L346 362L223 256L322 129Q364 75 397 46T460 6V0Q458 -2 442 -5T411
-8Q391 -8 375 -4T344 12T313 41T277 85L161 232Z" />
<glyph unicode="l" glyph-name="l" horiz-adv-x="233" d="M150 48L211 6V0H22V6L82 48V646L23 674V682Q24 682 34 686T62 696T102 710T150 725V48Z" />
<glyph unicode="m" glyph-name="m" horiz-adv-x="735" d="M150 347Q159 356 173 368T206 390T246 408T292 416Q327 416 356 397T398 342Q406 351 421 363T455 387T498 407T547 416Q569 416 589 408T624 387T649 355T658 314V48L718 6V0H529V6L591 48V287Q591 321
571 347T507 373Q473 373 449 356T404 319V48L467 6V0H275V6L336 48V287Q336 321 316 347T252 373Q220 373 195 356T150 319V48L212 6V0H22V6L82 48V344L26 370V377Q25 377 34 381T61 391T101 405T150 420V347Z" />
<glyph unicode="n" glyph-name="n" horiz-adv-x="500" d="M22 0V6L82 48V344L26 370V377Q25 377 34 381T61 391T101 405T150 420V349Q160 358 175 370T209 392T251 409T299 416Q323 416 345 408T384 387T411 354T422 313V48L483 6V0H295V6L353 48V287Q353 321
330 346T259 371Q224 371 197 355T150 320V48L211 6V0H22Z" />
<glyph unicode="o" glyph-name="o" horiz-adv-x="452" d="M27 198Q27 243 42 283T84 352T147 399T225 416Q267 416 303 400T367 357T409 291T425 207Q425 161 410 122T368 53T305 7T226 -10Q184 -10 148 5T85 49T43 115T27 198ZM101 203Q101 162 111 129T138 71T177
33T226 19Q251 19 274 32T313 70T340 128T350 203Q350 242 340 276T313 334T274 373T225 388Q200 388 178 374T138 335T111 276T101 203Z" />
<glyph unicode="p" glyph-name="p" horiz-adv-x="463" d="M230 -269V-275H8V-269L68 -228V343L12 370V377Q11 377 21 380T48 390T88 404T136 419V349Q145 361 158 372T188 393T225 409T266 415Q309 415 341 399T394 357T425 295T435 221Q435 185 422 144T382 69T313
12T213 -11Q194 -11 177 -10T136 -7V-228L230 -269ZM239 367Q197 367 174 354T136 326V37Q155 26 174 23T214 19Q248 19 275 33T322 71T352 129T363 201Q363 244 353 275T327 326T287 357T239 367Z" />
<glyph unicode="q" glyph-name="q" horiz-adv-x="464" d="M457 -269V-275H236V-269L327 -228V47Q309 23 278 7T217 -10Q169 -10 133 6T74 50T39 112T27 187Q27 225 39 265T79 339T150 393T254 415Q283 415 311 412T359 405L396 426V-228L457 -269ZM244 37Q269
37 290 46T325 69V369Q306 378 286 382T247 386Q212 386 185 373T139 335T109 279T99 208Q99 166 110 134T140 81T186 48T244 37Z" />
<glyph unicode="r" glyph-name="r" horiz-adv-x="335" d="M26 370V377Q31 379 65 392T150 420V334Q199 384 227 401T269 419Q284 419 299 415T321 409L298 342Q292 344 279 348T250 353Q233 353 205 343T150 309V47L229 6V0H22V6L82 48V344L26 370Z" />
<glyph unicode="s" glyph-name="s" horiz-adv-x="320" d="M167 416Q203 416 225 411T254 403V327H248Q245 335 239 345T222 365T197 380T163 387Q140 387 123 374T105 333Q105 302 125 286T180 247Q199 235 218 222T252 193T276 157T286 110Q286 59 251 25T151
-10Q113 -10 83 -2T38 14Q37 22 36 37T33 69T32 105T32 139H38Q43 120 52 99T75 60T108 31T153 19Q185 19 206 38T227 90Q227 124 204 144T141 188Q123 200 106 212T76 238T56 271T48 314Q48 338 57 357T83 389T121 409T167 416Z" />
<glyph unicode="t" glyph-name="t" horiz-adv-x="343" d="M140 364V109Q140 78 161 56T224 33Q250 33 273 39T311 53L315 46Q295 25 264 8T190 -9Q157 -9 134 0T98 25T78 58T72 93V364H17V371L140 464V404H334L307 364H140Z" />
<glyph unicode="u" glyph-name="u" horiz-adv-x="486" d="M17 370V377Q16 377 25 380T52 390T93 404T142 419V119Q142 87 163 62T230 36Q262 36 289 52T337 86V342L273 371V378Q272 378 283 381T313 391T356 404T406 419V59L473 34V27L403 9Q377 2 356 -3T337
-8V59Q327 49 313 38T281 16T242 -1T196 -8Q173 -8 151 -1T112 22T85 58T74 108V343L17 370Z" />
<glyph unicode="v" glyph-name="v" horiz-adv-x="418" d="M366 360L233 11Q233 12 231 7T227 -7Q224 -16 220 -27H212Q208 -19 204 -9Q200 -1 196 9T187 30L51 360L1 400V406H187V400L127 360L230 92L331 360L269 400V406H418V400L366 360Z" />
<glyph unicode="w" glyph-name="w" horiz-adv-x="631" d="M222 23Q217 10 212 -2Q209 -9 207 -15H200Q197 -8 193 1Q190 9 186 19T177 41L51 360L1 400V406H183V400L124 360L220 108L304 349L301 360L248 400V406H417V400L367 360L457 109L545 360L485 400V406H629V400L578
360L458 22Q456 18 454 12T450 0Q447 -7 444 -15H438Q436 -10 433 -2Q431 5 427 16T417 43L321 302L222 23V23Z" />
<glyph unicode="x" glyph-name="x" horiz-adv-x="425" d="M418 6V0H245V6L303 47L204 174L96 47L158 6V0H6V6L56 48L184 200L60 360L11 400V406H199V400L139 360L224 247L316 360L255 400V406H405V400L355 358L242 224L376 47L418 6Z" />
<glyph unicode="y" glyph-name="y" horiz-adv-x="419" d="M185 -112Q162 -175 152 -215T139 -276H48V-271Q71 -249 102 -205T162 -89L200 9L51 359L1 400V406H185V400L127 359L233 96L331 359L269 400V406H418V400L367 359L185 -112Z" />
<glyph unicode="z" glyph-name="z" horiz-adv-x="391" d="M365 104V0H22V6L265 381H110L52 307H46V406H357V403L107 25H299L359 104H365Z" />
<glyph unicode="{" glyph-name="braceleft" horiz-adv-x="281" d="M132 -34Q132 -76 155 -110T243 -176L238 -182Q184 -163 152 -142T103 -99T81 -56T76 -13Q76 14 88 41T114 95T140 149T152 202Q152 238 124 260T36 283V301Q96 301 124 324T152 383Q152 409 141
435T115 486T89 538T77 592Q77 611 82 632T103 675T152 718T238 757L243 750Q178 719 155 686T132 613Q132 586 143 560T167 507T191 455T202 403Q202 365 175 334T92 292Q147 282 174 252T202 182Q202 156 191 129T167 75T143 20T132 -34Z" />
<glyph unicode="|" glyph-name="bar" horiz-adv-x="255" d="M111 743H144V-234H111V743Z" />
<glyph unicode="}" glyph-name="braceright" horiz-adv-x="280" d="M148 -34Q148 -76 125 -110T37 -176L42 -182Q96 -163 128 -142T177 -99T199 -56T204 -13Q204 14 192 41T166 95T140 149T128 202Q128 238 156 260T244 283V301Q184 301 156 324T128 383Q128 409
139 435T165 486T191 538T203 592Q203 611 198 632T177 675T128 718T42 757L37 750Q102 719 125 686T148 613Q148 586 137 560T113 507T89 455T78 403Q78 365 105 334T188 292Q133 282 106 252T78 182Q78 156 89 129T113 75T137 20T148 -34Z" />
<glyph unicode="~" glyph-name="asciitilde" horiz-adv-x="479" d="M338 271Q362 271 378 281T407 308T426 345T439 386L445 385Q443 354 436 324T415 270T381 231T332 216Q307 216 282 229T233 257T184 285T135 298Q113 298 97 287T70 258T52 221T40 182L34 183Q34
209 40 239T59 294T92 337T142 354Q168 354 193 341T243 313T291 284T338 271Z" />
<glyph unicode="&#xa1;" glyph-name="exclamdown" horiz-adv-x="193" d="M58 -254Q58 -254 59 -231T63 -170T70 -82T77 17T85 114T91 195H103Q106 161 109 114T116 17T124 -82T130 -169T135 -231T136 -254H58ZM142 370Q142 350 129 338T96 325Q76 325 64 337T51
370Q51 390 63 403T96 416Q116 416 129 403T142 370Z" />
<glyph unicode="&#xa2;" glyph-name="cent" horiz-adv-x="409" d="M272 492L264 414Q297 412 325 407T368 398V312H364Q350 331 325 353T261 383L226 41Q245 37 269 37Q309 37 337 46T387 69L391 63Q369 36 330 13T229 -10H221L214 -86H186L194 -7Q159 -2 129
14T76 56T40 117T27 196Q27 238 40 277T80 346T146 394T236 415L244 492H272ZM95 220Q95 151 124 109T199 49L233 386H231Q199 386 174 373T132 336T105 283T95 220Z" />
<glyph unicode="&#xa3;" glyph-name="sterling" horiz-adv-x="495" d="M6 -9Q26 20 42 39T71 78T94 119T112 176Q117 199 121 226T127 282H36V312H130Q133 352 135 391T141 465Q145 508 161 546T204 612T265 656T341 673Q383 673 412 668T450 660V573H444Q412
642 338 642Q307 642 286 629T252 594T231 542T220 479L200 312H354V282H196Q189 223 176 190Q164 158 144 130T103 82Q122 93 139 97T172 101Q196 101 220 94T269 78T318 62T365 55Q403 55 429 80T475 138L480 136Q467 75 433 35T351 -6Q326 -6 302 3T252 22T201
42T149 51Q103 51 71 31T13 -14L6 -9Z" />
<glyph unicode="&#xa5;" glyph-name="yen" horiz-adv-x="542" d="M380 656V662H534V656L480 610L318 357H477V330H316V265H477V237H316V51L381 6V0H175L173 6L239 51V237H78V265H239V330H78V357H226L62 610L7 656V662H215V656L148 610L295 375L446 611L380 656Z" />
<glyph unicode="&#xa6;" glyph-name="brokenbar" horiz-adv-x="255" d="M111 743H144V310H111V743ZM111 213H144V-235H111V213Z" />
<glyph unicode="&#xa7;" glyph-name="section" horiz-adv-x="424" d="M33 312Q33 337 42 356T64 390T95 414T128 429Q111 455 102 481T92 539Q92 569 103 593T133 635T179 663T235 673Q262 673 284 671T315 666V579H309Q300 602 280 622T224 643Q195 643 171 621T146
559Q146 536 153 516T175 472T215 420T273 353Q304 318 327 290T367 237T391 189T400 140Q400 115 392 96T370 61T341 36T310 19Q324 -5 331 -29T339 -81Q339 -114 328 -142T295 -193T246 -227T185 -240Q163 -240 144 -237T109 -229T82 -220T67 -212Q64 -196 63
-159T64 -84H70Q76 -108 86 -131T110 -171T144 -199T187 -210Q229 -210 256 -180T284 -97Q284 -72 276 -50T253 -4T214 45T161 106Q130 139 107 166T67 217T42 265T33 312ZM202 155Q234 118 258 90T300 35Q317 46 332 65T347 116Q347 140 340 160T317 203T280 250T228
310Q200 342 178 366T139 414Q119 405 102 386T85 337Q85 314 93 295T117 254T153 209T202 155Z" />
<glyph unicode="&#xa8;" glyph-name="dieresis" horiz-adv-x="400" d="M243 584Q243 601 254 612T282 623Q297 623 309 612T321 584Q321 567 309 556T282 545Q265 545 254 556T243 584ZM120 623Q135 623 147 612T159 584Q159 567 147 556T120 545Q103 545 92 556T81
584Q81 601 92 612T120 623Z" />
<glyph unicode="&#xa9;" glyph-name="copyright" horiz-adv-x="768" d="M384 674Q455 674 517 647T625 574T697 465T724 332Q724 260 698 198T626 89T518 17T384 -10Q311 -10 249 16T142 89T70 197T44 332Q44 404 70 466T141 574T249 647T384 674ZM384 641Q319
641 265 617T170 551T108 453T85 332Q85 267 108 211T173 113T268 47T384 23Q448 23 502 47T597 112T660 210T683 332Q683 395 660 451T597 550T502 616T384 641ZM398 164Q359 164 325 176T265 211T224 265T209 336Q209 371 222 402T260 458T320 496T397 511Q432
511 460 506T503 498V419H501Q486 443 461 463T397 483Q368 483 346 472T308 441T284 395T276 339Q276 307 286 280T313 234T353 205T399 194Q420 194 438 201T470 218T494 238T509 255H512V187Q500 182 469 173T398 164Z" />
<glyph unicode="&#xaa;" glyph-name="ordfeminine" horiz-adv-x="312" d="M188 584Q188 610 177 625T139 640Q120 640 108 631T94 618V581L38 597V601Q46 611 58 623T86 645T121 663T163 670Q198 670 220 649T243 602Q243 586 243 559T242 505T241 455T240 427Q248
419 261 413T289 401V397L246 370Q228 375 214 386T192 405Q177 394 157 383T119 371Q81 371 57 392T33 442Q33 461 40 474T58 492Q61 493 72 497T102 506T142 517T188 530V584ZM138 408Q154 408 166 413T187 423Q187 443 187 462T188 503L94 474Q90 472 88 465T86
451Q86 434 99 421T138 408Z" />
<glyph unicode="&#xab;" glyph-name="guillemotleft" horiz-adv-x="315" d="M282 68L150 221L282 375L289 370L215 221L289 73L282 68ZM21 221L153 375L160 370L86 221L160 73L153 68L21 221Z" />
<glyph unicode="&#xae;" glyph-name="registered" horiz-adv-x="392" d="M197 684Q232 684 263 670T318 633T356 577T370 509Q370 471 357 439T320 384T265 347T197 333Q160 333 128 346T73 383T36 439T22 509Q22 545 35 577T72 633T128 670T197 684ZM197 659Q166
659 140 647T95 615T64 567T53 509Q53 478 64 451T95 403T141 371T197 359Q227 359 253 370T298 402T329 449T341 509Q341 539 330 566T300 614T254 647T197 659ZM119 427V432L137 446V585L119 599V604H210Q232 604 247 594T263 563Q263 547 253 537T234 521L262
474Q270 460 277 451T296 433V428Q291 427 284 427T269 426Q252 426 243 434T225 460L198 509H178V446L201 432V427H119ZM178 585V528H197Q207 528 214 536T222 556Q222 571 213 578T192 585H178Z" />
<glyph unicode="&#xaf;" glyph-name="macron" horiz-adv-x="400" d="M105 577H296V537H105V577Z" />
<glyph unicode="&#xb0;" glyph-name="degree" horiz-adv-x="239" d="M120 472Q78 472 49 500T20 571Q20 592 27 610T48 641T80 663T120 671Q162 671 190 643T219 572Q219 530 191 501T120 472ZM190 572Q190 604 170 624T120 645Q90 645 70 625T50 573Q50 539 70
519T120 499Q149 499 169 518T190 572Z" />
<glyph unicode="&#xb2;" glyph-name="twosuperior" horiz-adv-x="238" d="M209 516H214V430H9V440Q44 482 68 511T108 563T130 601T137 635Q137 658 124 672T87 686Q63 686 48 676T25 658L18 661Q22 670 29 680T46 700T72 715T107 721Q147 721 169 699T192 643Q192
601 155 561T61 472H178L209 516Z" />
<glyph unicode="&#xb3;" glyph-name="threesuperior" horiz-adv-x="204" d="M36 585Q68 602 88 618T108 657Q108 671 99 679T71 688Q50 688 37 679T17 665L14 669Q17 677 23 686T39 703T63 716T96 721Q125 721 142 708T159 669Q159 648 144 634T106 610Q121 609
135 605T160 591T179 570T186 539Q186 491 140 458T9 421L6 427Q131 472 131 530Q131 556 112 567T67 579Q58 579 51 579T39 577L36 585Z" />
<glyph unicode="&#xb4;" glyph-name="acute" horiz-adv-x="400" d="M132 497L123 502L225 712L281 677L132 497Z" />
<glyph unicode="&#xb6;" glyph-name="paragraph" horiz-adv-x="459" d="M206 365Q164 365 130 376T73 408T37 455T24 515Q24 546 34 572T66 619T118 650T190 662H255V0H146V6L211 52V365H206ZM343 611V52L410 6V0H300V662H410V656L343 611Z" />
<glyph unicode="&#xb7;" glyph-name="periodcentered" horiz-adv-x="177" d="M43 251Q43 272 56 284T89 296Q109 296 121 284T134 251Q134 231 122 218T89 205Q69 205 56 218T43 251Z" />
<glyph unicode="&#xb8;" glyph-name="cedilla" horiz-adv-x="400" d="M243 0L203 -78Q215 -81 228 -87T252 -103T270 -126T277 -158Q277 -180 266 -198T236 -232T191 -260T134 -285L129 -276Q144 -267 161 -255T193 -230T217 -201T227 -170Q227 -157 220 -147T202
-131T180 -121T161 -117L159 -114Q175 -83 188 -58Q199 -37 208 -19T217 0H243Z" />
<glyph unicode="&#xb9;" glyph-name="onesuperior" horiz-adv-x="165" d="M20 430V434L58 459V666L17 685V689Q21 690 33 694T60 704T88 714T109 721V459L145 434V430H20Z" />
<glyph unicode="&#xba;" glyph-name="ordmasculine" horiz-adv-x="338" d="M31 518Q31 548 41 575T70 624T113 657T169 669Q198 669 223 658T267 626T296 580T307 523Q307 493 297 466T268 417T224 384T168 371Q138 371 113 382T70 414T42 461T31 518ZM91 521Q91
494 97 471T113 431T138 404T169 394Q185 394 199 404T223 431T240 471T247 521Q247 546 241 569T224 609T199 637T169 647Q153 647 139 637T114 609T97 569T91 521Z" />
<glyph unicode="&#xbb;" glyph-name="guillemotright" horiz-adv-x="315" d="M33 68L165 221L33 375L26 370L100 221L26 73L33 68ZM294 221L162 375L155 370L229 221L155 73L162 68L294 221Z" />
<glyph unicode="&#xbc;" glyph-name="onequarter" horiz-adv-x="508" d="M41 377V381L79 406V613L38 632V636Q42 637 54 641T81 651T109 661T130 668V406L166 381V377H41ZM453 662H489L55 0H19L453 662ZM479 3V0H362V3L396 26V76H255V85L415 287H446V108H504L483
76H446V26L479 3ZM396 108V224L305 108H396Z" />
<glyph unicode="&#xbd;" glyph-name="onehalf" horiz-adv-x="528" d="M453 662H489L55 0H19L453 662ZM41 377V381L79 406V613L38 632V636Q42 637 54 641T81 651T109 661T130 668V406L166 381V377H41ZM508 86H513V0H308V10Q343 52 367 81T407 133T429 171T436 205Q436
228 423 242T386 256Q362 256 347 246T324 228L317 231Q321 240 328 250T345 270T371 285T406 291Q446 291 468 269T491 213Q491 171 454 131T360 42H477L508 86Z" />
<glyph unicode="&#xbe;" glyph-name="threequarters" horiz-adv-x="532" d="M446 662H482L48 0H12L446 662ZM45 532Q77 549 97 565T117 604Q117 618 108 626T80 635Q59 635 46 626T26 612L23 616Q26 624 32 633T48 650T72 663T105 668Q134 668 151 655T168 616Q168
595 153 581T115 557Q130 556 144 552T169 538T188 517T195 486Q195 438 149 405T18 368L15 374Q140 419 140 477Q140 503 121 514T76 526Q67 526 60 526T48 524L45 532ZM472 3V0H355V3L389 26V76H248V85L408 287H439V108H497L476 76H439V26L472 3ZM389 108V224L298
108H389Z" />
<glyph unicode="&#xbf;" glyph-name="questiondown" horiz-adv-x="329" d="M30 -147Q30 -130 33 -116T43 -87T62 -57T92 -22Q107 -7 126 13T156 46Q174 65 180 78T186 115Q186 138 185 159T182 195H194Q208 160 220 126T232 74Q232 59 226 47T198 9Q189 -2 172
-20T141 -56Q123 -77 112 -99T101 -146Q101 -190 126 -212T187 -234Q208 -234 225 -226T255 -207T277 -182T290 -160H295V-252Q290 -254 262 -259T188 -264Q162 -264 134 -259T83 -240T45 -204T30 -147ZM232 370Q232 350 219 338T186 325Q166 325 154 337T141 370Q141
390 153 403T186 416Q206 416 219 403T232 370Z" />
<glyph unicode="&#xc0;" glyph-name="Agrave" horiz-adv-x="633" d="M164 6V0H7V6L62 52L302 677H309L570 52L626 6V0H424V6L492 52L391 293H189L96 51L164 6ZM199 321H380L286 546L199 321ZM413 704L194 783L221 838L418 713L413 704Z" />
<glyph unicode="&#xc1;" glyph-name="Aacute" horiz-adv-x="633" d="M164 6V0H7V6L62 52L302 677H309L570 52L626 6V0H424V6L492 52L391 293H189L96 51L164 6ZM199 321H380L286 546L199 321ZM202 704L197 713L394 838L421 783L202 704Z" />
<glyph unicode="&#xc2;" glyph-name="Acircumflex" horiz-adv-x="633" d="M164 6V0H7V6L62 52L302 677H309L570 52L626 6V0H424V6L492 52L391 293H189L96 51L164 6ZM199 321H380L286 546L199 321ZM306 830L440 716L436 709L306 764L173 709L168 716L306 830Z" />
<glyph unicode="&#xc3;" glyph-name="Atilde" horiz-adv-x="633" d="M164 6V0H7V6L62 52L302 677H309L570 52L626 6V0H424V6L492 52L391 293H189L96 51L164 6ZM199 321H380L286 546L199 321ZM251 800Q260 800 278 797T317 791T355 784T383 781Q391 781 400 787T419
801T435 817T448 830L453 827Q450 819 443 804T425 772T402 744T377 732Q365 732 347 735T309 741T273 748T247 751Q239 751 230 746T211 732T195 716T182 701L176 704Q180 713 187 729T205 760T227 788T251 800Z" />
<glyph unicode="&#xc4;" glyph-name="Adieresis" horiz-adv-x="633" d="M164 6V0H7V6L62 52L302 677H309L570 52L626 6V0H424V6L492 52L391 293H189L96 51L164 6ZM199 321H380L286 546L199 321ZM355 767Q355 784 366 795T395 807Q411 807 423 796T435 767Q435
750 423 739T395 727Q378 727 367 738T355 767ZM179 767Q179 784 190 795T219 807Q235 807 247 796T259 767Q259 750 247 739T219 727Q202 727 191 738T179 767Z" />
<glyph unicode="&#xc5;" glyph-name="Aring" horiz-adv-x="633" d="M164 6V0H7V6L62 52L302 677H309L570 52L626 6V0H424V6L492 52L391 293H189L96 51L164 6ZM199 321H380L286 546L199 321ZM257 776Q257 756 270 741T305 725Q326 725 339 740T353 776Q353 796
340 811T305 827Q283 827 270 812T257 776ZM229 776Q229 808 251 829T305 851Q337 851 359 830T381 776Q381 743 359 722T305 701Q273 701 251 721T229 776Z" />
<glyph unicode="&#xc6;" glyph-name="AE" horiz-adv-x="856" d="M307 656V662H775V550H769L706 634H494V368H711L753 436H758V273H753L711 340H494V29H726L795 132H801V0H352V6L417 52V322H244L86 51L154 6V0H-6V6L49 52L374 610L307 656ZM260 350H417V619L260 350Z" />
<glyph unicode="&#xc7;" glyph-name="Ccedilla" horiz-adv-x="670" d="M396 -11H389L355 -78Q367 -81 380 -87T404 -103T422 -126T429 -158Q429 -180 418 -198T388 -232T343 -260T286 -285L281 -276Q296 -267 313 -255T345 -230T369 -201T379 -170Q379 -157 372
-147T354 -131T332 -121T313 -117L311 -114Q327 -83 340 -58Q351 -37 360 -19L364 -10Q305 -6 254 14Q189 39 142 83T69 190T42 327Q42 393 65 455T134 566T245 644T395 673Q462 673 516 662T600 643V545H596Q566 588 519 616T395 644Q330 644 280 619T197 551T146
452T128 334Q128 266 149 208T206 108T292 42T399 18Q443 18 477 29T537 57T581 92T610 124H615V36Q603 30 583 22T534 7T471 -6T396 -11Z" />
<glyph unicode="&#xc8;" glyph-name="Egrave" horiz-adv-x="558" d="M396 704L177 783L204 838L401 713L396 704ZM49 0V6L114 52V610L49 656V662H479V551H473L410 634H191V368H416L458 436H463V272H458L416 339H191V29H430L498 131H504V0H49Z" />
<glyph unicode="&#xc9;" glyph-name="Eacute" horiz-adv-x="558" d="M189 704L184 713L381 838L408 783L189 704ZM49 0V6L114 52V610L49 656V662H479V551H473L410 634H191V368H416L458 436H463V272H458L416 339H191V29H430L498 131H504V0H49Z" />
<glyph unicode="&#xca;" glyph-name="Ecircumflex" horiz-adv-x="558" d="M285 830L419 716L415 709L285 764L152 709L147 716L285 830ZM49 0V6L114 52V610L49 656V662H479V551H473L410 634H191V368H416L458 436H463V272H458L416 339H191V29H430L498 131H504V0H49Z" />
<glyph unicode="&#xcb;" glyph-name="Edieresis" horiz-adv-x="558" d="M49 0V6L114 52V610L49 656V662H479V551H473L410 634H191V368H416L458 436H463V272H458L416 339H191V29H430L498 131H504V0H49ZM337 767Q337 784 348 795T377 807Q393 807 405 796T417 767Q417
750 405 739T377 727Q360 727 349 738T337 767ZM161 767Q161 784 172 795T201 807Q217 807 229 796T241 767Q241 750 229 739T201 727Q184 727 173 738T161 767Z" />
<glyph unicode="&#xcc;" glyph-name="Igrave" horiz-adv-x="305" d="M49 0V6L114 52V610L49 656V662H256V656L191 610V52L256 6V0H49ZM516 704L297 783L324 838L521 713L516 704Z" />
<glyph unicode="&#xcd;" glyph-name="Iacute" horiz-adv-x="305" d="M49 0V6L114 52V610L49 656V662H256V656L191 610V52L256 6V0H49ZM303 704L298 713L495 838L522 783L303 704Z" />
<glyph unicode="&#xce;" glyph-name="Icircumflex" horiz-adv-x="305" d="M49 0V6L114 52V610L49 656V662H256V656L191 610V52L256 6V0H49ZM408 830L542 716L538 709L408 764L275 709L270 716L408 830Z" />
<glyph unicode="&#xcf;" glyph-name="Idieresis" horiz-adv-x="305" d="M49 0V6L114 52V610L49 656V662H256V656L191 610V52L256 6V0H49ZM456 767Q456 784 467 795T496 807Q512 807 524 796T536 767Q536 750 524 739T496 727Q479 727 468 738T456 767ZM280 767Q280
784 291 795T320 807Q336 807 348 796T360 767Q360 750 348 739T320 727Q303 727 292 738T280 767Z" />
<glyph unicode="&#xd0;" glyph-name="Eth" horiz-adv-x="716" d="M25 352H113V610L47 656V662H304Q381 662 448 641T566 578T646 475T676 334Q676 260 651 199T581 94T471 25T328 0H47V6L113 52V322H25V352ZM190 322V52L191 53Q209 43 244 36T330 28Q388 28 435
48T517 108T570 205T589 335Q589 403 568 458T508 553T419 613T309 635H190V352H408V322H190Z" />
<glyph unicode="&#xd1;" glyph-name="Ntilde" horiz-adv-x="763" d="M346 800Q355 800 373 797T412 791T450 784T478 781Q486 781 495 787T514 801T530 817T543 830L548 827Q545 819 538 804T520 772T497 744T472 732Q460 732 442 735T404 741T368 748T342 751Q334
751 325 746T306 732T290 716T277 701L271 704Q275 713 282 729T300 760T322 788T346 800ZM40 0V6L114 57V582Q86 613 70 628T37 656V662H145L619 119V605L547 656V662H728V656L654 605V0H629L149 542V57L220 6V0H40Z" />
<glyph unicode="&#xd2;" glyph-name="Ograve" horiz-adv-x="739" d="M477 704L258 783L285 838L482 713L477 704ZM44 323Q44 397 69 461T138 572T241 646T370 673Q437 673 496 648T600 579T670 472T696 336Q696 262 671 199T601 89T497 16T369 -11Q302 -11 243
14T140 83T70 188T44 323ZM131 330Q131 258 149 200T200 102T275 40T369 18Q418 18 462 40T539 102T591 200T610 330Q610 402 591 460T540 559T464 622T370 644Q320 644 276 622T200 559T150 460T131 330Z" />
<glyph unicode="&#xd3;" glyph-name="Oacute" horiz-adv-x="739" d="M265 704L260 713L457 838L484 783L265 704ZM44 323Q44 397 69 461T138 572T241 646T370 673Q437 673 496 648T600 579T670 472T696 336Q696 262 671 199T601 89T497 16T369 -11Q302 -11 243
14T140 83T70 188T44 323ZM131 330Q131 258 149 200T200 102T275 40T369 18Q418 18 462 40T539 102T591 200T610 330Q610 402 591 460T540 559T464 622T370 644Q320 644 276 622T200 559T150 460T131 330Z" />
<glyph unicode="&#xd4;" glyph-name="Ocircumflex" horiz-adv-x="739" d="M370 830L504 716L500 709L370 764L237 709L232 716L370 830ZM44 323Q44 397 69 461T138 572T241 646T370 673Q437 673 496 648T600 579T670 472T696 336Q696 262 671 199T601 89T497 16T369
-11Q302 -11 243 14T140 83T70 188T44 323ZM131 330Q131 258 149 200T200 102T275 40T369 18Q418 18 462 40T539 102T591 200T610 330Q610 402 591 460T540 559T464 622T370 644Q320 644 276 622T200 559T150 460T131 330Z" />
<glyph unicode="&#xd5;" glyph-name="Otilde" horiz-adv-x="739" d="M307 800Q316 800 334 797T373 791T411 784T439 781Q447 781 456 787T475 801T491 817T504 830L509 827Q506 819 499 804T481 772T458 744T433 732Q421 732 403 735T365 741T329 748T303 751Q295
751 286 746T267 732T251 716T238 701L232 704Q236 713 243 729T261 760T283 788T307 800ZM44 323Q44 397 69 461T138 572T241 646T370 673Q437 673 496 648T600 579T670 472T696 336Q696 262 671 199T601 89T497 16T369 -11Q302 -11 243 14T140 83T70 188T44 323ZM131
330Q131 258 149 200T200 102T275 40T369 18Q418 18 462 40T539 102T591 200T610 330Q610 402 591 460T540 559T464 622T370 644Q320 644 276 622T200 559T150 460T131 330Z" />
<glyph unicode="&#xd6;" glyph-name="Odieresis" horiz-adv-x="739" d="M418 767Q418 784 429 795T458 807Q474 807 486 796T498 767Q498 750 486 739T458 727Q441 727 430 738T418 767ZM242 767Q242 784 253 795T282 807Q298 807 310 796T322 767Q322 750 310
739T282 727Q265 727 254 738T242 767ZM44 323Q44 397 69 461T138 572T241 646T370 673Q437 673 496 648T600 579T670 472T696 336Q696 262 671 199T601 89T497 16T369 -11Q302 -11 243 14T140 83T70 188T44 323ZM131 330Q131 258 149 200T200 102T275 40T369 18Q418
18 462 40T539 102T591 200T610 330Q610 402 591 460T540 559T464 622T370 644Q320 644 276 622T200 559T150 460T131 330Z" />
<glyph unicode="&#xd7;" glyph-name="multiply" horiz-adv-x="418" d="M54 107L188 244L54 382L76 403L209 266L343 403L364 383L230 245L364 107L343 86L209 223L76 86L54 107Z" />
<glyph unicode="&#xd8;" glyph-name="Oslash" horiz-adv-x="739" d="M44 323Q44 397 69 461T138 572T241 646T370 673Q417 673 459 661T539 626L590 705L614 691L563 610Q623 565 659 495T696 336Q696 262 671 199T601 89T497 16T369 -11Q273 -11 196 38L135 -58L111
-42L172 54Q113 99 79 167T44 323ZM610 330Q610 405 590 464T534 565L222 78Q284 18 369 18Q418 18 462 40T539 102T591 200T610 330ZM131 330Q131 257 149 199T201 100L514 586Q484 614 448 629T370 644Q320 644 276 622T200 559T150 460T131 330Z" />
<glyph unicode="&#xd9;" glyph-name="Ugrave" horiz-adv-x="714" d="M487 704L268 783L295 838L492 713L487 704ZM618 233Q618 177 599 132T547 55T469 6T371 -11Q314 -11 264 2T177 45T119 121T97 234V610L31 656V662H239V656L174 610V234Q174 181 190 143T233
81T299 45T383 33Q430 33 467 48T529 89T568 153T582 235V610L518 656V662H683V656L618 610V233Z" />
<glyph unicode="&#xda;" glyph-name="Uacute" horiz-adv-x="714" d="M282 704L277 713L474 838L501 783L282 704ZM618 233Q618 177 599 132T547 55T469 6T371 -11Q314 -11 264 2T177 45T119 121T97 234V610L31 656V662H239V656L174 610V234Q174 181 190 143T233
81T299 45T383 33Q430 33 467 48T529 89T568 153T582 235V610L518 656V662H683V656L618 610V233Z" />
<glyph unicode="&#xdb;" glyph-name="Ucircumflex" horiz-adv-x="714" d="M386 830L520 716L516 709L386 764L253 709L248 716L386 830ZM618 233Q618 177 599 132T547 55T469 6T371 -11Q314 -11 264 2T177 45T119 121T97 234V610L31 656V662H239V656L174 610V234Q174
181 190 143T233 81T299 45T383 33Q430 33 467 48T529 89T568 153T582 235V610L518 656V662H683V656L618 610V233Z" />
<glyph unicode="&#xdc;" glyph-name="Udieresis" horiz-adv-x="714" d="M618 233Q618 177 599 132T547 55T469 6T371 -11Q314 -11 264 2T177 45T119 121T97 234V610L31 656V662H239V656L174 610V234Q174 181 190 143T233 81T299 45T383 33Q430 33 467 48T529 89T568
153T582 235V610L518 656V662H683V656L618 610V233ZM433 767Q433 784 444 795T473 807Q489 807 501 796T513 767Q513 750 501 739T473 727Q456 727 445 738T433 767ZM257 767Q257 784 268 795T297 807Q313 807 325 796T337 767Q337 750 325 739T297 727Q280 727
269 738T257 767Z" />
<glyph unicode="&#xdd;" glyph-name="Yacute" horiz-adv-x="587" d="M424 656V662H580V656L525 610L339 328V51L404 6V0H196V6L262 51V312L61 610L7 656V662H218V656L151 610L320 353L491 611L424 656ZM230 704L225 713L422 838L449 783L230 704Z" />
<glyph unicode="&#xde;" glyph-name="Thorn" horiz-adv-x="543" d="M192 501H281Q326 501 367 494T439 470T490 426T509 359Q509 315 487 282T428 227T342 195T239 185V194Q269 198 302 208T363 237T410 282T429 346Q429 413 381 443T243 474H192V52L256 6V0H49V6L114
52V610L49 656V662H257V656L192 610V501Z" />
<glyph unicode="&#xdf;" glyph-name="germandbls" horiz-adv-x="501" d="M286 716Q351 716 385 682T420 596Q420 559 400 530T355 477T310 430T289 383Q289 369 294 357T310 334T334 310T367 283Q395 261 416 243T450 207T471 170T478 126Q478 98 468 73T440 30T397
1T340 -10Q304 -10 275 -1T231 17Q228 34 226 67T225 131H232Q238 113 247 94T269 58T300 31T342 20Q377 20 398 45T419 106Q419 124 413 138T395 166T367 192T329 223Q289 254 265 282T241 351Q241 383 259 408T298 460T338 517T356 592Q356 640 331 662T269 685Q245
685 223 675T185 641T159 580T149 491V48L206 6V0H19V6L80 48V362H21V369L80 404V451Q80 509 96 557T139 641T204 696T286 716Z" />
<glyph unicode="&#xe0;" glyph-name="agrave" horiz-adv-x="395" d="M252 296Q252 332 235 356T179 380Q150 380 134 367T112 346V290L41 310V315Q54 330 70 348T108 382T155 408T214 419Q264 419 291 392T319 325Q319 301 319 261T317 181T316 109T315 66Q332
54 350 45T390 31V25L333 -14Q281 6 254 38Q245 31 233 23T206 7T178 -6T150 -11Q97 -11 66 17T35 87Q35 116 48 132T72 153Q76 154 91 159T130 173T185 191T252 213V296ZM251 60Q251 90 251 119T252 181Q236 176 213 168T167 151T127 137T108 130Q104 128 102
120T99 100Q99 75 117 55T173 35Q201 35 221 43T251 60ZM487 497L338 677L394 711L496 502L487 497Z" />
<glyph unicode="&#xe1;" glyph-name="aacute" horiz-adv-x="395" d="M252 296Q252 332 235 356T179 380Q150 380 134 367T112 346V290L41 310V315Q54 330 70 348T108 382T155 408T214 419Q264 419 291 392T319 325Q319 301 319 261T317 181T316 109T315 66Q332
54 350 45T390 31V25L333 -14Q281 6 254 38Q245 31 233 23T206 7T178 -6T150 -11Q97 -11 66 17T35 87Q35 116 48 132T72 153Q76 154 91 159T130 173T185 191T252 213V296ZM251 60Q251 90 251 119T252 181Q236 176 213 168T167 151T127 137T108 130Q104 128 102
120T99 100Q99 75 117 55T173 35Q201 35 221 43T251 60ZM145 497L136 502L238 712L294 677L145 497Z" />
<glyph unicode="&#xe2;" glyph-name="acircumflex" horiz-adv-x="395" d="M252 296Q252 332 235 356T179 380Q150 380 134 367T112 346V290L41 310V315Q54 330 70 348T108 382T155 408T214 419Q264 419 291 392T319 325Q319 301 319 261T317 181T316 109T315 66Q332
54 350 45T390 31V25L333 -14Q281 6 254 38Q245 31 233 23T206 7T178 -6T150 -11Q97 -11 66 17T35 87Q35 116 48 132T72 153Q76 154 91 159T130 173T185 191T252 213V296ZM251 60Q251 90 251 119T252 181Q236 176 213 168T167 151T127 137T108 130Q104 128 102
120T99 100Q99 75 117 55T173 35Q201 35 221 43T251 60ZM445 705L547 491L539 486L445 599L351 486L343 491L445 705Z" />
<glyph unicode="&#xe3;" glyph-name="atilde" horiz-adv-x="395" d="M252 296Q252 332 235 356T179 380Q150 380 134 367T112 346V290L41 310V315Q54 330 70 348T108 382T155 408T214 419Q264 419 291 392T319 325Q319 301 319 261T317 181T316 109T315 66Q332
54 350 45T390 31V25L333 -14Q281 6 254 38Q245 31 233 23T206 7T178 -6T150 -11Q97 -11 66 17T35 87Q35 116 48 132T72 153Q76 154 91 159T130 173T185 191T252 213V296ZM251 60Q251 90 251 119T252 181Q236 176 213 168T167 151T127 137T108 130Q104 128 102
120T99 100Q99 75 117 55T173 35Q201 35 221 43T251 60ZM395 608Q404 608 420 604T454 595T487 586T511 582Q517 582 524 587T539 600T554 616T568 633L575 630Q571 618 564 602T547 570T528 544T508 533Q497 533 481 537T448 546T416 555T393 559Q381 559 365
542T336 509L329 512Q333 524 340 540T356 572T375 597T395 608Z" />
<glyph unicode="&#xe4;" glyph-name="adieresis" horiz-adv-x="395" d="M252 296Q252 332 235 356T179 380Q150 380 134 367T112 346V290L41 310V315Q54 330 70 348T108 382T155 408T214 419Q264 419 291 392T319 325Q319 301 319 261T317 181T316 109T315 66Q332
54 350 45T390 31V25L333 -14Q281 6 254 38Q245 31 233 23T206 7T178 -6T150 -11Q97 -11 66 17T35 87Q35 116 48 132T72 153Q76 154 91 159T130 173T185 191T252 213V296ZM251 60Q251 90 251 119T252 181Q236 176 213 168T167 151T127 137T108 130Q104 128 102
120T99 100Q99 75 117 55T173 35Q201 35 221 43T251 60ZM489 584Q489 601 500 612T528 623Q543 623 555 612T567 584Q567 567 555 556T528 545Q511 545 500 556T489 584ZM366 623Q381 623 393 612T405 584Q405 567 393 556T366 545Q349 545 338 556T327 584Q327
601 338 612T366 623Z" />
<glyph unicode="&#xe5;" glyph-name="aring" horiz-adv-x="395" d="M252 551Q252 587 235 611T179 635Q150 635 134 622T112 601V545L41 565V570Q54 585 70 603T108 637T155 663T214 674Q264 674 291 647T319 580Q319 556 319 516T317 436T316 364T315 321Q332
309 350 300T390 286V280L333 241Q281 261 254 293Q245 286 233 278T206 262T178 249T150 244Q97 244 66 272T35 342Q35 371 48 387T72 408Q76 409 91 414T130 428T185 446T252 468V551ZM251 315Q251 345 251 374T252 436Q236 431 213 423T167 406T127 392T108
385Q104 383 102 375T99 355Q99 330 117 310T173 290Q201 290 221 298T251 315ZM396 574Q396 554 409 539T444 523Q465 523 478 538T492 574Q492 594 479 609T444 625Q422 625 409 610T396 574ZM368 574Q368 606 390 627T444 649Q476 649 498 628T520 574Q520 541
498 520T444 499Q412 499 390 519T368 574Z" />
<glyph unicode="&#xe6;" glyph-name="ae" horiz-adv-x="589" d="M64 156Q68 158 84 163T124 177T180 196T245 219Q245 245 245 264T246 298Q246 336 230 358T175 380Q148 380 131 367T109 346V290L39 310V315Q52 330 68 348T106 382T152 408T209 419Q246 419 271
402T307 359Q333 385 363 400T426 416Q474 416 512 389T572 308V306L314 212Q315 171 327 140T360 86T408 52T465 40Q499 40 524 46T569 62L573 55Q564 46 549 35T514 14T472 -3T425 -10Q381 -10 345 8T284 61Q276 52 264 40T235 16T199 -3T159 -11Q99 -11 66 16T33
87Q33 117 43 134T64 156ZM175 35Q207 35 231 49T273 79Q246 126 245 190Q229 183 207 174T163 157T126 143T107 135Q103 133 100 124T97 101Q97 75 115 55T175 35ZM421 387Q407 387 390 378T357 351T330 306T315 241L493 311Q491 324 486 337T471 362T450 380T421
387Z" />
<glyph unicode="&#xe7;" glyph-name="ccedilla" horiz-adv-x="403" d="M243 415Q280 415 314 409T363 399V312H358Q350 323 339 336T311 360T274 378T228 386Q197 386 173 372T131 335T104 282T95 220Q95 175 108 141T145 85T199 51T266 39Q305 39 333 48T382
71L385 64Q375 51 361 38T327 14T282 -3Q259 -9 231 -10L196 -78Q208 -81 221 -87T245 -103T263 -126T270 -158Q270 -180 259 -198T229 -232T184 -260T127 -285L122 -276Q137 -267 154 -255T186 -230T210 -201T220 -170Q220 -157 213 -147T195 -131T173 -121T154
-117L152 -114Q168 -83 181 -58Q192 -37 201 -19Q204 -12 206 -9Q176 -6 149 4Q113 18 86 44T43 108T27 196Q27 239 41 278T82 348T150 397T243 415Z" />
<glyph unicode="&#xe8;" glyph-name="egrave" horiz-adv-x="380" d="M96 218Q96 175 108 142T142 86T191 52T253 40Q287 40 314 46T361 62L365 55Q356 46 341 35T305 14T261 -3T214 -10Q174 -10 140 4T80 44T41 109T27 198Q27 241 41 280T80 350T138 398T211 416Q246
416 270 404T312 373T339 331T356 286V285H103Q100 270 98 254T96 218ZM207 387Q178 387 153 369T112 312H279Q277 334 269 348T251 371T229 383T207 387ZM497 497L348 677L404 711L506 502L497 497Z" />
<glyph unicode="&#xe9;" glyph-name="eacute" horiz-adv-x="380" d="M162 497L153 502L255 712L311 677L162 497ZM96 218Q96 175 108 142T142 86T191 52T253 40Q287 40 314 46T361 62L365 55Q356 46 341 35T305 14T261 -3T214 -10Q174 -10 140 4T80 44T41 109T27
198Q27 241 41 280T80 350T138 398T211 416Q246 416 270 404T312 373T339 331T356 286V285H103Q100 270 98 254T96 218ZM207 387Q178 387 153 369T112 312H279Q277 334 269 348T251 371T229 383T207 387Z" />
<glyph unicode="&#xea;" glyph-name="ecircumflex" horiz-adv-x="380" d="M455 705L557 491L549 486L455 599L361 486L353 491L455 705ZM96 218Q96 175 108 142T142 86T191 52T253 40Q287 40 314 46T361 62L365 55Q356 46 341 35T305 14T261 -3T214 -10Q174 -10
140 4T80 44T41 109T27 198Q27 241 41 280T80 350T138 398T211 416Q246 416 270 404T312 373T339 331T356 286V285H103Q100 270 98 254T96 218ZM207 387Q178 387 153 369T112 312H279Q277 334 269 348T251 371T229 383T207 387Z" />
<glyph unicode="&#xeb;" glyph-name="edieresis" horiz-adv-x="380" d="M243 584Q243 601 254 612T282 623Q297 623 309 612T321 584Q321 567 309 556T282 545Q265 545 254 556T243 584ZM120 623Q135 623 147 612T159 584Q159 567 147 556T120 545Q103 545 92
556T81 584Q81 601 92 612T120 623ZM96 218Q96 175 108 142T142 86T191 52T253 40Q287 40 314 46T361 62L365 55Q356 46 341 35T305 14T261 -3T214 -10Q174 -10 140 4T80 44T41 109T27 198Q27 241 41 280T80 350T138 398T211 416Q246 416 270 404T312 373T339 331T356
286V285H103Q100 270 98 254T96 218ZM207 387Q178 387 153 369T112 312H279Q277 334 269 348T251 371T229 383T207 387Z" />
<glyph unicode="&#xec;" glyph-name="igrave" horiz-adv-x="233" d="M22 0V6L82 48V344L26 371V377Q25 377 34 381T61 391T101 405T150 420V48L211 6V0H22ZM403 497L254 677L310 711L412 502L403 497Z" />
<glyph unicode="&#xed;" glyph-name="iacute" horiz-adv-x="233" d="M333 497L324 502L426 712L482 677L333 497ZM22 0V6L82 48V344L26 371V377Q25 377 34 381T61 391T101 405T150 420V48L211 6V0H22Z" />
<glyph unicode="&#xee;" glyph-name="icircumflex" horiz-adv-x="233" d="M365 705L467 491L459 486L365 599L271 486L263 491L365 705ZM22 0V6L82 48V344L26 371V377Q25 377 34 381T61 391T101 405T150 420V48L211 6V0H22Z" />
<glyph unicode="&#xef;" glyph-name="idieresis" horiz-adv-x="233" d="M22 0V6L82 48V344L26 371V377Q25 377 34 381T61 391T101 405T150 420V48L211 6V0H22ZM187 620Q203 620 213 609T224 582Q224 566 214 556T187 546Q171 546 161 556T151 582Q151 598 161
609T187 620ZM39 621Q54 621 65 610T77 582Q77 566 66 556T39 545Q22 545 12 555T1 582Q1 598 11 609T39 621Z" />
<glyph unicode="&#xf0;" glyph-name="eth" horiz-adv-x="456" d="M34 719Q79 708 133 684T239 620L340 681L353 659L260 603Q294 574 323 539T375 461T410 367T423 258Q423 198 407 149T365 65T303 10T228 -10Q191 -10 155 4T91 45T44 113T26 207Q26 250 39 287T78
352T138 396T219 412Q264 412 291 399T334 371Q317 433 286 484T216 577L73 491L60 513L198 596Q157 637 114 665T32 711L34 719ZM352 242Q352 263 350 283T345 324Q327 348 298 365T228 382Q197 382 174 369T134 333T110 280T101 215Q101 169 112 133T142 72T182
33T228 19Q253 19 275 36T315 84T342 154T352 242Z" />
<glyph unicode="&#xf1;" glyph-name="ntilde" horiz-adv-x="500" d="M22 0V6L82 48V344L26 370V377Q25 377 34 381T61 391T101 405T150 420V349Q160 358 175 370T209 392T251 409T299 416Q323 416 345 408T384 387T411 354T422 313V48L483 6V0H295V6L353 48V287Q353
321 330 346T259 371Q224 371 197 355T150 320V48L211 6V0H22ZM199 608Q208 608 224 604T258 595T291 586T315 582Q321 582 328 587T343 600T358 616T372 633L379 630Q375 618 368 602T351 570T332 544T312 533Q301 533 285 537T252 546T220 555T197 559Q185 559
169 542T140 509L133 512Q137 524 144 540T160 572T179 597T199 608Z" />
<glyph unicode="&#xf2;" glyph-name="ograve" horiz-adv-x="452" d="M27 198Q27 243 42 283T84 352T147 399T225 416Q267 416 303 400T367 357T409 291T425 207Q425 161 410 122T368 53T305 7T226 -10Q184 -10 148 5T85 49T43 115T27 198ZM101 203Q101 162 111
129T138 71T177 33T226 19Q251 19 274 32T313 70T340 128T350 203Q350 242 340 276T313 334T274 373T225 388Q200 388 178 374T138 335T111 276T101 203ZM512 497L363 677L419 711L521 502L512 497Z" />
<glyph unicode="&#xf3;" glyph-name="oacute" horiz-adv-x="452" d="M181 497L172 502L274 712L330 677L181 497ZM27 198Q27 243 42 283T84 352T147 399T225 416Q267 416 303 400T367 357T409 291T425 207Q425 161 410 122T368 53T305 7T226 -10Q184 -10 148 5T85
49T43 115T27 198ZM101 203Q101 162 111 129T138 71T177 33T226 19Q251 19 274 32T313 70T340 128T350 203Q350 242 340 276T313 334T274 373T225 388Q200 388 178 374T138 335T111 276T101 203Z" />
<glyph unicode="&#xf4;" glyph-name="ocircumflex" horiz-adv-x="452" d="M224 705L326 491L318 486L224 599L130 486L122 491L224 705ZM27 198Q27 243 42 283T84 352T147 399T225 416Q267 416 303 400T367 357T409 291T425 207Q425 161 410 122T368 53T305 7T226
-10Q184 -10 148 5T85 49T43 115T27 198ZM101 203Q101 162 111 129T138 71T177 33T226 19Q251 19 274 32T313 70T340 128T350 203Q350 242 340 276T313 334T274 373T225 388Q200 388 178 374T138 335T111 276T101 203Z" />
<glyph unicode="&#xf5;" glyph-name="otilde" horiz-adv-x="452" d="M27 198Q27 243 42 283T84 352T147 399T225 416Q267 416 303 400T367 357T409 291T425 207Q425 161 410 122T368 53T305 7T226 -10Q184 -10 148 5T85 49T43 115T27 198ZM101 203Q101 162 111
129T138 71T177 33T226 19Q251 19 274 32T313 70T340 128T350 203Q350 242 340 276T313 334T274 373T225 388Q200 388 178 374T138 335T111 276T101 203ZM168 608Q177 608 193 604T227 595T260 586T284 582Q290 582 297 587T312 600T327 616T341 633L348 630Q344
618 337 602T320 570T301 544T281 533Q270 533 254 537T221 546T189 555T166 559Q154 559 138 542T109 509L102 512Q106 524 113 540T129 572T148 597T168 608Z" />
<glyph unicode="&#xf6;" glyph-name="odieresis" horiz-adv-x="452" d="M267 584Q267 601 278 612T306 623Q321 623 333 612T345 584Q345 567 333 556T306 545Q289 545 278 556T267 584ZM144 623Q159 623 171 612T183 584Q183 567 171 556T144 545Q127 545 116
556T105 584Q105 601 116 612T144 623ZM27 198Q27 243 42 283T84 352T147 399T225 416Q267 416 303 400T367 357T409 291T425 207Q425 161 410 122T368 53T305 7T226 -10Q184 -10 148 5T85 49T43 115T27 198ZM101 203Q101 162 111 129T138 71T177 33T226 19Q251
19 274 32T313 70T340 128T350 203Q350 242 340 276T313 334T274 373T225 388Q200 388 178 374T138 335T111 276T101 203Z" />
<glyph unicode="&#xf7;" glyph-name="divide" horiz-adv-x="467" d="M190 86Q190 106 203 118T234 131Q251 131 264 119T277 86Q277 68 264 56T234 43Q216 43 203 55T190 86ZM190 397Q190 417 203 430T234 443Q251 443 264 430T277 397Q277 379 264 367T234 355Q216
355 203 367T190 397ZM49 261H419V231H49V261Z" />
<glyph unicode="&#xf8;" glyph-name="oslash" horiz-adv-x="452" d="M26 198Q26 243 41 283T84 352T147 398T226 415Q280 415 327 387L374 460L398 446L350 370Q384 342 404 301T425 207Q425 161 410 122T368 53T305 7T226 -10Q172 -10 125 18L75 -60L49 -45L101
35Q67 63 47 104T26 198ZM351 203Q351 239 343 270T321 326L148 55Q181 19 226 19Q251 19 274 32T314 70T341 129T351 203ZM103 203Q103 166 110 136T130 81L303 351Q287 368 268 378T226 388Q200 388 178 374T139 335T113 276T103 203Z" />
<glyph unicode="&#xf9;" glyph-name="ugrave" horiz-adv-x="486" d="M17 370V377Q16 377 25 380T52 390T93 404T142 419V119Q142 87 163 62T230 36Q262 36 289 52T337 86V342L273 371V378Q272 378 283 381T313 391T356 404T406 419V59L473 34V27L403 9Q377 2 356
-3T337 -8V59Q327 49 313 38T281 16T242 -1T196 -8Q173 -8 151 -1T112 22T85 58T74 108V343L17 370ZM270 497L121 677L177 711L279 502L270 497Z" />
<glyph unicode="&#xfa;" glyph-name="uacute" horiz-adv-x="486" d="M205 497L196 502L298 712L354 677L205 497ZM17 370V377Q16 377 25 380T52 390T93 404T142 419V119Q142 87 163 62T230 36Q262 36 289 52T337 86V342L273 371V378Q272 378 283 381T313 391T356
404T406 419V59L473 34V27L403 9Q377 2 356 -3T337 -8V59Q327 49 313 38T281 16T242 -1T196 -8Q173 -8 151 -1T112 22T85 58T74 108V343L17 370Z" />
<glyph unicode="&#xfb;" glyph-name="ucircumflex" horiz-adv-x="486" d="M232 705L334 491L326 486L232 599L138 486L130 491L232 705ZM17 370V377Q16 377 25 380T52 390T93 404T142 419V119Q142 87 163 62T230 36Q262 36 289 52T337 86V342L273 371V378Q272
378 283 381T313 391T356 404T406 419V59L473 34V27L403 9Q377 2 356 -3T337 -8V59Q327 49 313 38T281 16T242 -1T196 -8Q173 -8 151 -1T112 22T85 58T74 108V343L17 370Z" />
<glyph unicode="&#xfc;" glyph-name="udieresis" horiz-adv-x="486" d="M276 584Q276 601 287 612T315 623Q330 623 342 612T354 584Q354 567 342 556T315 545Q298 545 287 556T276 584ZM153 623Q168 623 180 612T192 584Q192 567 180 556T153 545Q136 545 125
556T114 584Q114 601 125 612T153 623ZM17 370V377Q16 377 25 380T52 390T93 404T142 419V119Q142 87 163 62T230 36Q262 36 289 52T337 86V342L273 371V378Q272 378 283 381T313 391T356 404T406 419V59L473 34V27L403 9Q377 2 356 -3T337 -8V59Q327 49 313 38T281
16T242 -1T196 -8Q173 -8 151 -1T112 22T85 58T74 108V343L17 370Z" />
<glyph unicode="&#xfd;" glyph-name="yacute" horiz-adv-x="419" d="M185 -112Q162 -175 152 -215T139 -276H48V-271Q71 -249 102 -205T162 -89L200 9L51 359L1 400V406H185V400L127 359L233 96L331 359L269 400V406H418V400L367 359L185 -112ZM191 497L182 502L284
712L340 677L191 497Z" />
<glyph unicode="&#xfe;" glyph-name="thorn" horiz-adv-x="458" d="M6 674V682Q5 681 15 685T43 695T84 710T132 725V350Q141 362 154 373T184 394T220 410T262 416Q305 416 336 400T389 358T420 296T430 221Q430 184 418 144T378 69T309 12T209 -11Q189 -11 172
-10T132 -7V-229L225 -269V-275H3V-269L64 -229V645L6 674ZM234 366Q192 366 169 353T132 326V38Q150 27 169 23T210 19Q244 19 271 33T318 72T347 130T358 202Q358 286 322 326T234 366Z" />
<glyph unicode="&#xff;" glyph-name="ydieresis" horiz-adv-x="419" d="M185 -112Q162 -175 152 -215T139 -276H48V-271Q71 -249 102 -205T162 -89L200 9L51 359L1 400V406H185V400L127 359L233 96L331 359L269 400V406H418V400L367 359L185 -112ZM265 584Q265
601 276 612T304 623Q319 623 331 612T343 584Q343 567 331 556T304 545Q287 545 276 556T265 584ZM142 623Q157 623 169 612T181 584Q181 567 169 556T142 545Q125 545 114 556T103 584Q103 601 114 612T142 623Z" />
<glyph unicode="&#x100;" glyph-name="Amacron" horiz-adv-x="633" d="M164 6V0H7V6L62 52L302 677H309L570 52L626 6V0H424V6L492 52L391 293H189L96 51L164 6ZM199 321H380L286 546L199 321ZM199 770H416V729H199V770Z" />
<glyph unicode="&#x101;" glyph-name="amacron" horiz-adv-x="395" d="M252 296Q252 332 235 356T179 380Q150 380 134 367T112 346V290L41 310V315Q54 330 70 348T108 382T155 408T214 419Q264 419 291 392T319 325Q319 301 319 261T317 181T316 109T315 66Q332
54 350 45T390 31V25L333 -14Q281 6 254 38Q245 31 233 23T206 7T178 -6T150 -11Q97 -11 66 17T35 87Q35 116 48 132T72 153Q76 154 91 159T130 173T185 191T252 213V296ZM251 60Q251 90 251 119T252 181Q236 176 213 168T167 151T127 137T108 130Q104 128 102
120T99 100Q99 75 117 55T173 35Q201 35 221 43T251 60ZM344 577H535V537H344V577Z" />
<glyph unicode="&#x102;" glyph-name="Abreve" horiz-adv-x="633" d="M164 6V0H7V6L62 52L302 677H309L570 52L626 6V0H424V6L492 52L391 293H189L96 51L164 6ZM199 321H380L286 546L199 321ZM307 715Q282 715 263 725T230 751T208 789T198 833L205 834Q219 805
244 787T307 768Q342 768 368 787T409 834L416 833Q414 811 406 790T385 753T352 726T307 715Z" />
<glyph unicode="&#x103;" glyph-name="abreve" horiz-adv-x="395" d="M252 296Q252 332 235 356T179 380Q150 380 134 367T112 346V290L41 310V315Q54 330 70 348T108 382T155 408T214 419Q264 419 291 392T319 325Q319 301 319 261T317 181T316 109T315 66Q332
54 350 45T390 31V25L333 -14Q281 6 254 38Q245 31 233 23T206 7T178 -6T150 -11Q97 -11 66 17T35 87Q35 116 48 132T72 153Q76 154 91 159T130 173T185 191T252 213V296ZM251 60Q251 90 251 119T252 181Q236 176 213 168T167 151T127 137T108 130Q104 128 102
120T99 100Q99 75 117 55T173 35Q201 35 221 43T251 60ZM447 561Q477 561 500 580T534 633L542 632Q542 607 536 585T518 546T488 519T447 509Q398 509 375 543T352 632L360 633Q370 598 393 580T447 561Z" />
<glyph unicode="&#x104;" glyph-name="Aogonek" horiz-adv-x="633" d="M286 546L200 321H380L286 546ZM392 292H188L96 51L164 6V0H7V6L62 52L302 677H309L570 52L626 6V0H533Q516 -16 499 -35T467 -77T444 -123T434 -173Q434 -209 454 -226T507 -243Q524 -243
537 -239T557 -232L561 -237Q557 -240 550 -247T531 -262T505 -275T469 -281Q425 -281 399 -253T372 -183Q372 -151 388 -123T426 -70T473 -29T514 0L392 292Z" />
<glyph unicode="&#x105;" glyph-name="aogonek" horiz-adv-x="395" d="M315 66Q332 54 350 45T390 31V25Q364 9 339 -12T294 -59T262 -113T249 -173Q249 -208 268 -225T322 -243Q338 -243 351 -239T371 -232L375 -237Q371 -240 364 -247T345 -262T319 -275T283
-281Q240 -281 214 -253T187 -183Q187 -153 200 -127T234 -77T277 -37T318 -7Q298 1 282 13T254 38Q245 31 233 23T206 7T178 -6T150 -11Q97 -11 66 17T35 87Q35 116 48 132T72 153Q76 154 91 159T130 173T185 191T252 213V296Q252 332 235 356T179 380Q150 380
134 367T112 346V290L41 310V315Q54 330 70 348T108 382T155 408T214 419Q264 419 291 392T319 325Q319 301 319 261T317 181T316 109T315 66ZM173 35Q201 35 221 43T251 60Q251 90 251 119T252 181Q236 176 213 168T167 151T127 137T108 130Q104 128 102 120T99
100Q99 75 117 55T173 35Z" />
<glyph unicode="&#x106;" glyph-name="Cacute" horiz-adv-x="670" d="M396 -11Q319 -11 254 14T142 83T69 190T42 327Q42 393 65 455T134 566T245 644T395 673Q462 673 516 662T600 643V545H596Q566 588 519 616T395 644Q330 644 280 619T197 551T146 452T128
334Q128 266 149 208T206 108T292 42T399 18Q443 18 477 29T537 57T581 92T610 124H615V36Q603 30 583 22T534 7T471 -6T396 -11ZM281 704L276 713L473 838L500 783L281 704Z" />
<glyph unicode="&#x107;" glyph-name="cacute" horiz-adv-x="403" d="M188 497L179 502L281 712L337 677L188 497ZM243 415Q280 415 314 409T363 399V312H358Q350 323 339 336T311 360T274 378T228 386Q197 386 173 372T131 335T104 282T95 220Q95 175 108 141T145
85T199 51T266 39Q305 39 333 48T382 71L385 64Q375 51 361 38T327 14T282 -3T226 -10Q185 -10 149 4T86 44T43 108T27 196Q27 239 41 278T82 348T150 397T243 415Z" />
<glyph unicode="&#x108;" glyph-name="Ccircumflex" horiz-adv-x="670" d="M386 830L520 716L516 709L386 764L253 709L248 716L386 830ZM396 -11Q319 -11 254 14T142 83T69 190T42 327Q42 393 65 455T134 566T245 644T395 673Q462 673 516 662T600 643V545H596Q566
588 519 616T395 644Q330 644 280 619T197 551T146 452T128 334Q128 266 149 208T206 108T292 42T399 18Q443 18 477 29T537 57T581 92T610 124H615V36Q603 30 583 22T534 7T471 -6T396 -11Z" />
<glyph unicode="&#x109;" glyph-name="ccircumflex" horiz-adv-x="403" d="M219 705L321 491L313 486L219 599L125 486L117 491L219 705ZM243 415Q280 415 314 409T363 399V312H358Q350 323 339 336T311 360T274 378T228 386Q197 386 173 372T131 335T104 282T95
220Q95 175 108 141T145 85T199 51T266 39Q305 39 333 48T382 71L385 64Q375 51 361 38T327 14T282 -3T226 -10Q185 -10 149 4T86 44T43 108T27 196Q27 239 41 278T82 348T150 397T243 415Z" />
<glyph unicode="&#x10a;" glyph-name="Cdotaccent" horiz-adv-x="670" d="M396 -11Q319 -11 254 14T142 83T69 190T42 327Q42 393 65 455T134 566T245 644T395 673Q462 673 516 662T600 643V545H596Q566 588 519 616T395 644Q330 644 280 619T197 551T146 452T128
334Q128 266 149 208T206 108T292 42T399 18Q443 18 477 29T537 57T581 92T610 124H615V36Q603 30 583 22T534 7T471 -6T396 -11ZM387 727Q370 727 358 739T345 769Q345 787 357 799T387 811Q404 811 416 799T429 769Q429 751 417 739T387 727Z" />
<glyph unicode="&#x10b;" glyph-name="cdotaccent" horiz-adv-x="403" d="M243 415Q280 415 314 409T363 399V312H358Q350 323 339 336T311 360T274 378T228 386Q197 386 173 372T131 335T104 282T95 220Q95 175 108 141T145 85T199 51T266 39Q305 39 333 48T382
71L385 64Q375 51 361 38T327 14T282 -3T226 -10Q185 -10 149 4T86 44T43 108T27 196Q27 239 41 278T82 348T150 397T243 415ZM259 587Q259 569 247 557T217 545Q200 545 188 557T175 587Q175 605 187 617T217 629Q234 629 246 617T259 587Z" />
<glyph unicode="&#x10c;" glyph-name="Ccaron" horiz-adv-x="670" d="M253 826L386 771L516 826L520 819L386 705L248 819L253 826ZM396 -11Q319 -11 254 14T142 83T69 190T42 327Q42 393 65 455T134 566T245 644T395 673Q462 673 516 662T600 643V545H596Q566
588 519 616T395 644Q330 644 280 619T197 551T146 452T128 334Q128 266 149 208T206 108T292 42T399 18Q443 18 477 29T537 57T581 92T610 124H615V36Q603 30 583 22T534 7T471 -6T396 -11Z" />
<glyph unicode="&#x10d;" glyph-name="ccaron" horiz-adv-x="403" d="M124 704L218 591L312 704L320 699L218 485L116 699L124 704ZM243 415Q280 415 314 409T363 399V312H358Q350 323 339 336T311 360T274 378T228 386Q197 386 173 372T131 335T104 282T95 220Q95
175 108 141T145 85T199 51T266 39Q305 39 333 48T382 71L385 64Q375 51 361 38T327 14T282 -3T226 -10Q185 -10 149 4T86 44T43 108T27 196Q27 239 41 278T82 348T150 397T243 415Z" />
<glyph unicode="&#x10e;" glyph-name="Dcaron" horiz-adv-x="716" d="M200 826L333 771L463 826L467 819L333 705L195 819L200 826ZM305 662Q382 662 449 641T567 578T647 475T677 334Q677 260 652 199T582 94T472 25T329 0H48V6L114 52V610L48 656V662H305ZM191
635V53Q210 43 245 36T331 28Q389 28 436 48T518 108T571 205T590 335Q590 403 569 458T509 553T420 613T310 635H191Z" />
<glyph unicode="&#x10f;" glyph-name="dcaron" horiz-adv-x="470" d="M447 511L470 715H529L458 511H447ZM259 675V682Q258 681 269 685T300 695T343 710T394 725V59L462 34V27Q422 17 391 9Q365 2 344 -3T326 -7V46Q316 35 302 25T273 8T243 -5T214 -10Q172 -10
138 6T79 49T41 112T27 190Q27 232 41 273T83 345T153 396T250 416Q273 416 294 414T325 410V647L259 675ZM244 38Q266 38 289 46T325 69V366Q319 370 300 379T248 388Q215 388 188 374T141 335T111 277T100 206Q100 165 111 134T141 81T187 49T244 38Z" />
<glyph unicode="&#x110;" glyph-name="Dcroat" horiz-adv-x="716" d="M25 352H113V610L47 656V662H304Q381 662 448 641T566 578T646 475T676 334Q676 260 651 199T581 94T471 25T328 0H47V6L113 52V322H25V352ZM190 322V52L191 53Q209 43 244 36T330 28Q388 28
435 48T517 108T570 205T589 335Q589 403 568 458T508 553T419 613T309 635H190V352H408V322H190Z" />
<glyph unicode="&#x111;" glyph-name="dcroat" horiz-adv-x="470" d="M155 539V566H477V539H155ZM259 675V682Q258 681 269 685T300 695T343 710T394 725V59L462 34V27Q422 17 391 9Q365 2 344 -3T326 -7V46Q316 35 302 25T273 8T243 -5T214 -10Q172 -10 138 6T79
49T41 112T27 190Q27 232 41 273T83 345T153 396T250 416Q273 416 294 414T325 410V647L259 675ZM244 38Q266 38 289 46T325 69V366Q319 370 300 379T248 388Q215 388 188 374T141 335T111 277T100 206Q100 165 111 134T141 81T187 49T244 38Z" />
<glyph unicode="&#x112;" glyph-name="Emacron" horiz-adv-x="558" d="M49 0V6L114 52V610L49 656V662H479V551H473L410 634H191V368H416L458 436H463V272H458L416 339H191V29H430L498 131H504V0H49ZM185 770H402V729H185V770Z" />
<glyph unicode="&#x113;" glyph-name="emacron" horiz-adv-x="380" d="M96 218Q96 175 108 142T142 86T191 52T253 40Q287 40 314 46T361 62L365 55Q356 46 341 35T305 14T261 -3T214 -10Q174 -10 140 4T80 44T41 109T27 198Q27 241 41 280T80 350T138 398T211
416Q246 416 270 404T312 373T339 331T356 286V285H103Q100 270 98 254T96 218ZM207 387Q178 387 153 369T112 312H279Q277 334 269 348T251 371T229 383T207 387ZM109 577H300V537H109V577Z" />
<glyph unicode="&#x114;" glyph-name="Ebreve" horiz-adv-x="558" d="M49 0V6L114 52V610L49 656V662H479V551H473L410 634H191V368H416L458 436H463V272H458L416 339H191V29H430L498 131H504V0H49ZM294 715Q269 715 250 725T217 751T195 789T185 833L192 834Q206
805 231 787T294 768Q329 768 355 787T396 834L403 833Q401 811 393 790T372 753T339 726T294 715Z" />
<glyph unicode="&#x115;" glyph-name="ebreve" horiz-adv-x="380" d="M96 218Q96 175 108 142T142 86T191 52T253 40Q287 40 314 46T361 62L365 55Q356 46 341 35T305 14T261 -3T214 -10Q174 -10 140 4T80 44T41 109T27 198Q27 241 41 280T80 350T138 398T211
416Q246 416 270 404T312 373T339 331T356 286V285H103Q100 270 98 254T96 218ZM207 387Q178 387 153 369T112 312H279Q277 334 269 348T251 371T229 383T207 387ZM201 561Q231 561 254 580T288 633L296 632Q296 607 290 585T272 546T242 519T201 509Q152 509 129
543T106 632L114 633Q124 598 147 580T201 561Z" />
<glyph unicode="&#x116;" glyph-name="Edotaccent" horiz-adv-x="558" d="M294 727Q277 727 265 739T252 769Q252 787 264 799T294 811Q311 811 323 799T336 769Q336 751 324 739T294 727ZM49 0V6L114 52V610L49 656V662H479V551H473L410 634H191V368H416L458
436H463V272H458L416 339H191V29H430L498 131H504V0H49Z" />
<glyph unicode="&#x117;" glyph-name="edotaccent" horiz-adv-x="380" d="M96 218Q96 175 108 142T142 86T191 52T253 40Q287 40 314 46T361 62L365 55Q356 46 341 35T305 14T261 -3T214 -10Q174 -10 140 4T80 44T41 109T27 198Q27 241 41 280T80 350T138 398T211
416Q246 416 270 404T312 373T339 331T356 286V285H103Q100 270 98 254T96 218ZM207 387Q178 387 153 369T112 312H279Q277 334 269 348T251 371T229 383T207 387ZM245 587Q245 569 233 557T203 545Q186 545 174 557T161 587Q161 605 173 617T203 629Q220 629 232
617T245 587Z" />
<glyph unicode="&#x118;" glyph-name="Eogonek" horiz-adv-x="558" d="M49 0V6L114 52V610L49 656V662H479V551H473L410 634H191V368H416L458 436H463V272H458L416 339H191V29H430L498 131H504V0H432Q417 -16 402 -36T373 -78T352 -125T343 -173Q343 -209 362
-226T416 -243Q433 -243 446 -239T466 -232L470 -237Q466 -240 459 -247T440 -262T413 -275T377 -281Q334 -281 308 -253T281 -183Q281 -153 296 -125T332 -72T375 -30T413 0H49Z" />
<glyph unicode="&#x119;" glyph-name="eogonek" horiz-adv-x="380" d="M146 -183Q146 -155 159 -129T192 -80T238 -35T290 7Q273 0 254 -5T214 -10Q174 -10 140 4T80 44T41 109T27 198Q27 241 41 280T80 350T138 398T211 416Q246 416 270 404T312 373T339 331T356
286V285H103Q100 270 98 254T96 218Q96 175 108 142T142 86T191 52T253 40Q287 40 314 46T361 62L365 55Q351 41 333 25T298 -9Q282 -24 266 -42T237 -81T216 -125T208 -173Q208 -209 227 -226T281 -243Q298 -243 311 -239T331 -232L335 -237Q331 -240 324 -247T305
-262T279 -275T243 -281Q199 -281 173 -253T146 -183ZM207 387Q178 387 153 369T112 312H279Q277 334 269 348T251 371T229 383T207 387Z" />
<glyph unicode="&#x11a;" glyph-name="Ecaron" horiz-adv-x="558" d="M159 826L292 771L422 826L426 819L292 705L154 819L159 826ZM49 0V6L114 52V610L49 656V662H479V551H473L410 634H191V368H416L458 436H463V272H458L416 339H191V29H430L498 131H504V0H49Z" />
<glyph unicode="&#x11b;" glyph-name="ecaron" horiz-adv-x="380" d="M106 704L200 591L294 704L302 699L200 485L98 699L106 704ZM96 218Q96 175 108 142T142 86T191 52T253 40Q287 40 314 46T361 62L365 55Q356 46 341 35T305 14T261 -3T214 -10Q174 -10 140
4T80 44T41 109T27 198Q27 241 41 280T80 350T138 398T211 416Q246 416 270 404T312 373T339 331T356 286V285H103Q100 270 98 254T96 218ZM207 387Q178 387 153 369T112 312H279Q277 334 269 348T251 371T229 383T207 387Z" />
<glyph unicode="&#x11c;" glyph-name="Gcircumflex" horiz-adv-x="717" d="M378 830L512 716L508 709L378 764L245 709L240 716L378 830ZM629 45Q614 40 591 31T538 12T474 -4T402 -11Q320 -11 254 14T140 85T68 193T42 331Q42 397 66 458T135 568T245 644T394
673Q428 673 461 670T522 662T573 652T609 643V546H605Q591 566 573 584T531 615T474 636T398 644Q330 644 280 618T195 549T145 450T128 334Q128 271 147 214T201 114T288 45T404 19Q449 19 486 30T549 58V292L467 338V344H681V338L629 292V45V45Z" />
<glyph unicode="&#x11d;" glyph-name="gcircumflex" horiz-adv-x="417" d="M451 705L553 491L545 486L451 599L357 486L349 491L451 705ZM35 268Q35 299 48 326T84 372T136 403T196 415Q228 415 257 406H409V372H307Q332 353 345 329T359 273Q359 241 345 215T309
169T257 138T196 127Q168 127 144 134Q122 118 112 106T101 79Q101 58 115 49T148 40H317Q327 40 343 34T374 14T399 -21T410 -71Q410 -112 390 -150T336 -217T259 -263T168 -281Q132 -281 103 -273T53 -251T21 -216T9 -172Q9 -138 33 -99T103 -21Q78 -12 61 8T43
59Q43 71 46 82T53 96L121 142Q83 159 59 192T35 268ZM140 -27Q136 -27 133 -27T125 -26Q116 -35 107 -48T89 -77T75 -111T69 -148Q69 -190 107 -215T203 -241Q233 -241 261 -231T311 -203T346 -162T359 -112Q359 -70 333 -49T259 -27H140ZM105 271Q105 246 112
225T131 187T160 161T197 151Q217 151 233 160T262 186T280 224T287 271Q287 296 281 317T262 355T234 381T197 391Q176 391 159 382T130 356T112 318T105 271Z" />
<glyph unicode="&#x11e;" glyph-name="Gbreve" horiz-adv-x="717" d="M379 715Q354 715 335 725T302 751T280 789T270 833L277 834Q291 805 316 787T379 768Q414 768 440 787T481 834L488 833Q486 811 478 790T457 753T424 726T379 715ZM629 45Q614 40 591 31T538
12T474 -4T402 -11Q320 -11 254 14T140 85T68 193T42 331Q42 397 66 458T135 568T245 644T394 673Q428 673 461 670T522 662T573 652T609 643V546H605Q591 566 573 584T531 615T474 636T398 644Q330 644 280 618T195 549T145 450T128 334Q128 271 147 214T201 114T288
45T404 19Q449 19 486 30T549 58V292L467 338V344H681V338L629 292V45V45Z" />
<glyph unicode="&#x11f;" glyph-name="gbreve" horiz-adv-x="417" d="M35 268Q35 299 48 326T84 372T136 403T196 415Q228 415 257 406H409V372H307Q332 353 345 329T359 273Q359 241 345 215T309 169T257 138T196 127Q168 127 144 134Q122 118 112 106T101 79Q101
58 115 49T148 40H317Q327 40 343 34T374 14T399 -21T410 -71Q410 -112 390 -150T336 -217T259 -263T168 -281Q132 -281 103 -273T53 -251T21 -216T9 -172Q9 -138 33 -99T103 -21Q78 -12 61 8T43 59Q43 71 46 82T53 96L121 142Q83 159 59 192T35 268ZM140 -27Q136
-27 133 -27T125 -26Q116 -35 107 -48T89 -77T75 -111T69 -148Q69 -190 107 -215T203 -241Q233 -241 261 -231T311 -203T346 -162T359 -112Q359 -70 333 -49T259 -27H140ZM105 271Q105 246 112 225T131 187T160 161T197 151Q217 151 233 160T262 186T280 224T287
271Q287 296 281 317T262 355T234 381T197 391Q176 391 159 382T130 356T112 318T105 271ZM450 561Q480 561 503 580T537 633L545 632Q545 607 539 585T521 546T491 519T450 509Q401 509 378 543T355 632L363 633Q373 598 396 580T450 561Z" />
<glyph unicode="&#x120;" glyph-name="Gdotaccent" horiz-adv-x="717" d="M376 727Q359 727 347 739T334 769Q334 787 346 799T376 811Q393 811 405 799T418 769Q418 751 406 739T376 727ZM629 45Q614 40 591 31T538 12T474 -4T402 -11Q320 -11 254 14T140 85T68
193T42 331Q42 397 66 458T135 568T245 644T394 673Q428 673 461 670T522 662T573 652T609 643V546H605Q591 566 573 584T531 615T474 636T398 644Q330 644 280 618T195 549T145 450T128 334Q128 271 147 214T201 114T288 45T404 19Q449 19 486 30T549 58V292L467
338V344H681V338L629 292V45V45Z" />
<glyph unicode="&#x121;" glyph-name="gdotaccent" horiz-adv-x="417" d="M35 268Q35 299 48 326T84 372T136 403T196 415Q228 415 257 406H409V372H307Q332 353 345 329T359 273Q359 241 345 215T309 169T257 138T196 127Q168 127 144 134Q122 118 112 106T101
79Q101 58 115 49T148 40H317Q327 40 343 34T374 14T399 -21T410 -71Q410 -112 390 -150T336 -217T259 -263T168 -281Q132 -281 103 -273T53 -251T21 -216T9 -172Q9 -138 33 -99T103 -21Q78 -12 61 8T43 59Q43 71 46 82T53 96L121 142Q83 159 59 192T35 268ZM140
-27Q136 -27 133 -27T125 -26Q116 -35 107 -48T89 -77T75 -111T69 -148Q69 -190 107 -215T203 -241Q233 -241 261 -231T311 -203T346 -162T359 -112Q359 -70 333 -49T259 -27H140ZM105 271Q105 246 112 225T131 187T160 161T197 151Q217 151 233 160T262 186T280
224T287 271Q287 296 281 317T262 355T234 381T197 391Q176 391 159 382T130 356T112 318T105 271ZM493 587Q493 569 481 557T451 545Q434 545 422 557T409 587Q409 605 421 617T451 629Q468 629 480 617T493 587Z" />
<glyph unicode="&#x122;" glyph-name="Gcommaaccent" horiz-adv-x="717" d="M427 -142Q427 -166 419 -188T399 -231T372 -268T343 -295L333 -292Q343 -280 352 -264T370 -230T384 -194T390 -158Q388 -159 385 -159Q383 -160 380 -160T373 -160Q357 -160 348 -149T339
-122Q339 -105 350 -94T378 -82Q401 -82 414 -97T427 -142ZM629 45Q614 40 591 31T538 12T474 -4T402 -11Q320 -11 254 14T140 85T68 193T42 331Q42 397 66 458T135 568T245 644T394 673Q428 673 461 670T522 662T573 652T609 643V546H605Q591 566 573 584T531
615T474 636T398 644Q330 644 280 618T195 549T145 450T128 334Q128 271 147 214T201 114T288 45T404 19Q449 19 486 30T549 58V292L467 338V344H681V338L629 292V45V45Z" />
<glyph unicode="&#x123;" glyph-name="gcommaaccent" horiz-adv-x="417" d="M401 561Q401 584 409 607T429 650T456 686T485 714L495 710Q485 699 476 683T458 648T444 611T438 576Q440 576 443 577Q445 577 448 577T455 578Q471 578 480 568T489 540Q489 523
478 512T450 501Q427 501 414 516T401 561ZM35 268Q35 299 48 326T84 372T136 403T196 415Q228 415 257 406H409V372H307Q332 353 345 329T359 273Q359 241 345 215T309 169T257 138T196 127Q168 127 144 134Q122 118 112 106T101 79Q101 58 115 49T148 40H317Q327
40 343 34T374 14T399 -21T410 -71Q410 -112 390 -150T336 -217T259 -263T168 -281Q132 -281 103 -273T53 -251T21 -216T9 -172Q9 -138 33 -99T103 -21Q78 -12 61 8T43 59Q43 71 46 82T53 96L121 142Q83 159 59 192T35 268ZM140 -27Q136 -27 133 -27T125 -26Q116
-35 107 -48T89 -77T75 -111T69 -148Q69 -190 107 -215T203 -241Q233 -241 261 -231T311 -203T346 -162T359 -112Q359 -70 333 -49T259 -27H140ZM105 271Q105 246 112 225T131 187T160 161T197 151Q217 151 233 160T262 186T280 224T287 271Q287 296 281 317T262
355T234 381T197 391Q176 391 159 382T130 356T112 318T105 271Z" />
<glyph unicode="&#x124;" glyph-name="Hcircumflex" horiz-adv-x="767" d="M191 352H577V610L512 656V662H719V656L654 610V52L719 6V0H512V6L577 52V321H191V52L256 6V0H49V6L114 52V610L49 656V662H256V656L191 610V352ZM383 830L517 716L513 709L383 764L250
709L245 716L383 830Z" />
<glyph unicode="&#x125;" glyph-name="hcircumflex" horiz-adv-x="500" d="M22 0V6L82 47V646L23 674V681Q22 681 32 685T61 695T102 710T151 725V348Q161 357 176 369T210 391T251 408T299 415Q323 415 345 407T384 385T412 351T422 310V47L483 6V0H293V6L354
47V288Q354 322 330 347T260 372Q225 372 198 356T151 320V47L211 6V0H22ZM252 882L386 768L382 761L252 816L119 761L114 768L252 882Z" />
<glyph unicode="&#x126;" glyph-name="Hbar" horiz-adv-x="767" d="M25 477V506H743V477H25ZM190 352H576V610L511 656V662H718V656L653 610V52L718 6V0H511V6L576 52V321H190V52L255 6V0H48V6L113 52V610L48 656V662H255V656L190 610V352Z" />
<glyph unicode="&#x127;" glyph-name="hbar" horiz-adv-x="500" d="M-1 539V566H315V539H-1ZM22 0V6L82 47V646L23 674V681Q22 681 32 685T61 695T102 710T151 725V348Q161 357 176 369T210 391T251 408T299 415Q323 415 345 407T384 385T412 351T422 310V47L483
6V0H293V6L354 47V288Q354 322 330 347T260 372Q225 372 198 356T151 320V47L211 6V0H22Z" />
<glyph unicode="&#x128;" glyph-name="Itilde" horiz-adv-x="305" d="M49 0V6L114 52V610L49 656V662H256V656L191 610V52L256 6V0H49ZM352 800Q361 800 379 797T418 791T456 784T484 781Q492 781 501 787T520 801T536 817T549 830L554 827Q551 819 544 804T526
772T503 744T478 732Q466 732 448 735T410 741T374 748T348 751Q340 751 331 746T312 732T296 716T283 701L277 704Q281 713 288 729T306 760T328 788T352 800Z" />
<glyph unicode="&#x129;" glyph-name="itilde" horiz-adv-x="233" d="M22 0V6L82 48V344L26 371V377Q25 377 34 381T61 391T101 405T150 420V48L211 6V0H22ZM315 608Q324 608 340 604T374 595T407 586T431 582Q437 582 444 587T459 600T474 616T488 633L495 630Q491
618 484 602T467 570T448 544T428 533Q417 533 401 537T368 546T336 555T313 559Q301 559 285 542T256 509L249 512Q253 524 260 540T276 572T295 597T315 608Z" />
<glyph unicode="&#x12a;" glyph-name="Imacron" horiz-adv-x="305" d="M49 0V6L114 52V610L49 656V662H256V656L191 610V52L256 6V0H49ZM300 770H517V729H300V770Z" />
<glyph unicode="&#x12b;" glyph-name="imacron" horiz-adv-x="233" d="M22 0V6L82 48V344L26 371V377Q25 377 34 381T61 391T101 405T150 420V48L211 6V0H22ZM272 577H463V537H272V577Z" />
<glyph unicode="&#x12c;" glyph-name="Ibreve" horiz-adv-x="305" d="M49 0V6L114 52V610L49 656V662H256V656L191 610V52L256 6V0H49ZM408 715Q383 715 364 725T331 751T309 789T299 833L306 834Q320 805 345 787T408 768Q443 768 469 787T510 834L517 833Q515
811 507 790T486 753T453 726T408 715Z" />
<glyph unicode="&#x12d;" glyph-name="ibreve" horiz-adv-x="233" d="M22 0V6L82 48V344L26 371V377Q25 377 34 381T61 391T101 405T150 420V48L211 6V0H22ZM366 561Q396 561 419 580T453 633L461 632Q461 607 455 585T437 546T407 519T366 509Q317 509 294 543T271
632L279 633Q289 598 312 580T366 561Z" />
<glyph unicode="&#x12e;" glyph-name="Iogonek" horiz-adv-x="305" d="M173 -281Q131 -281 104 -253T77 -183Q77 -156 87 -130T111 -79T141 -35T167 0H186Q180 -12 172 -30T157 -70T144 -117T139 -167Q139 -207 159 -225T212 -243Q229 -243 242 -239T262 -232L266
-237Q262 -240 255 -247T236 -262T209 -275T173 -281ZM49 0V6L114 52V610L49 656V662H256V656L191 610V52L256 6V0H49Z" />
<glyph unicode="&#x12f;" glyph-name="iogonek" horiz-adv-x="233" d="M111 629Q128 629 140 617T153 587Q153 569 141 557T111 545Q94 545 82 557T69 587Q69 605 81 617T111 629ZM22 0V6L82 48V344L26 371V377Q25 377 34 381T61 391T101 405T150 420V48L211 6V0H151Q148
-9 142 -23T131 -57T122 -98T118 -146Q118 -243 192 -243Q208 -243 221 -239T242 -231L246 -236Q242 -240 235 -247T216 -262T188 -275T153 -281Q109 -281 83 -252T56 -179Q56 -151 65 -124T88 -72T113 -29T132 0H22Z" />
<glyph unicode="&#x130;" glyph-name="Idotaccent" horiz-adv-x="305" d="M49 0V6L114 52V610L49 656V662H256V656L191 610V52L256 6V0H49ZM409 727Q392 727 380 739T367 769Q367 787 379 799T409 811Q426 811 438 799T451 769Q451 751 439 739T409 727Z" />
<glyph unicode="&#x131;" glyph-name="dotlessi" horiz-adv-x="233" d="M22 0V6L82 48V344L26 371V377Q25 377 34 381T61 391T101 405T150 420V48L211 6V0H22Z" />
<glyph unicode="&#x132;" glyph-name="IJ" horiz-adv-x="591" d="M49 0V6L114 52V610L49 656V662H256V656L191 610V52L256 6V0H49ZM344 656V662H552V656L486 610V96Q486 59 473 17T438 -68T387 -150T324 -221L314 -214Q333 -183 350 -150T381 -76T401 14T409 127V610L344
656Z" />
<glyph unicode="&#x133;" glyph-name="ij" horiz-adv-x="447" d="M153 587Q153 569 141 557T111 545Q94 545 82 557T69 587Q69 605 81 617T111 629Q128 629 140 617T153 587ZM22 0V6L82 48V344L26 371V377Q25 377 34 381T61 391T101 405T150 420V48L211 6V0H22ZM378
587Q378 569 366 557T336 545Q319 545 307 557T294 587Q294 605 306 617T336 629Q353 629 365 617T378 587ZM251 370V377Q250 377 260 381T287 391T327 405T376 420V56Q376 44 374 15T360 -55T322 -147T247 -252L236 -247Q273 -173 290 -97T307 58V344L251 370Z"
/>
<glyph unicode="&#x134;" glyph-name="Jcircumflex" horiz-adv-x="286" d="M400 830L534 716L530 709L400 764L267 709L262 716L400 830ZM40 656V662H248V656L182 610V96Q182 59 169 17T134 -68T83 -150T20 -221L10 -214Q29 -183 46 -150T77 -76T97 14T105 127V610L40
656Z" />
<glyph unicode="&#x135;" glyph-name="jcircumflex" horiz-adv-x="213" d="M18 370V377Q17 376 27 380T54 390T94 404T143 419V56Q143 44 141 15T127 -55T89 -147T14 -252L3 -247Q40 -173 57 -97T74 58V343L18 370ZM355 705L457 491L449 486L355 599L261 486L253
491L355 705Z" />
<glyph unicode="&#x136;" glyph-name="Kcommaaccent" horiz-adv-x="641" d="M391 -142Q391 -166 383 -188T363 -231T336 -268T307 -295L297 -292Q307 -280 316 -264T334 -230T348 -194T354 -158Q352 -159 349 -159Q347 -160 344 -160T337 -160Q321 -160 312 -149T303
-122Q303 -105 314 -94T342 -82Q365 -82 378 -97T391 -142ZM49 0V6L114 52V610L49 656V662H257V656L191 610V52L257 6V0H49ZM638 0H406V6L472 52L238 336H205L471 610L405 656V662H594V656L521 616L294 388L562 52L638 6V0Z" />
<glyph unicode="&#x137;" glyph-name="kcommaaccent" horiz-adv-x="461" d="M305 -142Q305 -166 297 -188T277 -231T250 -268T221 -295L211 -292Q221 -280 230 -264T248 -230T262 -194T268 -158Q266 -159 263 -159Q261 -160 258 -160T251 -160Q235 -160 226 -149T217
-122Q217 -105 228 -94T256 -82Q279 -82 292 -97T305 -142ZM150 48L211 6V0H22V6L82 48V646L23 674V681Q25 682 36 686T64 696T104 710T150 725V48ZM161 232V238L298 356L246 401V406H431V401L346 362L223 256L322 129Q364 75 397 46T460 6V0Q458 -2 442 -5T411
-8Q391 -8 375 -4T344 12T313 41T277 85L161 232Z" />
<glyph unicode="&#x139;" glyph-name="Lacute" horiz-adv-x="553" d="M317 704L312 713L509 838L536 783L317 704ZM509 151H515V0H49V6L114 52V610L49 656V662H257V656L191 610V29H429L509 151Z" />
<glyph unicode="&#x13a;" glyph-name="lacute" horiz-adv-x="233" d="M269 733L264 742L461 867L488 812L269 733ZM150 48L211 6V0H22V6L82 48V646L23 674V682Q24 682 34 686T62 696T102 710T150 725V48Z" />
<glyph unicode="&#x13b;" glyph-name="Lcommaaccent" horiz-adv-x="553" d="M365 -142Q365 -166 357 -188T337 -231T310 -268T281 -295L271 -292Q281 -280 290 -264T308 -230T322 -194T328 -158Q326 -159 323 -159Q321 -160 318 -160T311 -160Q295 -160 286 -149T277
-122Q277 -105 288 -94T316 -82Q339 -82 352 -97T365 -142ZM509 151H515V0H49V6L114 52V610L49 656V662H257V656L191 610V29H429L509 151Z" />
<glyph unicode="&#x13c;" glyph-name="lcommaaccent" horiz-adv-x="233" d="M421 -142Q421 -166 413 -188T393 -231T366 -268T337 -295L327 -292Q337 -280 346 -264T364 -230T378 -194T384 -158Q382 -159 379 -159Q377 -160 374 -160T367 -160Q351 -160 342 -149T333
-122Q333 -105 344 -94T372 -82Q395 -82 408 -97T421 -142ZM150 48L211 6V0H22V6L82 48V646L23 674V682Q24 682 34 686T62 696T102 710T150 725V48Z" />
<glyph unicode="&#x13d;" glyph-name="Lcaron" horiz-adv-x="553" d="M312 511L335 715H394L323 511H312ZM509 151H515V0H49V6L114 52V610L49 656V662H257V656L191 610V29H429L509 151Z" />
<glyph unicode="&#x13e;" glyph-name="lcaron" horiz-adv-x="233" d="M203 511L226 715H285L214 511H203ZM150 48L211 6V0H22V6L82 48V646L23 674V682Q24 682 34 686T62 696T102 710T150 725V48Z" />
<glyph unicode="&#x13f;" glyph-name="Ldot" horiz-adv-x="553" d="M434 351Q434 372 447 384T479 397Q499 397 512 385T525 351Q525 332 512 319T479 305Q460 305 447 318T434 351ZM509 151H515V0H49V6L114 52V610L49 656V662H257V656L191 610V29H429L509 151Z" />
<glyph unicode="&#x140;" glyph-name="ldot" horiz-adv-x="338" d="M240 345Q240 366 253 378T286 391Q306 391 318 379T331 345Q331 326 319 313T286 300Q266 300 253 313T240 345ZM150 48L211 6V0H22V6L82 48V646L23 674V682Q24 682 34 686T62 696T102 710T150 725V48Z" />
<glyph unicode="&#x141;" glyph-name="Lslash" horiz-adv-x="553" d="M509 151H515V0H49V6L114 52V230L14 178V213L114 266V610L49 656V662H257V656L191 610V307L414 425V389L191 271V29H429L509 151Z" />
<glyph unicode="&#x142;" glyph-name="lslash" horiz-adv-x="233" d="M150 48L211 6V0H22V6L82 48V284L1 230V262L82 316V646L23 674V682Q24 682 34 686T62 696T102 710T150 725V362L231 417V383L150 329V48Z" />
<glyph unicode="&#x143;" glyph-name="Nacute" horiz-adv-x="763" d="M293 704L288 713L485 838L512 783L293 704ZM40 0V6L114 57V582Q86 613 70 628T37 656V662H145L619 119V605L547 656V662H728V656L654 605V0H629L149 542V57L220 6V0H40Z" />
<glyph unicode="&#x144;" glyph-name="nacute" horiz-adv-x="500" d="M227 497L218 502L320 712L376 677L227 497ZM22 0V6L82 48V344L26 370V377Q25 377 34 381T61 391T101 405T150 420V349Q160 358 175 370T209 392T251 409T299 416Q323 416 345 408T384 387T411
354T422 313V48L483 6V0H295V6L353 48V287Q353 321 330 346T259 371Q224 371 197 355T150 320V48L211 6V0H22Z" />
<glyph unicode="&#x145;" glyph-name="Ncommaaccent" horiz-adv-x="763" d="M433 -142Q433 -166 425 -188T405 -231T378 -268T349 -295L339 -292Q349 -280 358 -264T376 -230T390 -194T396 -158Q394 -159 391 -159Q389 -160 386 -160T379 -160Q363 -160 354 -149T345
-122Q345 -105 356 -94T384 -82Q407 -82 420 -97T433 -142ZM40 0V6L114 57V582Q86 613 70 628T37 656V662H145L619 119V605L547 656V662H728V656L654 605V0H629L149 542V57L220 6V0H40Z" />
<glyph unicode="&#x146;" glyph-name="ncommaaccent" horiz-adv-x="500" d="M307 -142Q307 -166 299 -188T279 -231T252 -268T223 -295L213 -292Q223 -280 232 -264T250 -230T264 -194T270 -158Q268 -159 265 -159Q263 -160 260 -160T253 -160Q237 -160 228 -149T219
-122Q219 -105 230 -94T258 -82Q281 -82 294 -97T307 -142ZM22 0V6L82 48V344L26 370V377Q25 377 34 381T61 391T101 405T150 420V349Q160 358 175 370T209 392T251 409T299 416Q323 416 345 408T384 387T411 354T422 313V48L483 6V0H295V6L353 48V287Q353 321
330 346T259 371Q224 371 197 355T150 320V48L211 6V0H22Z" />
<glyph unicode="&#x147;" glyph-name="Ncaron" horiz-adv-x="763" d="M251 826L384 771L514 826L518 819L384 705L246 819L251 826ZM40 0V6L114 57V582Q86 613 70 628T37 656V662H145L619 119V605L547 656V662H728V656L654 605V0H629L149 542V57L220 6V0H40Z" />
<glyph unicode="&#x148;" glyph-name="ncaron" horiz-adv-x="500" d="M153 704L247 591L341 704L349 699L247 485L145 699L153 704ZM22 0V6L82 48V344L26 370V377Q25 377 34 381T61 391T101 405T150 420V349Q160 358 175 370T209 392T251 409T299 416Q323 416
345 408T384 387T411 354T422 313V48L483 6V0H295V6L353 48V287Q353 321 330 346T259 371Q224 371 197 355T150 320V48L211 6V0H22Z" />
<glyph unicode="&#x149;" glyph-name="napostrophe" horiz-adv-x="527" d="M344 631Q344 583 317 537T247 455L237 459Q266 497 284 540T305 619Q302 618 299 618Q295 617 285 617Q269 617 260 627T250 653Q250 672 262 682T291 693Q314 693 329 677T344 631ZM48
0V6L108 48V344L52 370V377Q51 377 60 381T87 391T127 405T176 420V349Q186 358 201 370T235 392T277 409T325 416Q349 416 371 408T410 387T437 354T448 313V48L509 6V0H321V6L379 48V287Q379 321 356 346T285 371Q250 371 223 355T176 320V48L237 6V0H48Z" />
<glyph unicode="&#x14a;" glyph-name="Eng" horiz-adv-x="766" d="M661 69Q661 41 656 6T636 -69T599 -147T542 -222L532 -215Q552 -180 568 -135T585 -41Q585 -13 580 11T564 59T536 108T492 162L155 542V57L225 6V0H46V6L120 57V582Q92 613 76 628T43 656V662H151L580
172Q603 146 613 128T626 99V605L555 656V662H734V656L661 605V69Z" />
<glyph unicode="&#x14b;" glyph-name="eng" horiz-adv-x="488" d="M22 0V6L82 48V344L26 370V377Q25 377 34 381T61 391T101 405T150 420V348Q160 358 175 369T210 391T252 409T300 416Q323 416 345 408T384 387T411 355T422 314V56Q422 44 420 15T406 -55T368
-147T293 -252L283 -247Q319 -173 336 -97T353 58V287Q353 321 330 346T259 371Q224 371 197 355T150 319V48L211 6V0H22Z" />
<glyph unicode="&#x14c;" glyph-name="Omacron" horiz-adv-x="739" d="M262 770H479V729H262V770ZM44 323Q44 397 69 461T138 572T241 646T370 673Q437 673 496 648T600 579T670 472T696 336Q696 262 671 199T601 89T497 16T369 -11Q302 -11 243 14T140 83T70
188T44 323ZM131 330Q131 258 149 200T200 102T275 40T369 18Q418 18 462 40T539 102T591 200T610 330Q610 402 591 460T540 559T464 622T370 644Q320 644 276 622T200 559T150 460T131 330Z" />
<glyph unicode="&#x14d;" glyph-name="omacron" horiz-adv-x="452" d="M129 577H320V537H129V577ZM27 198Q27 243 42 283T84 352T147 399T225 416Q267 416 303 400T367 357T409 291T425 207Q425 161 410 122T368 53T305 7T226 -10Q184 -10 148 5T85 49T43 115T27
198ZM101 203Q101 162 111 129T138 71T177 33T226 19Q251 19 274 32T313 70T340 128T350 203Q350 242 340 276T313 334T274 373T225 388Q200 388 178 374T138 335T111 276T101 203Z" />
<glyph unicode="&#x14e;" glyph-name="Obreve" horiz-adv-x="739" d="M370 715Q345 715 326 725T293 751T271 789T261 833L268 834Q282 805 307 787T370 768Q405 768 431 787T472 834L479 833Q477 811 469 790T448 753T415 726T370 715ZM44 323Q44 397 69 461T138
572T241 646T370 673Q437 673 496 648T600 579T670 472T696 336Q696 262 671 199T601 89T497 16T369 -11Q302 -11 243 14T140 83T70 188T44 323ZM131 330Q131 258 149 200T200 102T275 40T369 18Q418 18 462 40T539 102T591 200T610 330Q610 402 591 460T540 559T464
622T370 644Q320 644 276 622T200 559T150 460T131 330Z" />
<glyph unicode="&#x14f;" glyph-name="obreve" horiz-adv-x="452" d="M27 198Q27 243 42 283T84 352T147 399T225 416Q267 416 303 400T367 357T409 291T425 207Q425 161 410 122T368 53T305 7T226 -10Q184 -10 148 5T85 49T43 115T27 198ZM101 203Q101 162 111
129T138 71T177 33T226 19Q251 19 274 32T313 70T340 128T350 203Q350 242 340 276T313 334T274 373T225 388Q200 388 178 374T138 335T111 276T101 203ZM225 561Q255 561 278 580T312 633L320 632Q320 607 314 585T296 546T266 519T225 509Q176 509 153 543T130
632L138 633Q148 598 171 580T225 561Z" />
<glyph unicode="&#x150;" glyph-name="Ohungarumlaut" horiz-adv-x="739" d="M556 849L591 801L416 704L409 712L556 849ZM257 704L250 712L397 849L431 801L257 704ZM44 323Q44 397 69 461T138 572T241 646T370 673Q437 673 496 648T600 579T670 472T696 336Q696
262 671 199T601 89T497 16T369 -11Q302 -11 243 14T140 83T70 188T44 323ZM131 330Q131 258 149 200T200 102T275 40T369 18Q418 18 462 40T539 102T591 200T610 330Q610 402 591 460T540 559T464 622T370 644Q320 644 276 622T200 559T150 460T131 330Z" />
<glyph unicode="&#x151;" glyph-name="ohungarumlaut" horiz-adv-x="452" d="M277 496L266 500L333 714L384 692L277 496ZM160 496L149 500L215 714L266 692L160 496ZM27 198Q27 243 42 283T84 352T147 399T225 416Q267 416 303 400T367 357T409 291T425 207Q425
161 410 122T368 53T305 7T226 -10Q184 -10 148 5T85 49T43 115T27 198ZM101 203Q101 162 111 129T138 71T177 33T226 19Q251 19 274 32T313 70T340 128T350 203Q350 242 340 276T313 334T274 373T225 388Q200 388 178 374T138 335T111 276T101 203Z" />
<glyph unicode="&#x152;" glyph-name="OE" horiz-adv-x="911" d="M808 436H813V273H808L766 340H548V29H782L850 132H856V0H388Q316 0 253 23T143 90T68 192T41 324Q41 395 67 457T140 564T250 636T388 662H830V550H824L761 634H548V368H766L808 436ZM387 634Q331
634 284 613T202 553T148 457T128 330Q128 261 148 205T203 110T286 50T388 29H471V634H387Z" />
<glyph unicode="&#x153;" glyph-name="oe" horiz-adv-x="700" d="M534 -10Q483 -10 442 11T374 75Q348 38 310 14T221 -10Q180 -10 145 6T84 50T42 116T27 198Q27 243 42 282T83 351T144 398T220 416Q268 416 310 393T379 328Q405 368 445 392T531 416Q566 416
590 404T632 373T659 331T676 286V285H423Q415 255 415 218Q415 175 427 142T461 86T511 52T573 40Q607 40 634 46T681 62L685 55Q676 46 661 35T625 14T581 -3T534 -10ZM102 203Q102 164 111 130T137 71T174 32T220 18Q244 18 265 32T303 70T330 129T340 203Q340
241 330 274T304 333T266 373T220 388Q196 388 175 374T137 334T112 276T102 203ZM527 387Q498 387 473 369T431 312H599Q597 334 589 348T571 371T549 383T527 387Z" />
<glyph unicode="&#x154;" glyph-name="Racute" horiz-adv-x="597" d="M183 704L178 713L375 838L402 783L183 704ZM49 0V6L114 52V610L49 656V662H289Q337 662 373 651T432 621T467 577T479 523Q479 488 467 461T437 412T398 377T357 353L478 149Q502 110 524
83T565 40T597 15T616 6V0Q613 -1 598 -3T571 -6Q554 -6 537 -3T500 12T459 47T416 109L282 335H191V52L267 6V0H49ZM191 635V361H282Q308 361 330 372T367 402T392 446T401 498Q401 535 390 561T358 603T312 627T258 635H191Z" />
<glyph unicode="&#x155;" glyph-name="racute" horiz-adv-x="335" d="M173 497L164 502L266 712L322 677L173 497ZM26 370V377Q31 379 65 392T150 420V334Q199 384 227 401T269 419Q284 419 299 415T321 409L298 342Q292 344 279 348T250 353Q233 353 205 343T150
309V47L229 6V0H22V6L82 48V344L26 370Z" />
<glyph unicode="&#x156;" glyph-name="Rcommaaccent" horiz-adv-x="597" d="M396 -143Q396 -167 388 -189T368 -232T341 -269T312 -296L302 -293Q312 -281 321 -265T339 -231T353 -195T359 -159Q357 -160 354 -160Q352 -161 349 -161T342 -161Q326 -161 317 -150T308
-123Q308 -106 319 -95T347 -83Q370 -83 383 -98T396 -143ZM49 0V6L114 52V610L49 656V662H289Q337 662 373 651T432 621T467 577T479 523Q479 488 467 461T437 412T398 377T357 353L478 149Q502 110 524 83T565 40T597 15T616 6V0Q613 -1 598 -3T571 -6Q554 -6
537 -3T500 12T459 47T416 109L282 335H191V52L267 6V0H49ZM191 635V361H282Q308 361 330 372T367 402T392 446T401 498Q401 535 390 561T358 603T312 627T258 635H191Z" />
<glyph unicode="&#x157;" glyph-name="rcommaaccent" horiz-adv-x="335" d="M418 -142Q418 -166 410 -188T390 -231T363 -268T334 -295L324 -292Q334 -280 343 -264T361 -230T375 -194T381 -158Q379 -159 376 -159Q374 -160 371 -160T364 -160Q348 -160 339 -149T330
-122Q330 -105 341 -94T369 -82Q392 -82 405 -97T418 -142ZM26 370V377Q31 379 65 392T150 420V334Q199 384 227 401T269 419Q284 419 299 415T321 409L298 342Q292 344 279 348T250 353Q233 353 205 343T150 309V47L229 6V0H22V6L82 48V344L26 370Z" />
<glyph unicode="&#x158;" glyph-name="Rcaron" horiz-adv-x="597" d="M139 826L272 771L402 826L406 819L272 705L134 819L139 826ZM49 0V6L114 52V610L49 656V662H289Q337 662 373 651T432 621T467 577T479 523Q479 488 467 461T437 412T398 377T357 353L478
149Q502 110 524 83T565 40T597 15T616 6V0Q613 -1 598 -3T571 -6Q554 -6 537 -3T500 12T459 47T416 109L282 335H191V52L267 6V0H49ZM191 635V361H282Q308 361 330 372T367 402T392 446T401 498Q401 535 390 561T358 603T312 627T258 635H191Z" />
<glyph unicode="&#x159;" glyph-name="rcaron" horiz-adv-x="335" d="M106 704L200 591L294 704L302 699L200 485L98 699L106 704ZM26 370V377Q31 379 65 392T150 420V334Q199 384 227 401T269 419Q284 419 299 415T321 409L298 342Q292 344 279 348T250 353Q233
353 205 343T150 309V47L229 6V0H22V6L82 48V344L26 370Z" />
<glyph unicode="&#x15a;" glyph-name="Sacute" horiz-adv-x="466" d="M248 673Q298 673 328 666T373 652V569H369Q364 580 354 593T329 617T292 636T244 644Q196 644 165 617T134 545Q134 516 143 495T170 454T211 417T266 378Q298 355 326 334T376 288T409 235T421
171Q421 133 408 100T370 43T309 4T227 -10Q168 -10 125 3T55 33Q53 46 51 65T49 105T48 147T48 188H54Q58 170 68 142T97 86T147 40T227 20Q255 20 278 29T318 55T343 94T352 140Q352 169 344 192T320 235T280 274T223 315Q186 339 158 362T109 409T79 461T68
520Q68 555 81 583T118 632T175 662T248 673ZM118 704L113 713L310 838L337 783L118 704Z" />
<glyph unicode="&#x15b;" glyph-name="sacute" horiz-adv-x="320" d="M377 497L368 502L470 712L526 677L377 497ZM167 416Q203 416 225 411T254 403V327H248Q245 335 239 345T222 365T197 380T163 387Q140 387 123 374T105 333Q105 302 125 286T180 247Q199 235
218 222T252 193T276 157T286 110Q286 59 251 25T151 -10Q113 -10 83 -2T38 14Q37 22 36 37T33 69T32 105T32 139H38Q43 120 52 99T75 60T108 31T153 19Q185 19 206 38T227 90Q227 124 204 144T141 188Q123 200 106 212T76 238T56 271T48 314Q48 338 57 357T83
389T121 409T167 416Z" />
<glyph unicode="&#x15c;" glyph-name="Scircumflex" horiz-adv-x="466" d="M231 830L365 716L361 709L231 764L98 709L93 716L231 830ZM248 673Q298 673 328 666T373 652V569H369Q364 580 354 593T329 617T292 636T244 644Q196 644 165 617T134 545Q134 516 143
495T170 454T211 417T266 378Q298 355 326 334T376 288T409 235T421 171Q421 133 408 100T370 43T309 4T227 -10Q168 -10 125 3T55 33Q53 46 51 65T49 105T48 147T48 188H54Q58 170 68 142T97 86T147 40T227 20Q255 20 278 29T318 55T343 94T352 140Q352 169 344
192T320 235T280 274T223 315Q186 339 158 362T109 409T79 461T68 520Q68 555 81 583T118 632T175 662T248 673Z" />
<glyph unicode="&#x15d;" glyph-name="scircumflex" horiz-adv-x="320" d="M415 705L517 491L509 486L415 599L321 486L313 491L415 705ZM167 416Q203 416 225 411T254 403V327H248Q245 335 239 345T222 365T197 380T163 387Q140 387 123 374T105 333Q105 302
125 286T180 247Q199 235 218 222T252 193T276 157T286 110Q286 59 251 25T151 -10Q113 -10 83 -2T38 14Q37 22 36 37T33 69T32 105T32 139H38Q43 120 52 99T75 60T108 31T153 19Q185 19 206 38T227 90Q227 124 204 144T141 188Q123 200 106 212T76 238T56 271T48
314Q48 338 57 357T83 389T121 409T167 416Z" />
<glyph unicode="&#x15e;" glyph-name="Scedilla" horiz-adv-x="466" d="M248 673Q298 673 328 666T373 652V569H369Q364 580 354 593T329 617T292 636T244 644Q196 644 165 617T134 545Q134 516 143 495T170 454T211 417T266 378Q298 355 326 334T376 288T409
235T421 171Q421 133 408 100T370 43T309 4T227 -10Q168 -10 125 3T55 33Q53 46 51 65T49 105T48 147T48 188H54Q58 170 68 142T97 86T147 40T227 20Q255 20 278 29T318 55T343 94T352 140Q352 169 344 192T320 235T280 274T223 315Q186 339 158 362T109 409T79
461T68 520Q68 555 81 583T118 632T175 662T248 673ZM244 0L204 -78Q216 -81 229 -87T253 -103T271 -126T278 -158Q278 -180 267 -198T237 -232T192 -260T135 -285L130 -276Q145 -267 162 -255T194 -230T218 -201T228 -170Q228 -157 221 -147T203 -131T181 -121T162
-117L160 -114Q176 -83 189 -58Q200 -37 209 -19T218 0H244Z" />
<glyph unicode="&#x15f;" glyph-name="scedilla" horiz-adv-x="320" d="M167 416Q203 416 225 411T254 403V327H248Q245 335 239 345T222 365T197 380T163 387Q140 387 123 374T105 333Q105 302 125 286T180 247Q199 235 218 222T252 193T276 157T286 110Q286
59 251 25T151 -10Q113 -10 83 -2T38 14Q37 22 36 37T33 69T32 105T32 139H38Q43 120 52 99T75 60T108 31T153 19Q185 19 206 38T227 90Q227 124 204 144T141 188Q123 200 106 212T76 238T56 271T48 314Q48 338 57 357T83 389T121 409T167 416ZM428 0L388 -78Q400
-81 413 -87T437 -103T455 -126T462 -158Q462 -180 451 -198T421 -232T376 -260T319 -285L314 -276Q329 -267 346 -255T378 -230T402 -201T412 -170Q412 -157 405 -147T387 -131T365 -121T346 -117L344 -114Q360 -83 373 -58Q384 -37 393 -19T402 0H428Z" />
<glyph unicode="&#x160;" glyph-name="Scaron" horiz-adv-x="466" d="M100 826L233 771L363 826L367 819L233 705L95 819L100 826ZM248 673Q298 673 328 666T373 652V569H369Q364 580 354 593T329 617T292 636T244 644Q196 644 165 617T134 545Q134 516 143 495T170
454T211 417T266 378Q298 355 326 334T376 288T409 235T421 171Q421 133 408 100T370 43T309 4T227 -10Q168 -10 125 3T55 33Q53 46 51 65T49 105T48 147T48 188H54Q58 170 68 142T97 86T147 40T227 20Q255 20 278 29T318 55T343 94T352 140Q352 169 344 192T320
235T280 274T223 315Q186 339 158 362T109 409T79 461T68 520Q68 555 81 583T118 632T175 662T248 673Z" />
<glyph unicode="&#x161;" glyph-name="scaron" horiz-adv-x="320" d="M320 704L414 591L508 704L516 699L414 485L312 699L320 704ZM167 416Q203 416 225 411T254 403V327H248Q245 335 239 345T222 365T197 380T163 387Q140 387 123 374T105 333Q105 302 125 286T180
247Q199 235 218 222T252 193T276 157T286 110Q286 59 251 25T151 -10Q113 -10 83 -2T38 14Q37 22 36 37T33 69T32 105T32 139H38Q43 120 52 99T75 60T108 31T153 19Q185 19 206 38T227 90Q227 124 204 144T141 188Q123 200 106 212T76 238T56 271T48 314Q48 338
57 357T83 389T121 409T167 416Z" />
<glyph unicode="&#x162;" glyph-name="Tcommaaccent" horiz-adv-x="630" d="M363 -142Q363 -166 355 -188T335 -231T308 -268T279 -295L269 -292Q279 -280 288 -264T306 -230T320 -194T326 -158Q324 -159 321 -159Q319 -160 316 -160T309 -160Q293 -160 284 -149T275
-122Q275 -105 286 -94T314 -82Q337 -82 350 -97T363 -142ZM597 662V541H591L525 632H353V54L417 6V0H212V6L276 54V632H105L39 541H33V662H597Z" />
<glyph unicode="&#x163;" glyph-name="tcommaaccent" horiz-adv-x="343" d="M494 -142Q494 -166 486 -188T466 -231T439 -268T410 -295L400 -292Q410 -280 419 -264T437 -230T451 -194T457 -158Q455 -159 452 -159Q450 -160 447 -160T440 -160Q424 -160 415 -149T406
-122Q406 -105 417 -94T445 -82Q468 -82 481 -97T494 -142ZM140 364V109Q140 78 161 56T224 33Q250 33 273 39T311 53L315 46Q295 25 264 8T190 -9Q157 -9 134 0T98 25T78 58T72 93V364H17V371L140 464V404H334L307 364H140Z" />
<glyph unicode="&#x164;" glyph-name="Tcaron" horiz-adv-x="630" d="M181 826L314 771L444 826L448 819L314 705L176 819L181 826ZM597 662V541H591L525 632H353V54L417 6V0H212V6L276 54V632H105L39 541H33V662H597Z" />
<glyph unicode="&#x165;" glyph-name="tcaron" horiz-adv-x="343" d="M193 511L216 715H275L204 511H193ZM140 364V109Q140 78 161 56T224 33Q250 33 273 39T311 53L315 46Q295 25 264 8T190 -9Q157 -9 134 0T98 25T78 58T72 93V364H17V371L140 464V404H334L307 364H140Z" />
<glyph unicode="&#x166;" glyph-name="Tbar" horiz-adv-x="630" d="M106 358V388H522V358H106ZM597 662V541H591L525 632H353V54L417 6V0H212V6L276 54V632H105L39 541H33V662H597Z" />
<glyph unicode="&#x167;" glyph-name="tbar" horiz-adv-x="347" d="M10 238V264H308V238H10ZM140 364V109Q140 78 161 56T224 33Q250 33 273 39T311 53L315 46Q295 25 264 8T190 -9Q157 -9 134 0T98 25T78 58T72 93V364H17V371L140 464V404H334L307 364H140Z" />
<glyph unicode="&#x168;" glyph-name="Utilde" horiz-adv-x="714" d="M618 233Q618 177 599 132T547 55T469 6T371 -11Q314 -11 264 2T177 45T119 121T97 234V610L31 656V662H239V656L174 610V234Q174 181 190 143T233 81T299 45T383 33Q430 33 467 48T529 89T568
153T582 235V610L518 656V662H683V656L618 610V233ZM329 800Q338 800 356 797T395 791T433 784T461 781Q469 781 478 787T497 801T513 817T526 830L531 827Q528 819 521 804T503 772T480 744T455 732Q443 732 425 735T387 741T351 748T325 751Q317 751 308 746T289
732T273 716T260 701L254 704Q258 713 265 729T283 760T305 788T329 800Z" />
<glyph unicode="&#x169;" glyph-name="utilde" horiz-adv-x="486" d="M17 370V377Q16 377 25 380T52 390T93 404T142 419V119Q142 87 163 62T230 36Q262 36 289 52T337 86V342L273 371V378Q272 378 283 381T313 391T356 404T406 419V59L473 34V27L403 9Q377 2
356 -3T337 -8V59Q327 49 313 38T281 16T242 -1T196 -8Q173 -8 151 -1T112 22T85 58T74 108V343L17 370ZM185 608Q194 608 210 604T244 595T277 586T301 582Q307 582 314 587T329 600T344 616T358 633L365 630Q361 618 354 602T337 570T318 544T298 533Q287 533
271 537T238 546T206 555T183 559Q171 559 155 542T126 509L119 512Q123 524 130 540T146 572T165 597T185 608Z" />
<glyph unicode="&#x16a;" glyph-name="Umacron" horiz-adv-x="714" d="M618 233Q618 177 599 132T547 55T469 6T371 -11Q314 -11 264 2T177 45T119 121T97 234V610L31 656V662H239V656L174 610V234Q174 181 190 143T233 81T299 45T383 33Q430 33 467 48T529 89T568
153T582 235V610L518 656V662H683V656L618 610V233ZM276 770H493V729H276V770Z" />
<glyph unicode="&#x16b;" glyph-name="umacron" horiz-adv-x="486" d="M17 370V377Q16 377 25 380T52 390T93 404T142 419V119Q142 87 163 62T230 36Q262 36 289 52T337 86V342L273 371V378Q272 378 283 381T313 391T356 404T406 419V59L473 34V27L403 9Q377 2
356 -3T337 -8V59Q327 49 313 38T281 16T242 -1T196 -8Q173 -8 151 -1T112 22T85 58T74 108V343L17 370ZM143 577H334V537H143V577Z" />
<glyph unicode="&#x16c;" glyph-name="Ubreve" horiz-adv-x="714" d="M618 233Q618 177 599 132T547 55T469 6T371 -11Q314 -11 264 2T177 45T119 121T97 234V610L31 656V662H239V656L174 610V234Q174 181 190 143T233 81T299 45T383 33Q430 33 467 48T529 89T568
153T582 235V610L518 656V662H683V656L618 610V233ZM378 715Q353 715 334 725T301 751T279 789T269 833L276 834Q290 805 315 787T378 768Q413 768 439 787T480 834L487 833Q485 811 477 790T456 753T423 726T378 715Z" />
<glyph unicode="&#x16d;" glyph-name="ubreve" horiz-adv-x="486" d="M17 370V377Q16 377 25 380T52 390T93 404T142 419V119Q142 87 163 62T230 36Q262 36 289 52T337 86V342L273 371V378Q272 378 283 381T313 391T356 404T406 419V59L473 34V27L403 9Q377 2
356 -3T337 -8V59Q327 49 313 38T281 16T242 -1T196 -8Q173 -8 151 -1T112 22T85 58T74 108V343L17 370ZM240 561Q270 561 293 580T327 633L335 632Q335 607 329 585T311 546T281 519T240 509Q191 509 168 543T145 632L153 633Q163 598 186 580T240 561Z" />
<glyph unicode="&#x16e;" glyph-name="Uring" horiz-adv-x="714" d="M618 233Q618 177 599 132T547 55T469 6T371 -11Q314 -11 264 2T177 45T119 121T97 234V610L31 656V662H239V656L174 610V234Q174 181 190 143T233 81T299 45T383 33Q430 33 467 48T529 89T568
153T582 235V610L518 656V662H683V656L618 610V233ZM335 756Q335 736 348 721T383 705Q404 705 417 720T431 756Q431 776 418 791T383 807Q361 807 348 792T335 756ZM307 756Q307 788 329 809T383 831Q415 831 437 810T459 756Q459 723 437 702T383 681Q351 681
329 701T307 756Z" />
<glyph unicode="&#x16f;" glyph-name="uring" horiz-adv-x="486" d="M185 574Q185 554 198 539T233 523Q254 523 267 538T281 574Q281 594 268 609T233 625Q211 625 198 610T185 574ZM157 574Q157 606 179 627T233 649Q265 649 287 628T309 574Q309 541 287 520T233
499Q201 499 179 519T157 574ZM17 370V377Q16 377 25 380T52 390T93 404T142 419V119Q142 87 163 62T230 36Q262 36 289 52T337 86V342L273 371V378Q272 378 283 381T313 391T356 404T406 419V59L473 34V27L403 9Q377 2 356 -3T337 -8V59Q327 49 313 38T281 16T242
-1T196 -8Q173 -8 151 -1T112 22T85 58T74 108V343L17 370Z" />
<glyph unicode="&#x170;" glyph-name="Uhungarumlaut" horiz-adv-x="714" d="M564 849L599 801L424 704L417 712L564 849ZM265 704L258 712L405 849L439 801L265 704ZM618 233Q618 177 599 132T547 55T469 6T371 -11Q314 -11 264 2T177 45T119 121T97 234V610L31
656V662H239V656L174 610V234Q174 181 190 143T233 81T299 45T383 33Q430 33 467 48T529 89T568 153T582 235V610L518 656V662H683V656L618 610V233Z" />
<glyph unicode="&#x171;" glyph-name="uhungarumlaut" horiz-adv-x="486" d="M17 370V377Q16 377 25 380T52 390T93 404T142 419V119Q142 87 163 62T230 36Q262 36 289 52T337 86V342L273 371V378Q272 378 283 381T313 391T356 404T406 419V59L473 34V27L403 9Q377
2 356 -3T337 -8V59Q327 49 313 38T281 16T242 -1T196 -8Q173 -8 151 -1T112 22T85 58T74 108V343L17 370ZM290 496L279 500L346 714L397 692L290 496ZM173 496L162 500L228 714L279 692L173 496Z" />
<glyph unicode="&#x172;" glyph-name="Uogonek" horiz-adv-x="714" d="M327 -183Q327 -156 339 -131T372 -81T419 -35T475 8Q454 0 429 -5T371 -11Q314 -11 264 2T177 45T119 121T97 234V610L31 656V662H239V656L174 610V234Q174 181 190 144T233 84T299 49T383
38Q430 38 467 52T529 92T568 154T582 235V610L518 656V662H683V656L618 610V233Q618 194 610 163T586 105T551 58T509 16Q486 -4 465 -26T426 -72T399 -121T389 -173Q389 -209 409 -226T462 -243Q479 -243 492 -239T512 -232L516 -237Q512 -240 505 -247T486 -262T460
-275T424 -281Q380 -281 354 -253T327 -183Z" />
<glyph unicode="&#x173;" glyph-name="uogonek" horiz-adv-x="486" d="M337 59Q327 49 313 38T281 16T242 -1T196 -8Q173 -8 151 -1T111 22T84 58T73 107V344L17 370V377Q16 377 25 381T52 391T93 405T142 420V119Q142 87 163 62T230 36Q262 36 289 53T337 88V343L273
370V377Q272 377 283 381T312 391T355 405T405 420V58L473 34V27Q449 20 427 15Q407 10 387 5T352 -3Q335 -19 318 -38T287 -79T264 -124T255 -173Q255 -209 275 -226T328 -243Q345 -243 358 -239T378 -232L382 -237Q378 -240 371 -247T352 -262T326 -275T290 -281Q246
-281 220 -253T193 -183Q193 -151 209 -122T247 -70T295 -28T337 1V59Z" />
<glyph unicode="&#x174;" glyph-name="Wcircumflex" horiz-adv-x="937" d="M501 830L635 716L631 709L501 764L368 709L363 716L501 830ZM451 610L513 457L577 610L526 656V662H668V656L612 610L529 418L658 107L841 610L769 656V662H931V656L876 610L648 -14H640L486
348L322 -14H314L61 610L7 656V662H212V656L141 610L341 105L468 388L374 610L319 656V662H501V656L451 610Z" />
<glyph unicode="&#x175;" glyph-name="wcircumflex" horiz-adv-x="631" d="M333 705L435 491L427 486L333 599L239 486L231 491L333 705ZM222 23Q217 10 212 -2Q209 -9 207 -15H200Q197 -8 193 1Q190 9 186 19T177 41L51 360L1 400V406H183V400L124 360L220 108L304
349L301 360L248 400V406H417V400L367 360L457 109L545 360L485 400V406H629V400L578 360L458 22Q456 18 454 12T450 0Q447 -7 444 -15H438Q436 -10 433 -2Q431 5 427 16T417 43L321 302L222 23V23Z" />
<glyph unicode="&#x176;" glyph-name="Ycircumflex" horiz-adv-x="587" d="M424 656V662H580V656L525 610L339 328V51L404 6V0H196V6L262 51V312L61 610L7 656V662H218V656L151 610L320 353L491 611L424 656ZM319 830L453 716L449 709L319 764L186 709L181 716L319 830Z" />
<glyph unicode="&#x177;" glyph-name="ycircumflex" horiz-adv-x="419" d="M185 -112Q162 -175 152 -215T139 -276H48V-271Q71 -249 102 -205T162 -89L200 9L51 359L1 400V406H185V400L127 359L233 96L331 359L269 400V406H418V400L367 359L185 -112ZM219 705L321
491L313 486L219 599L125 486L117 491L219 705Z" />
<glyph unicode="&#x178;" glyph-name="Ydieresis" horiz-adv-x="587" d="M424 656V662H580V656L525 610L339 328V51L404 6V0H196V6L262 51V312L61 610L7 656V662H218V656L151 610L320 353L491 611L424 656ZM367 767Q367 784 378 795T407 807Q423 807 435 796T447
767Q447 750 435 739T407 727Q390 727 379 738T367 767ZM191 767Q191 784 202 795T231 807Q247 807 259 796T271 767Q271 750 259 739T231 727Q214 727 203 738T191 767Z" />
<glyph unicode="&#x179;" glyph-name="Zacute" horiz-adv-x="627" d="M226 704L221 713L418 838L445 783L226 704ZM135 29H509L585 129H591V0H37V9L469 633H136L69 540H63V662H576V654L135 29Z" />
<glyph unicode="&#x17a;" glyph-name="zacute" horiz-adv-x="391" d="M176 497L167 502L269 712L325 677L176 497ZM365 104V0H22V6L265 381H110L52 307H46V406H357V403L107 25H299L359 104H365Z" />
<glyph unicode="&#x17b;" glyph-name="Zdotaccent" horiz-adv-x="627" d="M135 29H509L585 129H591V0H37V9L469 633H136L69 540H63V662H576V654L135 29ZM316 727Q299 727 287 739T274 769Q274 787 286 799T316 811Q333 811 345 799T358 769Q358 751 346 739T316 727Z" />
<glyph unicode="&#x17c;" glyph-name="zdotaccent" horiz-adv-x="391" d="M365 104V0H22V6L265 381H110L52 307H46V406H357V403L107 25H299L359 104H365ZM494 587Q494 569 482 557T452 545Q435 545 423 557T410 587Q410 605 422 617T452 629Q469 629 481 617T494 587Z" />
<glyph unicode="&#x17d;" glyph-name="Zcaron" horiz-adv-x="627" d="M188 826L321 771L451 826L455 819L321 705L183 819L188 826ZM135 29H509L585 129H591V0H37V9L469 633H136L69 540H63V662H576V654L135 29Z" />
<glyph unicode="&#x17e;" glyph-name="zcaron" horiz-adv-x="391" d="M360 704L454 591L548 704L556 699L454 485L352 699L360 704ZM365 104V0H22V6L265 381H110L52 307H46V406H357V403L107 25H299L359 104H365Z" />
<glyph unicode="&#x192;" glyph-name="florin" horiz-adv-x="417" d="M128 384L141 482Q144 513 156 546T190 608T247 654T329 672Q358 672 382 667T421 657L393 605Q382 613 360 625T312 638Q290 638 274 627T245 598T225 555T214 506L197 384H318L290 346H192Q183
280 176 222T160 103Q154 59 140 9T101 -83T38 -155T-54 -185L-69 -133Q-63 -134 -52 -135T-32 -136Q-6 -136 14 -127T49 -90T76 -12T97 118Q104 183 110 236T124 346H40V351L63 384H128Z" />
<glyph unicode="&#x1fa;" glyph-name="Aringacute" horiz-adv-x="633" d="M164 6V0H7V6L62 52L302 677H309L570 52L626 6V0H424V6L492 52L391 293H189L96 51L164 6ZM199 321H380L286 546L199 321ZM218 851L213 860L410 985L437 930L218 851ZM257 776Q257 756 270
741T305 725Q326 725 339 740T353 776Q353 796 340 811T305 827Q283 827 270 812T257 776ZM229 776Q229 808 251 829T305 851Q337 851 359 830T381 776Q381 743 359 722T305 701Q273 701 251 721T229 776Z" />
<glyph unicode="&#x1fb;" glyph-name="aringacute" horiz-adv-x="395" d="M252 551Q252 587 235 611T179 635Q150 635 134 622T112 601V545L41 565V570Q54 585 70 603T108 637T155 663T214 674Q264 674 291 647T319 580Q319 556 319 516T317 436T316 364T315 321Q332
309 350 300T390 286V280L333 241Q281 261 254 293Q245 286 233 278T206 262T178 249T150 244Q97 244 66 272T35 342Q35 371 48 387T72 408Q76 409 91 414T130 428T185 446T252 468V551ZM251 315Q251 345 251 374T252 436Q236 431 213 423T167 406T127 392T108
385Q104 383 102 375T99 355Q99 330 117 310T173 290Q201 290 221 298T251 315ZM137 662L128 667L230 877L286 842L137 662ZM397 824Q397 804 410 789T445 773Q466 773 479 788T493 824Q493 844 480 859T445 875Q423 875 410 860T397 824ZM369 824Q369 856 391
877T445 899Q477 899 499 878T521 824Q521 791 499 770T445 749Q413 749 391 769T369 824Z" />
<glyph unicode="&#x1fc;" glyph-name="AEacute" horiz-adv-x="856" d="M476 704L471 713L668 838L695 783L476 704ZM307 656V662H775V550H769L706 634H494V368H711L753 436H758V273H753L711 340H494V29H726L795 132H801V0H352V6L417 52V322H244L86 51L154 6V0H-6V6L49
52L374 610L307 656ZM260 350H417V619L260 350Z" />
<glyph unicode="&#x1fd;" glyph-name="aeacute" horiz-adv-x="589" d="M299 497L290 502L392 712L448 677L299 497ZM64 156Q68 158 84 163T124 177T180 196T245 219Q245 245 245 264T246 298Q246 336 230 358T175 380Q148 380 131 367T109 346V290L39 310V315Q52
330 68 348T106 382T152 408T209 419Q246 419 271 402T307 359Q333 385 363 400T426 416Q474 416 512 389T572 308V306L314 212Q315 171 327 140T360 86T408 52T465 40Q499 40 524 46T569 62L573 55Q564 46 549 35T514 14T472 -3T425 -10Q381 -10 345 8T284 61Q276
52 264 40T235 16T199 -3T159 -11Q99 -11 66 16T33 87Q33 117 43 134T64 156ZM175 35Q207 35 231 49T273 79Q246 126 245 190Q229 183 207 174T163 157T126 143T107 135Q103 133 100 124T97 101Q97 75 115 55T175 35ZM421 387Q407 387 390 378T357 351T330 306T315
241L493 311Q491 324 486 337T471 362T450 380T421 387Z" />
<glyph unicode="&#x1fe;" glyph-name="Oslashacute" horiz-adv-x="739" d="M44 323Q44 397 69 461T138 572T241 646T370 673Q417 673 459 661T539 626L590 705L614 691L563 610Q623 565 659 495T696 336Q696 262 671 199T601 89T497 16T369 -11Q273 -11 196 38L135
-58L111 -42L172 54Q113 99 79 167T44 323ZM610 330Q610 405 590 464T534 565L222 78Q284 18 369 18Q418 18 462 40T539 102T591 200T610 330ZM131 330Q131 257 149 199T201 100L514 586Q484 614 448 629T370 644Q320 644 276 622T200 559T150 460T131 330ZM265
704L260 713L457 838L484 783L265 704Z" />
<glyph unicode="&#x1ff;" glyph-name="oslashacute" horiz-adv-x="452" d="M26 198Q26 243 41 283T84 352T147 398T226 415Q280 415 327 387L374 460L398 446L350 370Q384 342 404 301T425 207Q425 161 410 122T368 53T305 7T226 -10Q172 -10 125 18L75 -60L49
-45L101 35Q67 63 47 104T26 198ZM351 203Q351 239 343 270T321 326L148 55Q181 19 226 19Q251 19 274 32T314 70T341 129T351 203ZM103 203Q103 166 110 136T130 81L303 351Q287 368 268 378T226 388Q200 388 178 374T139 335T113 276T103 203ZM170 497L161 502L263
712L319 677L170 497Z" />
<glyph unicode="&#x218;" glyph-name="Scommaaccent" horiz-adv-x="466" d="M278 -142Q278 -166 270 -188T250 -231T223 -268T194 -295L184 -292Q194 -280 203 -264T221 -230T235 -194T241 -158Q239 -159 236 -159Q234 -160 231 -160T224 -160Q208 -160 199 -149T190
-122Q190 -105 201 -94T229 -82Q252 -82 265 -97T278 -142ZM248 673Q298 673 328 666T373 652V569H369Q364 580 354 593T329 617T292 636T244 644Q196 644 165 617T134 545Q134 516 143 495T170 454T211 417T266 378Q298 355 326 334T376 288T409 235T421 171Q421
133 408 100T370 43T309 4T227 -10Q168 -10 125 3T55 33Q53 46 51 65T49 105T48 147T48 188H54Q58 170 68 142T97 86T147 40T227 20Q255 20 278 29T318 55T343 94T352 140Q352 169 344 192T320 235T280 274T223 315Q186 339 158 362T109 409T79 461T68 520Q68 555
81 583T118 632T175 662T248 673Z" />
<glyph unicode="&#x219;" glyph-name="scommaaccent" horiz-adv-x="320" d="M467 -142Q467 -166 459 -188T439 -231T412 -268T383 -295L373 -292Q383 -280 392 -264T410 -230T424 -194T430 -158Q428 -159 425 -159Q423 -160 420 -160T413 -160Q397 -160 388 -149T379
-122Q379 -105 390 -94T418 -82Q441 -82 454 -97T467 -142ZM167 416Q203 416 225 411T254 403V327H248Q245 335 239 345T222 365T197 380T163 387Q140 387 123 374T105 333Q105 302 125 286T180 247Q199 235 218 222T252 193T276 157T286 110Q286 59 251 25T151
-10Q113 -10 83 -2T38 14Q37 22 36 37T33 69T32 105T32 139H38Q43 120 52 99T75 60T108 31T153 19Q185 19 206 38T227 90Q227 124 204 144T141 188Q123 200 106 212T76 238T56 271T48 314Q48 338 57 357T83 389T121 409T167 416Z" />
<glyph unicode="&#x21a;" glyph-name="uni021A" horiz-adv-x="630" d="M363 -142Q363 -166 355 -188T335 -231T308 -268T279 -295L269 -292Q279 -280 288 -264T306 -230T320 -194T326 -158Q324 -159 321 -159Q319 -160 316 -160T309 -160Q293 -160 284 -149T275
-122Q275 -105 286 -94T314 -82Q337 -82 350 -97T363 -142ZM597 662V541H591L525 632H353V54L417 6V0H212V6L276 54V632H105L39 541H33V662H597Z" />
<glyph unicode="&#x21b;" glyph-name="uni021B" horiz-adv-x="343" d="M494 -142Q494 -166 486 -188T466 -231T439 -268T410 -295L400 -292Q410 -280 419 -264T437 -230T451 -194T457 -158Q455 -159 452 -159Q450 -160 447 -160T440 -160Q424 -160 415 -149T406
-122Q406 -105 417 -94T445 -82Q468 -82 481 -97T494 -142ZM140 364V109Q140 78 161 56T224 33Q250 33 273 39T311 53L315 46Q295 25 264 8T190 -9Q157 -9 134 0T98 25T78 58T72 93V364H17V371L140 464V404H334L307 364H140Z" />
<glyph unicode="&#x237;" glyph-name="uni0237" horiz-adv-x="213" d="M18 370V377Q17 376 27 380T54 390T94 404T143 419V56Q143 44 141 15T127 -55T89 -147T14 -252L3 -247Q40 -173 57 -97T74 58V343L18 370Z" />
<glyph unicode="&#x2c6;" glyph-name="circumflex" horiz-adv-x="400" d="M200 705L302 491L294 486L200 599L106 486L98 491L200 705Z" />
<glyph unicode="&#x2c7;" glyph-name="caron" horiz-adv-x="400" d="M106 704L200 591L294 704L302 699L200 485L98 699L106 704Z" />
<glyph unicode="&#x2d8;" glyph-name="breve" horiz-adv-x="400" d="M200 561Q230 561 253 580T287 633L295 632Q295 607 289 585T271 546T241 519T200 509Q151 509 128 543T105 632L113 633Q123 598 146 580T200 561Z" />
<glyph unicode="&#x2d9;" glyph-name="dotaccent" horiz-adv-x="400" d="M242 587Q242 569 230 557T200 545Q183 545 171 557T158 587Q158 605 170 617T200 629Q217 629 229 617T242 587Z" />
<glyph unicode="&#x2da;" glyph-name="ring" horiz-adv-x="400" d="M152 574Q152 554 165 539T200 523Q221 523 234 538T248 574Q248 594 235 609T200 625Q178 625 165 610T152 574ZM124 574Q124 606 146 627T200 649Q232 649 254 628T276 574Q276 541 254 520T200
499Q168 499 146 519T124 574Z" />
<glyph unicode="&#x2db;" glyph-name="ogonek" horiz-adv-x="400" d="M202 -281Q158 -281 132 -253T106 -183Q106 -151 122 -123T160 -70T207 -29T248 0H267Q250 -16 233 -35T201 -77T177 -123T167 -173Q167 -209 187 -226T241 -243Q257 -243 270 -239T290 -232L294
-237Q290 -240 283 -247T264 -262T238 -275T202 -281Z" />
<glyph unicode="&#x2dc;" glyph-name="tilde" horiz-adv-x="400" d="M143 608Q152 608 168 604T202 595T235 586T259 582Q265 582 272 587T287 600T302 616T316 633L323 630Q319 618 312 602T295 570T276 544T256 533Q245 533 229 537T196 546T164 555T141 559Q129
559 113 542T84 509L77 512Q81 524 88 540T104 572T123 597T143 608Z" />
<glyph unicode="&#x2dd;" glyph-name="hungarumlaut" horiz-adv-x="400" d="M213 496L202 500L269 714L320 692L213 496ZM96 496L85 500L151 714L202 692L96 496Z" />
</font>
</defs>
</svg>
