<?xml version="1.0" standalone="no"?>
<!DOCTYPE svg PUBLIC "-//W3C//DTD SVG 1.1//EN" "http://www.w3.org/Graphics/SVG/1.1/DTD/svg11.dtd" >
<svg xmlns="http://www.w3.org/2000/svg" xmlns:xlink="http://www.w3.org/1999/xlink" version="1.1">
<metadata>
Created by FontForge 20161003 at Mon Aug 27 22:28:26 2018
 By www-data

</metadata>
<defs>
<font id="SerifMono-Regular" horiz-adv-x="600" >
  <font-face 
    font-family="SerifMono"
    font-weight="400"
    font-stretch="normal"
    units-per-em="1000"
    panose-1="0 0 0 0 0 0 0 0 0 0"
    ascent="810"
    descent="-190"
    x-height="480"
    cap-height="700"
    bbox="25 -210 575 800"
    underline-thickness="0"
    underline-position="0"
    unicode-range="U+0020-FB02"
  />
<missing-glyph horiz-adv-x="500" 
d="M50 -190v990h400v-990h-400zM100 -140h300v890h-300v-890z" />
    <glyph glyph-name=".notdef" horiz-adv-x="500" 
d="M50 -190v990h400v-990h-400zM100 -140h300v890h-300v-890z" />
    <glyph glyph-name="space" unicode=" " 
 />
    <glyph glyph-name="exclam" unicode="!" 
d="M323 700l-8 -472h-31l-8 472h47zM251 45c0 32 22 56 48 56c27 0 49 -24 49 -56c0 -31 -22 -55 -49 -55c-26 0 -48 24 -48 55z" />
    <glyph glyph-name="parenleft" unicode="(" 
d="M369 -146c-93 142 -144 295 -144 473s51 331 144 473h35c-91 -132 -139 -324 -139 -473c0 -150 49 -341 140 -473h-36z" />
    <glyph glyph-name="parenright" unicode=")" 
d="M231 -146h-36c91 132 140 323 140 473c0 149 -48 341 -139 473h35c93 -142 144 -295 144 -473s-51 -331 -144 -473z" />
    <glyph glyph-name="comma" unicode="," 
d="M348 45c0 -82 -49 -132 -103 -132v28c34 0 60 24 69 54c-4 -3 -9 -5 -15 -5c-26 0 -48 25 -48 55c0 31 22 56 48 56c27 0 49 -25 49 -56z" />
    <glyph glyph-name="hyphen" unicode="-" 
d="M455 336v-34h-310v34h310z" />
    <glyph glyph-name="period" unicode="." 
d="M251 45c0 32 22 56 48 56c27 0 49 -24 49 -56c0 -31 -22 -55 -49 -55c-26 0 -48 24 -48 55z" />
    <glyph glyph-name="zero" unicode="0" 
d="M300 -19c-106 0 -195 123 -195 370c0 246 89 368 195 368s195 -122 195 -368c0 -247 -89 -370 -195 -370zM300 692c-83 0 -154 -107 -154 -341c0 -238 71 -343 154 -343s154 104 154 343c0 235 -71 341 -154 341zM252 354c0 32 22 56 48 56c27 0 49 -24 49 -56
c0 -31 -22 -55 -49 -55c-26 0 -48 24 -48 55z" />
    <glyph glyph-name="one" unicode="1" 
d="M335 719l-1 -652c0 -26 13 -38 42 -40l119 -7v-20h-390v20l153 7c26 1 40 14 40 40l1 510h-167v20l133 11c27 2 38 15 40 41l5 70h25z" />
    <glyph glyph-name="two" unicode="2" 
d="M159 515h-43c0 109 69 199 186 199c110 0 173 -81 173 -177c0 -101 -56 -163 -114 -238l-211 -273h279l32 159h19l-13 -185h-367v22l240 308c59 76 97 129 97 206c0 79 -46 152 -137 152c-96 0 -141 -78 -141 -173z" />
    <glyph glyph-name="three" unicode="3" 
d="M149 175c0 -90 49 -163 152 -163c101 0 152 86 152 181c0 91 -64 169 -160 169c-11 0 -20 0 -32 -6l-22 21l191 285h-298v38h337v-29l-188 -285c3 1 7 1 12 1c123 0 202 -84 202 -195c0 -113 -70 -206 -192 -206c-125 0 -198 85 -198 189h44z" />
    <glyph glyph-name="four" unicode="4" 
d="M349 180h-264v30l265 495h35v-489h100v-36h-100v-112c0 -26 13 -37 40 -41l60 -8v-19h-282v19l106 10c27 3 40 15 40 41v110zM349 216v431l-227 -431h227z" />
    <glyph glyph-name="five" unicode="5" 
d="M165 348l-17 13l21 339h286v-40h-261l-16 -276c28 15 65 28 113 28c129 0 204 -79 204 -207c0 -129 -74 -219 -200 -219c-121 0 -190 85 -190 189h45c0 -89 48 -162 144 -162c106 0 160 82 160 192c0 107 -61 179 -163 179c-44 0 -93 -14 -126 -36z" />
    <glyph glyph-name="eight" unicode="8" 
d="M300 -17c-119 0 -190 73 -190 170c0 111 78 166 156 217c-65 47 -123 100 -123 194c0 81 66 148 157 148c92 0 157 -67 157 -148c0 -93 -58 -145 -123 -190c78 -52 156 -108 156 -221c0 -97 -71 -170 -190 -170zM181 566c0 -82 58 -128 125 -173c63 43 117 91 117 173
c0 59 -43 120 -121 120c-79 0 -121 -61 -121 -120zM297 12c92 0 151 64 151 140c0 98 -77 147 -154 199c-77 -51 -150 -101 -150 -199c0 -76 62 -140 153 -140z" />
    <glyph glyph-name="colon" unicode=":" 
d="M251 435c0 32 22 56 48 56c27 0 49 -24 49 -56c0 -31 -22 -55 -49 -55c-26 0 -48 24 -48 55zM251 45c0 32 22 56 48 56c27 0 49 -24 49 -56c0 -31 -22 -55 -49 -55c-26 0 -48 24 -48 55z" />
    <glyph glyph-name="semicolon" unicode=";" 
d="M251 435c0 32 22 56 48 56c27 0 49 -24 49 -56c0 -31 -22 -55 -49 -55c-26 0 -48 24 -48 55zM348 45c0 -82 -49 -132 -103 -132v28c34 0 60 24 69 54c-4 -3 -9 -5 -15 -5c-26 0 -48 25 -48 55c0 31 22 56 48 56c27 0 49 -25 49 -56z" />
    <glyph glyph-name="question" unicode="?" 
d="M314 228h-28c0 148 163 168 163 313c0 79 -47 150 -144 150c-104 0 -149 -88 -149 -173h-40c0 89 58 197 191 197c116 0 181 -80 181 -173c0 -162 -174 -181 -174 -314zM251 45c0 32 22 56 48 56c27 0 49 -24 49 -56c0 -31 -22 -55 -49 -55c-26 0 -48 24 -48 55z" />
    <glyph glyph-name="at" unicode="@" 
d="M197 290c0 131 44 211 91 211c26 0 47 -21 62 -62v53h34v-242c0 -106 20 -139 39 -139c34 0 50 95 50 251c0 222 -80 346 -167 346c-91 0 -177 -145 -177 -406c0 -263 90 -410 177 -410v-26c-108 0 -216 158 -216 436c0 277 108 433 216 433c102 0 204 -135 204 -373
c0 -191 -39 -277 -89 -277c-24 0 -52 20 -64 80c-15 -55 -39 -85 -69 -85c-47 0 -91 82 -91 210zM237 290c0 -110 26 -180 56 -180c31 0 57 70 57 180c0 113 -26 181 -57 181c-30 0 -56 -68 -56 -181z" />
    <glyph glyph-name="A" unicode="A" 
d="M261 17v-18l-211 1v18l40 7c34 6 44 15 50 41l143 644h44l133 -644c5 -26 16 -35 50 -41l40 -7v-18h-228v18l66 7c20 2 35 17 30 41l-37 186h-168l-40 -187c-5 -24 10 -39 30 -41zM302 667h-4l-15 -88l-64 -301h157l-60 301z" />
    <glyph glyph-name="B" unicode="B" 
d="M525 199c0 -119 -90 -199 -224 -199h-216v19l65 7c27 2 40 15 40 41v566c0 26 -13 38 -40 41l-65 7v19h243c97 0 162 -72 162 -164c0 -78 -41 -140 -108 -167c87 -16 143 -82 143 -170zM226 376h74c92 0 150 67 150 159c0 82 -49 140 -130 140h-94v-299zM226 351v-326h69
c116 0 188 72 188 173c0 90 -57 153 -153 153h-104z" />
    <glyph glyph-name="C" unicode="C" 
d="M505 51c-21 -16 -81 -65 -175 -65c-128 0 -235 121 -235 365c0 243 107 363 235 363c94 0 154 -42 175 -58v-160h-19c0 145 -51 193 -156 193s-194 -104 -194 -333c0 -239 89 -345 194 -345c98 0 156 58 156 195h19v-155z" />
    <glyph glyph-name="D" unicode="D" 
d="M195 67v566c0 26 -13 38 -40 41l-60 7v19h195c137 0 235 -138 235 -345c0 -211 -98 -355 -235 -355h-195v19l60 7c27 2 40 15 40 41zM292 672h-61v-644h61c116 0 194 122 194 322s-78 322 -194 322z" />
    <glyph glyph-name="E" unicode="E" 
d="M226 636v-268h77c26 -1 38 12 41 39l7 71h20v-256h-20l-7 80c-2 27 -15 40 -41 40h-77v-278c0 -30 13 -39 39 -39h100c54 0 79 19 92 76l24 108h20l-23 -209h-393v19l65 7c27 2 40 15 40 41v566c0 26 -13 39 -40 41l-65 7v19h398v-209h-20l-12 113c-6 53 -24 71 -76 71
h-110c-26 0 -39 -9 -39 -39z" />
    <glyph glyph-name="F" unicode="F" 
d="M236 636v-268h99c26 -1 38 12 41 39l7 71h20v-256h-20l-7 80c-2 27 -15 40 -41 40h-99v-275c0 -26 13 -40 40 -41l130 -7v-19h-321v19l75 7c27 3 40 15 40 41v566c0 26 -13 39 -40 41l-75 7v19h430v-209h-20l-12 113c-6 53 -24 71 -76 71h-132c-26 0 -39 -9 -39 -39z" />
    <glyph glyph-name="G" unicode="G" 
d="M472 0h-21l-5 73c-23 -41 -71 -87 -146 -87c-117 0 -215 121 -215 365c0 243 98 363 215 363c83 0 135 -38 155 -53v-160h-19c0 141 -44 188 -136 188c-94 0 -174 -104 -174 -333c0 -239 80 -345 174 -345c85 0 136 58 136 195v57c0 26 -13 39 -40 41l-110 7v19h266v-19
l-40 -7c-27 -5 -40 -15 -40 -41v-263z" />
    <glyph glyph-name="H" unicode="H" 
d="M155 66v568c0 26 -13 37 -40 41l-50 7v18h206v-18l-40 -7c-27 -5 -40 -15 -40 -41v-266h218v266c0 26 -13 36 -40 41l-40 7v18h206v-18l-50 -7c-27 -4 -40 -15 -40 -41v-568c0 -26 13 -37 40 -41l50 -7v-18h-206v18l40 7c27 5 40 15 40 41v276h-218v-276
c0 -26 13 -36 40 -41l40 -7v-18h-206v18l50 7c27 4 40 15 40 41z" />
    <glyph glyph-name="I" unicode="I" 
d="M287 67v566c0 26 -13 40 -40 41l-132 7v19h370v-19l-122 -7c-27 -2 -40 -15 -40 -41v-566c0 -26 13 -39 40 -41l122 -7v-19h-370v19l132 7c27 1 40 15 40 41z" />
    <glyph glyph-name="J" unicode="J" 
d="M117 174c0 -107 55 -168 126 -168c85 0 135 62 135 163v464c0 26 -13 40 -40 41l-130 7v19h321v-19l-75 -7c-27 -3 -40 -15 -40 -41v-464c0 -120 -64 -186 -171 -186c-98 0 -168 68 -168 191h42z" />
    <glyph glyph-name="K" unicode="K" 
d="M125 67v566c0 26 -13 36 -40 41l-40 7v19h206v-19l-50 -7c-27 -4 -40 -15 -40 -41v-348l251 348c16 22 7 38 -20 41l-60 7v19h207v-19l-30 -7c-27 -6 -44 -20 -60 -41l-156 -214l172 -352c11 -22 33 -35 60 -41l30 -7v-19h-210v19l60 7c27 3 32 17 20 41l-155 320
l-109 -150v-170c0 -26 13 -37 40 -41l50 -7v-19h-206v19l40 7c27 5 40 15 40 41z" />
    <glyph glyph-name="L" unicode="L" 
d="M451 101l24 108h20l-23 -209h-372v19l55 7c27 2 40 15 40 41v566c0 26 -13 38 -40 41l-55 7v19h271v-19l-100 -7c-27 -2 -40 -15 -40 -41v-569c0 -30 13 -39 39 -39h94c51 0 74 19 87 76z" />
    <glyph glyph-name="M" unicode="M" 
d="M304 76l12 80l112 544h127v-18l-40 -7c-27 -5 -40 -15 -40 -41v-569c0 -26 13 -36 40 -41l40 -7v-17h-183v17l30 7c27 6 40 15 40 41v469l6 128h-4l-21 -128l-115 -542h-21l-116 549l-17 121h-4l4 -121v-476c0 -26 13 -35 40 -41l30 -7v-17h-179v17l40 7
c27 5 40 15 40 41v569c0 26 -13 36 -40 41l-40 7v18h131l111 -544l11 -80h6z" />
    <glyph glyph-name="N" unicode="N" 
d="M195 657h-5l5 -124v-467c0 -26 13 -38 40 -41l55 -7v-18h-225v18l60 7c27 3 40 15 40 41v568c0 26 -13 38 -40 41l-60 7v18h146l169 -487l40 -138h4l-5 137v422c0 26 -13 38 -40 41l-60 7v18h220v-18l-50 -7c-27 -4 -40 -15 -40 -41v-642h-30l-189 541z" />
    <glyph glyph-name="O" unicode="O" 
d="M300 -19c-106 0 -195 123 -195 370c0 246 89 368 195 368s195 -122 195 -368c0 -247 -89 -370 -195 -370zM300 692c-83 0 -154 -107 -154 -341c0 -238 71 -343 154 -343s154 104 154 343c0 235 -71 341 -154 341z" />
    <glyph glyph-name="P" unicode="P" 
d="M65 700h271c107 0 179 -93 179 -215c0 -135 -85 -234 -211 -234h-88v-184c0 -26 13 -40 40 -41l150 -7v-19h-341v19l75 7c27 3 40 15 40 41v566c0 26 -13 38 -40 41l-75 7v19zM216 276h82c109 0 177 86 177 208c0 112 -55 191 -147 191h-112v-399z" />
    <glyph glyph-name="Q" unicode="Q" 
d="M300 -19c-106 0 -195 123 -195 370c0 246 89 368 195 368s195 -122 195 -368c0 -143 -30 -245 -76 -305l80 -151l-21 -13l-85 135c-28 -24 -60 -36 -93 -36zM300 692c-83 0 -154 -107 -154 -341c0 -238 71 -343 154 -343c28 0 54 12 77 36l-92 171l22 13l94 -151
c32 55 53 145 53 274c0 235 -71 341 -154 341z" />
    <glyph glyph-name="R" unicode="R" 
d="M65 700h238c104 0 174 -82 174 -190c0 -94 -51 -169 -132 -197l95 -246c9 -24 33 -38 60 -41l55 -7v-19h-128l-115 305c-13 -3 -27 -4 -41 -4h-65v-235c0 -26 13 -39 40 -41l90 -7v-18h-271v18l65 7c27 3 40 15 40 41v567c0 26 -13 38 -40 41l-65 7v19zM206 326h59
c106 0 172 76 172 183c0 97 -53 166 -142 166h-89v-349z" />
    <glyph glyph-name="S" unicode="S" 
d="M173 198c0 -143 38 -186 123 -186c70 0 116 61 116 135c0 214 -257 172 -257 405c0 85 61 160 146 160c58 0 100 -29 123 -45v-158h-20c0 134 -36 177 -104 177c-72 0 -109 -66 -109 -130c0 -207 259 -163 259 -401c0 -97 -59 -172 -158 -172c-67 0 -112 35 -142 58v157
h23z" />
    <glyph glyph-name="T" unicode="T" 
d="M106 700h388l10 -209h-20l-14 118c-6 50 -27 66 -64 66h-88v-608c0 -26 13 -39 40 -41l90 -7v-19h-306v19l100 7c27 2 40 15 40 41v608h-88c-37 0 -58 -17 -64 -66l-14 -118h-20z" />
    <glyph glyph-name="U" unicode="U" 
d="M446 220v414c0 26 -9 37 -40 41l-55 7v18h204v-18l-40 -7c-27 -5 -40 -15 -40 -41v-414c0 -157 -80 -235 -175 -235s-175 78 -175 235v414c0 26 -13 36 -40 41l-40 7v18h211v-18l-55 -7c-27 -3 -40 -15 -40 -41v-414c0 -141 64 -203 139 -203c78 0 146 62 146 203z" />
    <glyph glyph-name="V" unicode="V" 
d="M316 -5h-23l-178 643c-10 22 -13 33 -40 38l-40 7v17h218v-17l-60 -7c-27 -3 -46 -15 -40 -38l137 -491l15 -84h4l15 83l128 492c6 23 -13 35 -40 38l-58 7v17h211v-17l-40 -7c-27 -5 -34 -15 -40 -38z" />
    <glyph glyph-name="W" unicode="W" 
d="M279 700h46l75 -518l13 -140h4l12 141l60 452c3 25 -8 37 -30 41l-37 6v18h153v-18l-25 -6c-21 -5 -27 -16 -30 -41l-85 -635h-43l-80 550l-9 109h-4l-11 -109l-79 -550h-44l-85 635c-3 25 -9 36 -30 41l-25 6v18h156v-18l-37 -6c-22 -4 -33 -16 -30 -41l62 -453l11 -138
h4l14 139z" />
    <glyph glyph-name="X" unicode="X" 
d="M177 62c-10 -22 13 -34 40 -38l50 -7v-17h-202v17l40 7c27 5 30 16 40 38l137 300l-123 276c-10 22 -13 34 -40 38l-50 7v17h209v-17l-40 -7c-27 -5 -50 -16 -40 -38l104 -233l107 233c10 22 -13 33 -40 38l-40 7v17h202v-17l-50 -7c-27 -4 -30 -16 -40 -38l-123 -269
l137 -307c10 -22 13 -33 40 -38l40 -7v-17h-209v17l50 7c27 4 50 16 40 38l-118 264z" />
    <glyph glyph-name="Y" unicode="Y" 
d="M455 19v-19h-310v19l102 7c27 2 40 15 40 41v209l-172 362c-10 22 -13 33 -40 38l-40 7v17h208v-17l-50 -7c-27 -4 -50 -16 -40 -38l155 -322l143 322c10 22 -13 34 -40 38l-48 7v17h202v-17l-40 -7c-27 -5 -30 -16 -40 -38l-162 -359v-212c0 -26 13 -39 40 -41z" />
    <glyph glyph-name="Z" unicode="Z" 
d="M485 163v-163h-370v34l337 633h-270c-26 0 -39 -13 -41 -40l-7 -90h-19v163h370v-34l-335 -633h269c25 0 38 12 40 40l8 90h18z" />
    <glyph glyph-name="a" unicode="a" 
d="M453 333v-259c0 -26 14 -43 38 -46l55 -7v-18l-127 -14v113c-39 -77 -103 -117 -172 -117c-82 0 -126 42 -126 106c0 73 53 108 137 134l161 50v58c0 102 -48 137 -122 137c-80 0 -128 -53 -128 -147h-44c0 101 66 171 177 171c100 0 151 -61 151 -161zM162 98
c0 -50 33 -82 91 -82c61 0 130 45 166 116v120l-151 -51c-81 -27 -106 -59 -106 -103z" />
    <glyph glyph-name="b" unicode="b" 
d="M160 0h-17v649c0 26 -14 44 -38 46l-75 5v18l147 12v-313c25 46 76 80 134 80c106 0 189 -79 189 -252c0 -153 -85 -251 -195 -251c-62 0 -107 24 -134 64zM310 469c-48 0 -97 -24 -133 -83v-296c27 -47 74 -70 129 -70c85 0 154 81 154 223c0 163 -69 226 -150 226z" />
    <glyph glyph-name="c" unicode="c" 
d="M325 495c65 0 111 -29 139 -44v-126h-15c0 97 -48 145 -130 145c-83 0 -169 -84 -169 -229c-1 -162 83 -228 170 -228c71 0 120 36 153 96l16 -9c-30 -70 -84 -122 -176 -122c-118 0 -203 102 -201 260c0 147 94 257 213 257z" />
    <glyph glyph-name="d" unicode="d" 
d="M442 730v-651c0 -26 14 -44 38 -46l65 -5v-18l-137 -12v76c-25 -46 -76 -80 -134 -80c-106 0 -189 79 -189 252c0 153 85 251 195 251c58 0 101 -21 128 -56v208c0 26 -14 44 -38 46l-75 5v18zM125 248c0 -163 69 -226 150 -226c48 0 97 24 133 83v296
c-27 47 -74 70 -129 70c-85 0 -154 -81 -154 -223z" />
    <glyph glyph-name="e" unicode="e" 
d="M105 238c0 147 93 257 212 257c98 0 168 -71 168 -194v-13h-337c-2 -15 -3 -31 -3 -47c0 -156 88 -227 181 -227c72 0 121 35 153 95l16 -9c-29 -70 -84 -122 -176 -122c-125 0 -214 102 -214 260zM309 472c-73 0 -137 -64 -157 -164l293 9c-2 102 -54 155 -136 155z" />
    <glyph glyph-name="f" unicode="f" 
d="M85 470l130 11v53c0 126 93 189 187 189c42 0 84 -9 115 -22l-1 -31c-30 6 -79 15 -115 15c-85 0 -152 -53 -152 -149v-56h190v-26h-190v-387c0 -26 13 -40 40 -41l150 -7v-19h-374v19l110 7c27 2 40 15 40 41v387h-130v16z" />
    <glyph glyph-name="g" unicode="g" 
d="M277 124c-35 0 -66 11 -90 31c-38 -23 -55 -55 -55 -73c0 -36 24 -53 63 -53h169c91 0 147 -36 147 -103c0 -83 -110 -124 -231 -124c-144 0 -215 39 -215 101c0 43 33 84 78 98c-31 12 -50 32 -50 70c0 39 28 62 78 98c-30 33 -47 81 -47 139c0 107 61 186 153 186
c23 0 44 -5 63 -14h187v-24h-152c35 -33 55 -86 55 -148c0 -109 -61 -184 -153 -184zM277 472c-70 0 -112 -67 -112 -164c0 -99 42 -162 112 -162s112 63 112 162c0 97 -42 164 -112 164zM358 -1h-195c-32 -26 -56 -56 -56 -90c0 -50 60 -85 173 -85c95 0 193 35 193 99
c0 46 -51 76 -115 76z" />
    <glyph glyph-name="h" unicode="h" 
d="M88 25c27 3 40 15 40 41v583c0 26 -14 43 -38 46l-45 5v18l117 12v-329c27 47 69 95 139 95c66 0 121 -52 121 -126v-304c0 -26 13 -38 40 -41l48 -6v-19h-207v19l45 6c27 4 40 15 40 41v302c0 55 -35 95 -94 95c-54 0 -99 -35 -132 -88v-309c0 -26 13 -36 40 -41l35 -6
v-19h-197v19z" />
    <glyph glyph-name="i" unicode="i" 
d="M244 665c0 32 22 56 48 56c27 0 49 -24 49 -56c0 -31 -22 -55 -49 -55c-26 0 -48 24 -48 55zM243 26c27 1 40 15 40 41v341c0 26 -14 45 -38 46l-95 5v18l167 12v-422c0 -26 13 -40 40 -41l138 -7v-19h-390v19z" />
    <glyph glyph-name="j" unicode="j" 
d="M344 665c0 32 22 56 48 56c27 0 49 -24 49 -56c0 -31 -22 -55 -49 -55c-26 0 -48 24 -48 55zM383 10v398c0 26 -14 45 -38 46l-95 5v18l167 12v-482c0 -154 -93 -207 -176 -207c-60 0 -100 21 -117 36v33c32 -18 65 -29 118 -29c72 0 141 34 141 170z" />
    <glyph glyph-name="k" unicode="k" 
d="M135 26c27 3 40 15 40 41v582c0 26 -14 44 -38 46l-65 5v18l137 12v-547l203 246c11 14 7 23 -8 25l-67 7v19h212v-19l-40 -6c-36 -5 -48 -14 -70 -41l-105 -124l131 -224c20 -25 29 -35 60 -41l30 -6v-19h-189v19l58 7c11 1 19 10 11 24l-123 213l-103 -122v-75
c0 -25 13 -36 40 -40l50 -7v-19h-234v19z" />
    <glyph glyph-name="l" unicode="l" 
d="M243 26c27 1 40 15 40 41v582c0 26 -14 45 -38 46l-95 5v18l167 12v-663c0 -26 13 -40 40 -41l138 -7v-19h-390v19z" />
    <glyph glyph-name="m" unicode="m" 
d="M65 22c27 5 40 15 40 41v346c0 26 -14 42 -38 46l-32 5v18l104 12v-60c22 36 54 66 102 66c41 0 72 -28 80 -68c22 37 54 68 103 68c47 0 81 -36 81 -86v-347c0 -26 14 -33 40 -41l20 -6v-16h-154v16l20 6c27 8 40 15 40 41v345c0 31 -23 55 -54 55
c-32 0 -67 -17 -95 -59v-341c0 -26 14 -33 40 -41l20 -6v-16h-154v16l20 6c27 8 40 15 40 41v345c0 31 -23 55 -54 55c-32 0 -67 -17 -95 -59v-341c0 -26 13 -33 40 -41l20 -6v-16h-164v16z" />
    <glyph glyph-name="n" unicode="n" 
d="M113 25c27 3 40 15 40 41v343c0 26 -14 44 -36 46l-47 5v18l117 12v-89c27 47 69 95 139 95c66 0 121 -52 121 -126v-304c0 -26 13 -38 40 -41l48 -6v-19h-207v19l45 6c27 4 40 15 40 41v302c0 55 -35 95 -94 95c-54 0 -99 -35 -132 -88v-309c0 -26 13 -36 40 -41l35 -6
v-19h-197v19z" />
    <glyph glyph-name="o" unicode="o" 
d="M300 -16c-120 0 -215 103 -215 254c0 149 95 252 215 252s215 -102 215 -252c0 -151 -95 -254 -215 -254zM300 465c-96 0 -172 -90 -172 -227c0 -140 76 -229 172 -229s172 89 172 229c0 137 -76 227 -172 227z" />
    <glyph glyph-name="p" unicode="p" 
d="M133 -175c27 3 40 15 40 41v543c0 26 -14 44 -38 46l-65 5v18l137 12v-76c25 46 76 80 134 80c106 0 189 -79 189 -252c0 -153 -85 -251 -195 -251c-58 0 -101 21 -128 56v-181c0 -26 13 -40 40 -41l145 -6v-19h-319v19zM340 466c-48 0 -97 -24 -133 -83v-296
c27 -47 74 -70 129 -70c85 0 154 81 154 223c0 163 -69 226 -150 226z" />
    <glyph glyph-name="q" unicode="q" 
d="M408 -210v284c-25 -46 -76 -80 -134 -80c-106 0 -189 79 -189 252c0 153 85 251 195 251c62 0 106 -24 133 -63l11 66h18v-629c0 -26 14 -44 38 -46l65 -5v-18zM125 248c0 -163 69 -226 150 -226c48 0 97 24 133 83v296c-27 47 -74 70 -129 70c-85 0 -154 -81 -154 -223z
" />
    <glyph glyph-name="r" unicode="r" 
d="M168 25c27 2 40 15 40 41v343c0 26 -14 44 -38 46l-75 5v18l147 12v-119c34 76 106 125 189 125c39 0 68 -5 84 -11v-32c-19 3 -51 7 -85 7c-87 0 -157 -52 -188 -130v-264c0 -26 13 -40 40 -41l125 -6v-19h-309v19z" />
    <glyph glyph-name="s" unicode="s" 
d="M153 168c0 -117 50 -165 140 -165c85 0 139 44 139 97c0 155 -296 93 -296 269c0 70 68 129 167 129c66 0 114 -28 142 -43v-126h-15c0 97 -48 145 -130 145c-88 0 -130 -51 -130 -99c0 -139 300 -96 300 -264c0 -75 -66 -132 -181 -132c-72 0 -121 31 -154 52v137h18z
" />
    <glyph glyph-name="t" unicode="t" 
d="M220 480h245v-26h-246v-293c0 -92 59 -138 145 -138c72 0 112 24 150 57l11 -13c-34 -39 -85 -78 -168 -78c-109 0 -172 64 -172 166v299h-110v23c91 0 121 32 121 91h24v-88z" />
    <glyph glyph-name="u" unicode="u" 
d="M418 -11v93c-28 -49 -77 -99 -154 -99c-64 0 -116 48 -116 116v310c0 26 -14 44 -38 46l-55 5v18l127 12v-389c0 -49 33 -85 89 -85c52 0 111 35 147 92v301c0 26 -14 44 -38 46l-55 5v18l127 12v-416c0 -26 14 -43 38 -46l55 -7v-18z" />
    <glyph glyph-name="v" unicode="v" 
d="M480 414l-164 -414h-34l-162 414c-10 25 -17 35 -50 41l-35 6v19h210v-19l-57 -6c-21 -2 -39 -17 -30 -41l145 -375l146 375c11 24 -9 39 -30 41l-67 6v19h213v-19l-35 -6c-33 -6 -40 -16 -50 -41z" />
    <glyph glyph-name="w" unicode="w" 
d="M302 437l-15 -107l-65 -330h-35l-72 416c-4 26 -13 36 -40 41l-35 6v17h184v-17l-47 -6c-21 -3 -34 -17 -30 -41l48 -276l12 -102h3l13 101l67 341h33l63 -334l13 -108h3l16 108l50 270c5 27 -9 40 -30 41l-57 6v17h179v-17l-25 -6c-27 -5 -35 -15 -40 -41l-79 -416h-34
l-64 331l-13 106h-3z" />
    <glyph glyph-name="x" unicode="x" 
d="M75 19l30 6c31 6 43 14 60 41l115 177l-111 171c-17 27 -29 35 -60 41l-30 6v19h189v-19l-47 -6c-17 -2 -28 -16 -17 -33l96 -148l96 148c11 17 0 31 -17 33l-47 6v19h185v-19l-30 -6c-31 -6 -43 -14 -60 -41l-109 -168l117 -180c17 -27 29 -35 60 -41l30 -6v-19h-189v19
l47 6c17 2 28 16 17 33l-102 157l-102 -157c-11 -17 0 -31 17 -33l47 -6v-19h-185v19z" />
    <glyph glyph-name="y" unicode="y" 
d="M182 414l118 -365l132 365c9 24 -9 39 -30 41l-65 6v19h213v-19l-35 -6c-33 -6 -41 -16 -50 -41l-171 -463c-28 -76 -78 -111 -134 -111c-41 0 -73 16 -87 28v32c25 -16 52 -21 88 -21c35 0 85 20 107 81l15 43l-138 411c-8 25 -17 37 -50 41l-45 6v19h217v-19l-55 -6
c-21 -2 -38 -17 -30 -41z" />
    <glyph glyph-name="z" unicode="z" 
d="M470 163v-163h-340v34l302 413h-230c-26 0 -39 -13 -41 -40l-7 -90h-19v163h335v-34l-300 -413h234c25 0 38 12 40 40l8 90h18z" />
    <glyph glyph-name="fl" unicode="&#xfb02;" horiz-adv-x="540" 
 />
  </font>
</defs>
</svg>
