<?xml version="1.0" encoding="utf-8"?>
<!-- Generator: Adobe Illustrator 18.1.1, SVG Export Plug-In . SVG Version: 6.00 Build 0)  -->
<svg version="1.1" id="Layer_1" xmlns="http://www.w3.org/2000/svg" xmlns:xlink="http://www.w3.org/1999/xlink" x="0px" y="0px"
	 width="792px" height="612px" viewBox="0 0 792 612" enable-background="new 0 0 792 612" xml:space="preserve">
<circle fill="#DDDEDF" cx="349.6" cy="364.7" r="13.6"/>
<path fill="#C8CACB" d="M360.1,356.1c0.2,1.1,0.4,2.2,0.4,3.4c0,8.9-7.2,16.1-16.1,16.1c-1.2,0-2.3-0.1-3.4-0.4
	c2.3,1.9,5.3,3.1,8.6,3.1c7.5,0,13.6-6.1,13.6-13.6C363.2,361.4,362.1,358.4,360.1,356.1z"/>
<circle fill="#DDDEDF" cx="314.7" cy="386" r="8"/>
<polygon fill="#DDDEDF" points="315.9,382.1 351.8,359.7 365.5,394 315.9,394 "/>
<circle fill="#DDDEDF" cx="365" cy="380.4" r="13.6"/>
<path fill="#C8CACB" d="M375.5,371.8c0.2,1.1,0.4,2.2,0.4,3.4c0,8.9-7.2,16.1-16.1,16.1c-1.2,0-2.3-0.1-3.4-0.4
	c2.3,1.9,5.3,3.1,8.6,3.1c7.5,0,13.6-6.1,13.6-13.6C378.6,377.2,377.4,374.2,375.5,371.8z"/>
<circle fill="#DDDEDF" cx="326.9" cy="372" r="11.2"/>
<path fill="#C8CACB" d="M335.6,364.9c0.2,0.9,0.3,1.8,0.3,2.8c0,7.3-5.9,13.2-13.2,13.2c-1,0-1.9-0.1-2.8-0.3
	c1.9,1.6,4.4,2.5,7.1,2.5c6.2,0,11.2-5,11.2-11.2C338.1,369.3,337.2,366.8,335.6,364.9z"/>
<path fill="#FFE8CB" d="M485,165.8l-17.8-43.3c-1.3-0.6-2.8-0.7-4.2-0.2c-1.9,0.7-3.3,2.4-3.6,4.3l0,0.1l-6.6-9.1
	c-2.5-0.4-5.3,1-6.4,4.4c-0.4,1.1,0,2.8,0.7,3.7l1.6,2.1l-4.4-2.8c-1.4,0.3-2.6,1.1-3.5,2.4c-1.6,2.6-0.9,6,1.7,7.6
	c2.6,1.6,13.1,8.4,13.1,8.4l3.3,3.2l0,0l-5.6-2.9c-1.4-0.8-3.2-0.5-4.4,0.6l-15.2,14.6c0,1.4,0.5,2.8,1.5,3.9c1,1,2.2,1.6,3.5,1.7
	c-1.3,0.1-2.5,0.7-3.5,1.7c-1,1.1-1.6,2.5-1.5,3.9l15.2,14.3c1.9,1.8,4.4,2.8,7,2.8l17.4,0c2.6,0,5-1.5,6-3.9l5.5-12.1
	C485.7,169.5,485.7,167.6,485,165.8z M457.2,172.1l-7.7,0c0,0-4.3-4-6.5-6.1c-0.9-0.9-2.1-1.4-3.3-1.5c1.2-0.1,2.3-0.6,3.3-1.5
	c2.2-2.1,8.9-8.4,8.9-8.4l10.6,6L457.2,172.1z"/>
<g>
	<path fill="#F6D4AE" d="M457.4,141.8c-0.2-0.2-0.4-0.4-0.7-0.5l-14.8-6.7c0.1,0.1,0.3,0.2,0.5,0.3c2.4,1.5,11.6,7.5,13,8.3
		c0.1,0.1,0.2,0.1,0.3,0.2l3.2,3.1l0,0l5.4,2.9L457.4,141.8z"/>
</g>
<g>
	<path fill="#F6D4AE" d="M443,163c2.2-2.1,8.9-8.4,8.9-8.4l-16,8.8c0.8,0.6,1.7,1,2.7,1.1h1.2C441,164.4,442.1,163.9,443,163z"/>
</g>
<g>
	<path fill="#F6D4AE" d="M461.7,134.1c-0.2-0.3-0.5-0.5-0.8-0.7l-14.7-10c0.1,1.7,1.2,2.8,2.3,4.3l12.4,7.9c0.2,0.1,0.5,0.3,0.6,0.5
		l11.5,11.4L461.7,134.1z"/>
</g>
<g>
	<path fill="#F6D4AE" d="M461,123.6c-0.8,0.8-1.4,1.9-1.6,3l0,0l15.2,20.9L461,123.6z"/>
</g>
<g>
</g>
<g>
</g>
<g>
</g>
<g>
</g>
<g>
</g>
<g>
</g>
</svg>
